<svg enable-background="new 0 0 45 45" viewBox="0 0 45 45" xmlns="http://www.w3.org/2000/svg"><path d="m34 13.5c-.8-.2-1.5-.7-1.9-1.4-3-6-9.6-9.3-16.3-8-5.8 1-10.5 5.7-11.7 11.6-.4 1.7-.4 3.5-.2 5.2.2 1.1-.1 2-.7 2.6-2 2-3.2 4.6-3.2 7.4 0 5.9 4.4 10.3 10.3 10.3h20.1c7.7 0 14.3-6.1 14.5-13.5.3-6.7-4.3-12.7-10.9-14.2zm-3.6 25.9h-20.1c-4.9 0-8.4-3.5-8.4-8.4 0-2.3.9-4.5 2.6-6.1 1.1-1 1.5-2.6 1.3-4.2-.2-1.5-.2-3.1.1-4.6 1-5.1 5.2-9.2 10.3-10.2.8-.2 1.7-.2 2.5-.2 4.9 0 9.5 2.7 11.7 7.3.6 1.2 1.8 2.1 3.1 2.4 5.7 1.3 9.7 6.5 9.5 12.3-.1 6.4-5.8 11.7-12.6 11.7zm-1.8-12.9c.4.4.4 1 0 1.3l-5.1 5.1c-.5.5-1.1.7-1.7.8-.1 0-.2.1-.3.1s-.2 0-.3-.1c-.6-.1-1.3-.3-1.7-.8l-5.1-5.1c-.4-.4-.4-1 0-1.3.4-.4 1-.4 1.3 0l4.8 4.8v-13.5c0-.5.4-.9.9-.9s.9.4.9.9v13.5l4.8-4.8c.6-.3 1.2-.3 1.5 0z" fill="#fff8f0"/></svg>