<svg enable-background="new 0 0 45 45" viewBox="0 0 45 45" xmlns="http://www.w3.org/2000/svg"><path clip-rule="evenodd" d="m22.5 0c-12.4 0-22.5 10.1-22.5 22.5s10.1 22.5 22.5 22.5 22.5-10.1 22.5-22.5-10.1-22.5-22.5-22.5zm0 41.3c-10.4 0-18.8-8.4-18.8-18.8s8.4-18.8 18.8-18.8 18.7 8.4 18.7 18.8c.1 10.4-8.3 18.8-18.7 18.8zm0-22.5c-1 0-1.9.8-1.9 1.9v11.2c0 1 .8 1.9 1.9 1.9 1 0 1.9-.8 1.9-1.9v-11.3c0-1-.9-1.8-1.9-1.8zm0-7.5c-1 0-1.9.8-1.9 1.9 0 1 .8 1.9 1.9 1.9 1 0 1.9-.8 1.9-1.9s-.9-1.9-1.9-1.9z" fill="#2b7170" fill-rule="evenodd"/></svg>