<svg enable-background="new 0 0 45 45" viewBox="0 0 45 45" xmlns="http://www.w3.org/2000/svg"><g fill="#fff8f0"><path d="m41.4 45c-12.6 0-25.2 0-37.8 0-.1 0-.1-.1-.2-.1-1-.2-1.9-.7-2.5-1.5-.5-.6-.7-1.3-.9-2.1-0-12.5-0-25.1-0-37.7 0 0 .1-.1.1-.1.4-2.1 1.9-3.5 4.1-3.5h36.6c.6 0 1.3.2 1.9.4 1.6.8 2.3 2.2 2.3 3.9v20.1 16.3c0 1.3-.5 2.5-1.5 3.4-.6.5-1.4.7-2.1.9zm1.6-22.5c0-6 0-12.1 0-18.1 0-.8-.2-1.4-.8-1.9-.5-.4-1-.4-1.6-.4-10 0-19.9 0-29.9 0-2.1-.1-4.3-.1-6.4-.1-.9 0-1.7.4-2 1.2-.2.4-.3.9-.3 1.3v29.8 6.4c0 .9.3 1.7 1.2 2.1.4.1.9.2 1.3.2h29.4 6.8c.7 0 1.4-.2 1.8-.8.3-.5.4-1 .4-1.5.1-6.1.1-12.2.1-18.2z"/><path d="m20.5 30.6c0-3.7 0-7.4 0-11.2h4.1v1.5c.7-1.1 1.9-1.4 3.1-1.5 1.6-.1 3 .7 3.6 2.2.4.9.5 1.9.5 2.9v5.9.2c-1.3 0-2.7 0-4.1 0 0-.2 0-.3 0-.5 0-1.8 0-3.6 0-5.4 0-.4 0-.7-.1-1.1-.1-.6-.4-1.1-1-1.2s-1.3.1-1.6.7c-.2.5-.4 1-.4 1.6v5.8c-1.4.1-2.8.1-4.1.1z"/><path d="m18.4 19.5v11.2c-1.3 0-2.7 0-4 0 0-3.7 0-7.4 0-11.2z"/><path d="m18.4 16.4c0 1.1-.9 2-2 2s-2-.9-2-2 .9-2 2-2c1.1-.1 2 .8 2 2z"/></g></svg>