<svg enable-background="new 0 0 45 45" viewBox="0 0 45 45" xmlns="http://www.w3.org/2000/svg"><path clip-rule="evenodd" d="m15 26.2h-11.2c-2.1 0-3.8 1.7-3.8 3.8v11.2c0 2.1 1.7 3.8 3.8 3.8h11.2c2.1 0 3.8-1.7 3.8-3.8v-11.2c-.1-2.1-1.7-3.8-3.8-3.8zm0 15h-11.2v-11.2h11.2zm0-41.2h-11.2c-2.1 0-3.8 1.7-3.8 3.7v11.3c0 2.1 1.7 3.8 3.8 3.8h11.2c2.1 0 3.8-1.7 3.8-3.8v-11.3c-.1-2-1.7-3.7-3.8-3.7zm0 15h-11.2v-11.3h11.2zm26.2-15h-11.2c-2.1 0-3.8 1.7-3.8 3.7v11.3c0 2.1 1.7 3.8 3.8 3.8h11.2c2.1 0 3.8-1.7 3.8-3.8v-11.3c0-2-1.7-3.7-3.8-3.7zm0 15h-11.2v-11.3h11.2zm0 11.2h-11.2c-2.1 0-3.8 1.7-3.8 3.7v11.2c0 2.1 1.7 3.8 3.8 3.8h11.2c2.1 0 3.8-1.7 3.8-3.8v-11.1c0-2.1-1.7-3.8-3.8-3.8zm0 15h-11.2v-11.2h11.2z" fill="#fff8f0" fill-rule="evenodd"/></svg>