<svg enable-background="new 0 0 45 45" viewBox="0 0 45 45" xmlns="http://www.w3.org/2000/svg"><path clip-rule="evenodd" d="m33.7 22.4c0-.1 0-.1 0 0 0-.3-.1-.5-.2-.7-.1-.2-.2-.3-.4-.5 0 0 0-.1-.1-.1l-4.7-7.1c-.6-.9-1.8-1.1-2.8-.7-1 .5-1.3 1.6-.8 2.4l3.3 4.8h-14.9c-1 0-1.9.8-1.9 1.9 0 1 .8 1.9 1.9 1.9h14.8l-3.3 4.8c-.6.9-.2 1.9.8 2.4s2.3.2 2.8-.7l4.8-7.1c.1-.1.1-.1.2-.2s.2-.2.2-.4c0-.1.1-.1.1-.2.1-.2.1-.3.1-.5 0 0 0 0 0-.1 0 0 0 0 0-.1v-.1c.1.4.1.3.1.3zm-11.2-22.4c-12.4 0-22.5 10.1-22.5 22.5s10.1 22.5 22.5 22.5 22.5-10.1 22.5-22.5-10.1-22.5-22.5-22.5zm0 41.3c-10.4 0-18.8-8.4-18.8-18.8s8.4-18.8 18.8-18.8 18.8 8.4 18.8 18.8-8.4 18.8-18.8 18.8z" fill="#2b7170" fill-rule="evenodd"/></svg>