<svg enable-background="new 0 0 45 45" viewBox="0 0 45 45" xmlns="http://www.w3.org/2000/svg"><g fill="#fff8f0"><path d="m9.9 31c.5-.3.9-.5 1.2-.8.5-.4.9-.8 1.4-1.2 2.6-1.8 5.3-2.1 8.2-.9.8.3 1.6.8 2.5.8h2.8c.7 0 1.3-.1 1.8-.5.6-.3 1.2-.6 1.7-1 1.4-.7 2.7-.7 4 .1.2.1.3.2.5.1 1.3-.7 2.4-.4 3.5.5.1 0 .1.1.1.1.4-.1.9-.3 1.3-.3 1.4-.2 2.5.3 3.3 1.4.4.5.3.9-.2 1.2-3.9 2.7-7.8 5.4-11.7 8-1 .7-2.2.9-3.3 1.1-1.5.2-2.9-.2-4.4-.4-1.7-.3-3.5-.6-5.2-1-.6-.1-1.1 0-1.6.3-1 .7-2 1.3-3.1 1.9.1.3.2.7.3 1 .2.8.5 1.6.7 2.3.2.6-.1 1-.7 1-2.7 0-5.4 0-8.1 0-.5 0-.8-.2-.8-.7-.2-1.9-.4-3.7-.7-5.6-.2-1.9-.5-3.8-.7-5.7-.2-1.2-.3-2.5-.4-3.7-.1-.5.2-.8.7-.8h5.4c.4 0 .6.2.8.6.3.8.5 1.4.7 2.2zm2.6 8.3c1-.6 2-1.2 2.9-1.8.7-.4 1.4-.6 2.1-.5 1.9.3 3.7.7 5.6 1 1.2.2 2.3.5 3.5.4 1.3-.1 2.5-.4 3.5-1.1 3.3-2.3 6.7-4.6 10.1-6.9.2-.2.5-.3.7-.5-.5-.6-1.6-.7-2.4-.3-1.9 1.1-3.9 2.1-5.8 3.2-.1.1-.2.2-.3.3-.2.6-.3.7-1 .7-1.2 0-2.4-.1-3.6-.2-.7 0-1.5 0-2.2 0-.5 0-1 .1-1.5.1-.4 0-.7-.3-.7-.6s.2-.6.6-.7c.2 0 .3-.1.5-.1h4.7 1.5c0-.1 0-.1 0-.2s-.1-.2-.1-.3c-.6-1-1.4-1.5-2.5-1.5-1.3 0-2.7 0-4 0s-2.4-.2-3.6-.8c-1-.5-2-.7-3.1-.7-1.6 0-3.1.5-4.4 1.5-.9.7-1.6 1.5-2.8 1.9.8 2.4 1.5 4.7 2.3 7.1zm-8.7-9.5c.6 4.6 1.2 9.2 1.7 13.8h6.8c0-.2-.1-.3-.1-.5-.4-1.2-.7-2.4-1.1-3.7-.9-3.1-1.9-6.1-2.8-9.2-.2-.5-.2-.5-.7-.5-.6 0-1.2 0-1.9 0-.6.1-1.2.1-1.9.1zm28.3 1.7c1.5-.8 2.9-1.6 4.4-2.4-.6-.4-1.1-.5-1.7-.2-1 .5-2 1.1-3 1.6-.1 0-.1.1-.2.2.2.3.3.5.5.8zm.3-2.8c-1.1-.5-1.9-.1-2.8.5.3.1.5.3.8.4.1 0 .3.1.3 0 .6-.3 1.2-.6 1.7-.9z"/><path d="m17.2 12.9c.2.3.5.5.7.8 0 .1.2.1.2.1.2 0 .5-.1.7-.2.2 0 .4 0 .5.3.2.5.3 1 .5 1.4.1.2 0 .4-.2.5s-.4.2-.7.3c-.1 0-.1.1-.1.2v.5c0 .2 0 .3-.1.5.2.1.5.3.7.4.3.2.3.3.2.6-.2.4-.4.8-.6 1.3-.1.3-.3.3-.6.2-.2-.1-.4-.1-.6-.2-.1-.1-.2 0-.3.1-.2.2-.4.4-.6.6-.1.1-.1.2-.1.3.1.2.1.4.2.6.1.3 0 .4-.3.5-.5.2-.9.3-1.4.5-.3.1-.4 0-.5-.2s-.2-.4-.3-.6c-.1-.1-.1-.2-.3-.2-.3 0-.5 0-.8-.1-.1 0-.2 0-.3.1-.1.2-.2.4-.4.6-.1.2-.3.3-.5.2-.4-.2-.9-.4-1.3-.6-.3-.1-.3-.3-.2-.5s.1-.4.2-.6c0-.1 0-.2-.1-.3-.2-.2-.4-.4-.6-.6-.1-.1-.1-.1-.3-.1-.2.1-.4.1-.6.2-.3.1-.5 0-.6-.3-.2-.4-.3-.9-.5-1.3-.1-.3-.1-.4.2-.6l.6-.3c.1 0 .1-.1.1-.2 0-.3 0-.6.1-.9 0-.1 0-.2-.1-.2-.2-.1-.4-.2-.6-.4s-.3-.3-.2-.6c.2-.4.4-.9.6-1.3.4-.4.6-.4.9-.3.2.1.4.1.6.2.1.1.2 0 .3-.1.2-.2.4-.4.6-.5.1-.1.1-.2.1-.3-.1-.2-.1-.4-.2-.7s0-.4.3-.5c.5-.2.9-.3 1.4-.5.3-.1.4 0 .5.2s.2.4.3.6c.1.1.1.2.3.2.3 0 .5 0 .8.1.1 0 .2 0 .3-.1.1-.2.2-.4.4-.6.1-.2.3-.3.5-.2.5.2.9.4 1.4.7.2.1.3.3.2.5-.2.3-.3.5-.4.8zm-.5-.7c-.3-.1-.6-.3-.8-.4-.1.2-.2.4-.4.6-.2.3-.3.3-.6.2-.4 0-.8-.1-1.2-.1s-.5 0-.6-.4c-.1-.2-.2-.4-.3-.6-.2.1-.5.2-.7.2-.1.1-.1.2-.1.3 0 .2.1.4.1.5.1.3 0 .4-.2.6-.3.3-.6.5-.9.8-.2.2-.3.3-.6.1-.2 0-.4 0-.6-.1-.1.3-.3.6-.4.8.2.1.4.3.6.4s.2.3.2.5c-.1.5-.1.9-.1 1.4 0 .2-.1.4-.3.4-.2.1-.4.2-.5.2s-.1.1-.1.2c.1.3.2.5.3.8.3-.1.5-.1.7-.2.3-.1.4 0 .6.2.3.3.5.6.8.9.2.2.3.3.2.6-.1.2-.2.5-.2.6.3.1.5.3.8.4.1-.2.3-.4.4-.6s.3-.3.5-.2c.4.1.9.1 1.3.1.2 0 .3.1.4.3s.2.4.2.5.1.2.2.1c.2-.1.5-.2.8-.3-.1-.3-.1-.5-.2-.7-.1-.3 0-.4.2-.6l.9-.9c.2-.2.3-.2.5-.1s.5.2.7.2c.1-.3.3-.5.4-.8-.2-.1-.4-.2-.6-.4s-.3-.2-.2-.5c0-.4.1-.8.1-1.2s0-.4.4-.6l.6-.3c-.1-.2-.2-.5-.2-.7 0-.1-.1-.2-.3-.1s-.4.1-.5.1c-.3.1-.4 0-.5-.2-.2-.4-.5-.7-.9-1-.2-.2-.2-.3-.1-.6 0-0 .1-.2.2-.4z"/><path d="m8.7 39.9c1 0 1.8.8 1.8 1.8s-.8 1.8-1.8 1.8-1.8-.8-1.8-1.8.8-1.8 1.8-1.8zm.4 1.7c-.1-.1-.3-.3-.4-.3-.2-.1-.4.1-.4.4 0 .2.1.4.4.4.2 0 .3-.1.4-.5z"/><path d="m17.5 16.5c0 1.9-1.6 3.5-3.5 3.5s-3.5-1.6-3.5-3.5 1.5-3.5 3.5-3.5 3.5 1.5 3.5 3.5zm-6.1 0c0 1.5 1.2 2.7 2.7 2.7s2.8-1.2 2.8-2.7-1.2-2.7-2.7-2.7c-1.6-.1-2.8 1.1-2.8 2.7z"/><path d="m28.9 3.4c.1.3.3.7.4 1 0 .1.1.1.2.1.2 0 .5.1.7.1s.3.1.3.4v1.5c0 .2-.1.4-.3.4-.2.1-.5.1-.7.1-.1 0-.2 0-.2.1-.1.2-.1.3-.2.5s-.1.4-.2.5c.2.2.3.4.5.6.2.3.2.4 0 .6-.3.3-.7.7-1 1-.2.2-.4.2-.6 0-.2-.1-.3-.3-.5-.4-.1-.1-.2-.1-.3 0-.2.1-.5.2-.8.3-.1 0-.2.1-.2.2 0 .2 0 .4-.1.7 0 .3-.2.4-.5.4-.5 0-1 0-1.5 0-.3 0-.4-.1-.4-.4 0-.2-.1-.4-.1-.7 0-.1-.1-.2-.2-.2-.3-.1-.5-.2-.7-.3-.1-.1-.2-.1-.3 0-.2.2-.4.3-.5.4-.2.2-.4.2-.6 0-.4-.3-.7-.7-1-1-.1-.1-.1-.3.1-.5.1-.2.3-.3.4-.5.1-.1.1-.2 0-.3-.1-.3-.2-.5-.3-.8 0-.1-.1-.2-.2-.2-.2 0-.4 0-.7-.1-.3 0-.4-.2-.4-.5 0-.5 0-.9 0-1.4 0-.3.1-.4.4-.5.2 0 .5-.1.7-.1.1 0 .2-.1.2-.2.1-.3.2-.5.3-.8 0-.1 0-.2 0-.3-.1-.2-.3-.4-.4-.5-.2-.2-.2-.4 0-.6.3-.3.7-.7 1-1 .2-.2.4-.2.6 0 .2.1.3.3.5.4.1.1.2.1.3 0 .2-.1.5-.2.7-.3.1 0 .2-.1.2-.2 0-.2 0-.5.1-.7.1-.1.2-.2.4-.2h1.5c.3 0 .4.1.4.4.1.2.1.4.1.6 0 .1.1.2.2.3.3.1.5.2.7.3.1.1.2.1.3 0 .2-.2.4-.3.5-.4.3-.2.5-.2.6-0 .4.3.7.7 1.1 1.1.2.2.2.4 0 .6-.2.1-.3.3-.5.5zm-.2-.8c-.2-.2-.4-.4-.6-.7-.2.1-.4.3-.5.4-.2.2-.3.2-.6 0-.4-.2-.7-.3-1.1-.5-.3-.1-.4-.2-.5-.6 0-.2 0-.4-.1-.6-.3 0-.5 0-.7 0-.1 0-.2.1-.2.2 0 .2 0 .4-.1.6 0 .3-.1.4-.4.5-.4.1-.8.3-1.2.5-.3.1-.4.1-.6-.1-.2-.1-.4-.3-.5-.4-.2.2-.4.4-.7.7.1.2.3.4.5.6.1.2.1.3 0 .5-.2.3-.4.8-.5 1.2-.1.2-.2.3-.4.3s-.4 0-.6.1c-.1 0-.2.1-.2.1v.8c.3 0 .5 0 .7.1.3 0 .4.1.5.4.1.4.3.8.5 1.1.1.3.1.4 0 .6-.2.2-.3.4-.4.5.2.2.4.4.6.7.2-.2.4-.3.6-.5.2-.1.3-.2.5 0 .4.2.8.4 1.2.5.2.1.3.2.3.4s0 .4.1.6c0 .1 0 .2.1.2h.8c0-.3 0-.5.1-.7 0-.3.1-.4.4-.5.4-.1.8-.3 1.2-.5.2-.1.4-.1.6 0 .2.2.4.3.6.5.2-.2.4-.4.7-.6-.2-.2-.3-.4-.5-.5-.2-.2-.2-.3 0-.6.2-.4.3-.7.5-1.1.1-.3.2-.4.5-.4.2 0 .4 0 .7-.1 0-.3 0-.5 0-.7s-.1-.2-.2-.2c-.2 0-.4 0-.5 0-.3 0-.4-.1-.4-.4-.1-.4-.3-.8-.5-1.2-.1-.2-.1-.3 0-.6-0-.3.1-.4.3-.6z"/><path d="m28.2 5.8c0 1.9-1.6 3.5-3.5 3.5s-3.5-1.6-3.5-3.5 1.5-3.5 3.5-3.5 3.5 1.6 3.5 3.5zm-6.1 0c0 1.5 1.2 2.7 2.7 2.7s2.8-1.2 2.8-2.7-1.2-2.7-2.7-2.7c-1.6-.1-2.8 1.1-2.8 2.7z"/><path d="m40.4 16.4c0 .4-.1.7-.1 1 0 .1.1.2.1.2.2.1.4.3.6.4s.2.3.1.5c-.2.5-.4.9-.7 1.4-.1.2-.2.3-.5.2-.2-.1-.5-.2-.7-.2-.1 0-.2 0-.2 0-.1.1-.2.2-.4.4-.1.1-.3.2-.4.3.1.3.1.5.2.8s0 .5-.3.6c-.4.2-.9.3-1.3.5-.3.1-.4 0-.6-.2-.1-.2-.2-.4-.3-.6-.1-.1-.1-.2-.3-.2-.3 0-.6 0-.8 0-.1 0-.2 0-.3.1-.1.2-.2.4-.3.6-.2.2-.3.3-.6.2-.4-.2-.9-.4-1.3-.6-.3-.1-.3-.3-.2-.5s.1-.4.2-.6c0-.1 0-.2-.1-.3-.2-.2-.4-.4-.5-.6-.1-.1-.1-.1-.3-.1-.2.1-.4.1-.7.2s-.4 0-.5-.3c-.2-.5-.3-.9-.5-1.4-.1-.3 0-.4.2-.5l.6-.3c.1 0 .2-.1.2-.2 0-.3 0-.6 0-.9 0-.1 0-.2-.1-.2-.2-.1-.4-.2-.6-.3-.3-.2-.3-.3-.2-.6.2-.4.4-.8.6-1.2.1-.3.3-.3.6-.2.2.1.5.2.7.2.1 0 .2 0 .2-.1.2-.2.4-.4.6-.6.1-.1.1-.1.1-.3-.1-.2-.1-.4-.2-.7s0-.4.3-.5c.5-.2.9-.3 1.4-.5.3-.1.4 0 .6.2.1.2.2.4.3.6.1.1.1.2.3.2h.8c.1 0 .2 0 .3-.1.1-.2.2-.4.4-.6s.3-.3.6-.2c.4.2.9.4 1.3.6.2.1.3.3.2.5s-.1.4-.2.6c-.1.1 0 .2.1.3.2.2.4.4.5.6.1.1.2.1.3.1.2-.1.4-.1.7-.2s.4 0 .5.3c.2.5.3.9.5 1.4.1.2 0 .4-.2.5-.2 0-.4.2-.7.3zm.2-.9c-.1-.3-.2-.6-.3-.9-.2.1-.5.1-.7.2-.3.1-.4 0-.6-.2-.2-.3-.5-.6-.8-.9s-.3-.4-.2-.7c.1-.2.1-.4.2-.6-.2-.1-.5-.2-.7-.3-.1-.1-.2 0-.3.1-.1.2-.2.3-.3.5-.2.3-.2.3-.5.2-.4 0-.8-.1-1.2-.1-.3 0-.4 0-.5-.3-.1-.2-.2-.4-.3-.6-.3.1-.6.2-.9.3.1.2.1.5.2.7 0 .2 0 .4-.2.5-.4.2-.7.6-1 .9-.1.2-.3.2-.5.1s-.4-.1-.6-.2c-.1 0-.2 0-.2 0-.1.2-.2.5-.4.7.2.1.4.3.6.4.3.2.3.3.3.6 0 .4-.1.8-.1 1.2 0 .3 0 .4-.3.5-.2.1-.4.2-.6.3.1.3.2.6.3.9.2-.1.5-.1.7-.2s.4 0 .5.2c.2.4.5.7.9 1 .2.2.2.3.1.5s-.1.4-.2.6c0 .1-.1.2.1.2.2.1.5.2.7.3.1-.2.3-.4.4-.6.2-.3.3-.3.6-.2.4 0 .8.1 1.3.1.3 0 .4 0 .5.3.1.2.2.5.3.7.3-.1.6-.2.9-.3-.1-.2-.1-.5-.2-.7-.1-.3 0-.4.2-.5.3-.3.6-.5.9-.8.3-.2.3-.3.7-.2.2.1.4.1.6.2.1-.2.2-.5.3-.7.1-.1 0-.2-.1-.3-.2-.1-.3-.2-.5-.3s-.3-.3-.2-.5c.1-.4.1-.9.1-1.3 0-.3 0-.4.3-.5s.5-.2.7-.3z"/><path d="m38.1 19.1c-1.4 1.4-3.5 1.4-4.9 0-1.3-1.3-1.3-3.6 0-4.9 1.4-1.4 3.6-1.4 4.9 0 1.4 1.4 1.4 3.6 0 4.9zm-4.3-4.3c-1.1 1.1-1.1 2.8 0 3.8 1.1 1.1 2.8 1.1 3.9 0 1.1-1 1.1-2.8 0-3.8-1.1-1.1-2.8-1.1-3.9 0z"/></g></svg>