<svg enable-background="new 0 0 115 126" viewBox="0 0 115 126" xmlns="http://www.w3.org/2000/svg"><g fill="#fff8f0"><path d="m61.9 37.3c.5.4 1.3-1.3 1.6-.6.2-.3.4-.6.6-.9.4-.1.8-.4 1.1-.7-.4-.3-.9.4-1.1.7.1-2.1 4.1-2.6 5.3-4.6.5 0-.1.2.2.5.4-.1.6-.5.6-1.1-.1-.3-.3.1-.6 0 .2-.5.7-.7 1.5-.7 0 .5-.6.2-.6.7.5.1 1.2-.7 1.6-1.1-.2-.5-.6.1-.6.2 1.6-1.9 3.6-3.4 5.9-4.5 0-.2-.3-.1-.6-.1.1-.6.9-.2 1.4-.4.5-.8 2-1.7 3.2-2-.6 4.3-4.9 7-7.8 9.7-5.9 5.6-13 10-19.6 14.8.1 3.7.1 6.3-.5 9.6.2.1.4.2.6.2-.7.8-1.1 2.7-.1 2.9-.1.5-.8.2-.8.6 0 .3.6.3.8.6-1.1.1-.5.9-.8 1.6.5.2.2-.3.7-.2-1.6 2.9-.7 6.6-2.1 8.5 1.1 1.3-.5 1.7-.7 2.8.3 0 .3-.3.3-.7.7.8-.3 1.4 0 2.2-.2 0-.3.2-.6.2.1.2.5.2.4.7-.5 0-.4-.3-.6-.3 0 .2-.2.2-.1.6 0 .2.3.1.6.1-.3.8-.4 1.6-.5 2.5-.7 0-.2-.6-.5-.6-.5 0-.1.7-.5.8.5.1.6-.2.8 0-.4 1.4-1.2 3.3-1.5 4.9-.2 0-.4 0-.4-.2-.5-.1-.1.6-.3.7-.1-.3-.2-.3-.5-.2 0 .2.2.1.5.2-.4 1.4-1.1 2.5-1.1 3.7.5-.1.2-.9.6-1.2.3.2.2 1.4-.2 1.3-.2.6.2.5.2.8h-.6c.1.4.1.9-.1 1.3-1.3 0-1.2 1.3-1.4 2 .7-.1.1-1.4 1.2-1.4-.2.5-.3 2-1.3 1.6-.5.5-.5 1.3-1.2 1.4.4.7-.8.9-.2 1.9.5 0 .5-.6.8-.8 0 1.1-.5 2.2-1.4 2.8.1-.6.7-1.4.6-1.9-.5.5-.9.8-.8 1.4-.8 0-.6.4-.7 1.1.5.1.1-.7.7-.6 0 .4-.4.4-.4.8.4 0 .5-.2.6-.5.4.5-.3.9-.2 1.4-.7.1-.5-.3-1.1-.1-.1.5.5.2.7.4-.5.6-1.2.5-2 .2.3.5.8 1.2 1.4.8-.2.7-.3 1.5-1.4 1.5.7.8-.4 1.1-.4 2-.5-.7-.9.6-1.3-.1-.2.7-.9 1.1-1.2 1.9.7-.2.6-1.1 1.4-1.1-.2.6-.8.8-1 1.4.3.3.2-.4.7-.4.1.7-.7.6-1.1.9.5.5.1.6-.1 1.2-.8-.1-1.3-.2-1.6.3-.1.5.5.4.7.5-.6.1-.7.7-1.3.8 0-.2.2-.2.2-.5-.7.2-.5 1.4-.3 1.6-.4.3-.9.7-1.3 1.1-.3-.4.4-.8.5-1.3-.8.1-.7 1.1-1.2 1.3.4.1.4.5.8.5-.1.5-.6.6-1.3.6.9.7-.8 1.7-2.1 1.4 0 .5.9 0 .9.5-2.1 1.3-3 4.3-6.1 3.9 0 .5.2.6.7.3-.5.9-2 .8-2.7 1.4 0 .2.1.2.3.3-.6.1-1.2.2-1.7.1 0 .2.1.4.1.6-1.1 0-2.2.3-3 .9-.2 0-.3 0-.2-.2-10.3 2.9-16.6-6.2-18-15.5 0-.2.4-.3.5-.6-.3-.2-.5-.5-.1-.8 0-.2-.5-.1-.6-.2 1.3-14.2 7.8-25.6 16-35.1-.5 1.4-2 2.3-2.1 3.7-.1 0-.4 0-.2-.2-.9 1.5-2.3 2.3-2.9 4.2.1.4.2-.5.5 0-.2.5-1.4.1-1.2 1.2.3.1.2-.6.5-.7.5.2-.5.8 0 1.1-.8-.1-1.1.5-1.6 1.1.2.5.3-.2.7-.1.1.5-.5.4-.5.8-1-.5-1.6 1.6-2 2.6.1.2.3.3.3.7-.9-.1-.2 1.3-1 1.2-.6 2.7-2.6 6.4-3.7 10 .1.1.3.2.5.3.8-.5 0-1.6.9-1.9 0-.4-.5-.2-.3-.7.2 0 .5 0 .7-.1-.4-.7.8-1.3.1-1.9.2-.1.4-.5.8-.3 1.5-5 3.9-8.9 6.4-12.7.1-.3-.6 0-.4-.5.2-.3.5.1.7-.1 1.5-2.5 3.3-4.9 5.3-7 .1-.4-.2-.4-.4-.5.1-.4.5.1.7 0 1.5-2.6 4.2-4.1 5.7-6.9 2-1.1 3.7-2.7 4.9-4.6.1 0 .1.1.1.2 3.1-2.6 6.5-4.9 9.6-7.7 2.2-.5 3-2.5 5.2-3v-.7c.6.3 2.7-.6 2.5-1.5.5.2.6-.1 1.2 0 .1-.6-.2-.7 0-1.2.4.4.5.1.7.2-.1-8.2 1.3-15 .6-23.2 3.4-2.6 7.9 1.9 5.6 4.8.4 2.3.3 4.6-.2 6.9 0 .1.2.1.4.1-.4 2.6-.6 5.1-.7 7.7.5 0 .6-.4.7-.7.3.1.3.5.6.6-.2-.8 1.5-1.4 1.7-2.1h.7c-.4.9-1.6.9-2 1.6 1.2-.2 1.7-1.2 2.8-1.6 0-.2-.5-.1-.6-.2.2-.7 1.2.1 1.5-.5-.6-.6.6-.7.7-1.3.4.1.4.6.7.4.2-.6-.6-.1-.4-.6.7 0 .7-.8 1.5-.7.1.6-.5.4-.5.8zm-59.7 69.5c-.4-.1-.5.1-.5.5.4.1.4-.3.5-.5zm1.2-9c-.2 2.7-1.6 5.2-1.3 7.7.5-2.8 1.9-5.2 1.3-7.7zm-.4 10.4c-.4-.1-.5 0-.6.2.3.3.7.1.6-.2zm1.3-11.5c-.2 0-.2-.3-.6-.2-.2.3-.4.8.3.8.1-.2.2-.3.3-.6zm1 4.1c.2.2.7.1.6-.2h.1c.3-.4-.1-.8-.5-.8-.1.3.2.5.4.8-.3 0-.5.1-.6.2zm.4-5.7c-.1.4.6.4.5 0-.1-.1-.5-.3-.5 0zm.6 4.7c0-.6-.6-.8-.6-.2.2-.1.4 0 .6.2zm.1-1.7h-.6c0 .3.2.5.5.6.1-.2.1-.4.1-.6zm13.3-23.5c-1.5 3.4-4.6 6.6-6.6 10-.5 1.2-.9 3-2 3-.1.5.4.5.4.7-1 1.9-1.9 3.8-2.6 5.9-.5-.5-.8-.1-1.3-.5-0 .3.3.3.2.7.2 0 .7-.4.8 0-.1 1.3-.6 2.6-1.5 3.5.2 0 .4 0 .6.1-1.1 1.5-.5 3.4-1.5 4.9.4.9-.1 2.5-.2 3.6.1.5.3.8.5 1.2-.5 4.5.6 11.2 6.6 10.8 1.7-.5 3.5-.2 4.9-1.1 2.1 0 3.6-1.7 5.4-2.6 0 .2-.6.6 0 .6.5-.5.8-1.2 1.6-1.3-.2-.7 1.1-.8 1.6-1.3-.3 0-.1-.7.2-.5-.1.1-.4.5.1.4-.1-.7.3-1.2.7-.7-.1-.8.6-.8.8-1.3-.1 0-.2-.1-.2-.4 5.5-4.7 9.1-11.9 12.5-18 0 .2-.5.6 0 .7.2-.8 1.2-1.7.9-2.7-.5.5-.4 1.4-.9 1.7 0-1.3 1.1-2.1.9-3.2.2 0 .6.1.6-.1-.2 0-.4-.2-.2-.6 1.6-.7 1.2-2.3 1.2-3.6.8-.1.1-.9 1-.8-.2-2.6 1.7-4.8 1.4-7.1 2.3-8.4 3.2-15.8 3.5-25.7-.3-.1-.1-.8-.6-.8-9.5 5.9-18.2 13-25.8 21.2-.8 1.3-1.5 2.6-3 3.3zm-13.4 19.9c-.1.4 0 .6.2.6.3-.1.2-.6-.2-.6zm.4 3.3c0-.2 0-.5-.2-.5 0 .2-.1.4-.1.5zm-.3-2.3c0 .5.6.4.7.1-.2-.1-.4-.2-.7-.1zm.6-3.4c0-.2-.1-.4-.4-.5 0 .1-.1.2-.1.4.3 0 .3.1.5.1zm-.5 2.2h.3c0-.1 0-.2.1-.1v-.4h-.2c0 .1 0 .2-.1.1zm.5 2.8c0-.2-.1-.4-.4-.5 0 .1-.1.2-.1.4.3 0 .3.1.5.1zm-.1 1.6c-.1.2-.3.3-.3.7.3.1.5-.6.3-.7zm0-6c-.1.3.1.3.2.4.3 0 .5-.4.7-.6-.4-.1-.4.3-.6.3-.1 0-.2-.2-.3-.1zm.9 1.8c-.5 0-1.1.5-.7.8.5 0 .7-.3.7-.8zm-.6-3.8c0 .1-.2.2-.1.6.5 0 .6-.6.1-.6zm.6 2.3c-.1.3.6.3.5 0-.1 0-.5 0-.5 0zm.5-3c0 .2-.1.5.1.6.1-.1.4-.7-.1-.6zm.3-4.8v.2h-.2v-.2zm.4 4h-.5v.4c.4.1.3-.3.5-.4zm-.2-5.5c0-.6.4-1.2 1-1.4-.4.5-.7.9-1 1.4zm.4 4.4c0 .4-.7.7-.1.8 0-.2.5-.5.1-.8zm0-1.7h.2c.2-.2.2-.4-.1-.5 0 .1 0 .1-.1.1zm.7 1.5c-.1-.6.2-.6.2-1.1h-.3c.1.7-.5.3-.5.9.3.1.3.2.6.2zm1.2-2.8c-.2 0-.2-.2-.5-.1 0 .6-.7.7-.6 1.5.8-.1.6-1 1.1-1.4zm-.4-.8c-.3-.1-.6 0-.6.4.3-.1.5-.2.6-.4zm.4-.6c.1-.3-.6-.5-.5-.1.1 0 .1 0 .1.1zm2.6-4c-.8 1.5-1.7 3.2-2.8 5 1.5-1.3 2.1-3.5 3.4-5 .1.6 1.1 0 1.1-.6-.7-.1-.6.5-.9.6.1-.6-.7-.2-.8-.7.1-.4.6-.4.6-.8-.7 0-.8.6-.9 1.2-.1.1.3.1.3.3zm-2.4 3.4c0-.4-.1-.5-.5-.5v.5zm.8-2.2c0 .1-.6.5-.1.7-.1-.3.6-.6.1-.7zm.8 2.8c-.4 0-.6.2-.7.7.6 0 .6-.3.7-.7zm-.6-2.9c.3.1.5-.6.2-.5-.1.1-.1.1-.2.1zm.2-3.3c-.5-.3.4-.5.2-.8.9.1-.2.6-.2.8zm.7 2.3c-.2 0-.6 0-.5.4.3 0 .4-.1.5-.4zm0 3.5c0-.2-.2-.2-.5-.2v.2zm1.7 37.8c0-.3-.1-.5-.5-.5 0-.3.6-.1.5-.5-.6.2-2.1-.2-2.1.7.6-.4 1.1 0 1.6-.2.2.1.1.6.5.5zm-1.6-38.5c.5 0 .9-.9.7-1.3-.4.2-.1.9-.8.7-.1.3.1.3.1.6zm.4-6.9v.3h-.2v-.4h.2zm.5 2.3h.2c.2-.2.2-.4-.1-.5 0 .1 0 .1-.1.1zm.9.1c-.3-.1-.7 0-.8.4-.1.2 0 .4.1.6.5-.2.6-.7.7-1zm-.2-2.8c-.2-.1-.3-.2-.2-.5.1.1.2.3.2.5zm.5 2.7c.2-.6.5-.5.4-1.4-.5.1 0-.7-.5-.5-.6.6.2.9-.3 1.5.2 0 .2.3.4.4zm.7 41.9c.2.4.2.5 0 .7 1.2-.8 2.5-.8 3.7-1.7-.2-.1-.8.1-.8-.1.1-.5.5-.2.8-.2.1-.2-.3-.5 0-.5.7.2 1.3-.3 1.5-.9v-.1c-.5.4-.5 0-.8-.2-1.5 1.2-4.1 2.3-5.6 3.6.7.3.7-.6 1.2-.6zm-.5-46c-.1.1-.1.2-.1.3-.3 0-.3-.2-.1-.3zm.4 2c0-.1.1-.1.1-.2-.1 0-.2-.1-.1-.2.1 0 .2 0 .2-.2-.5-.1-.5.4-.6.7h.4zm.4 2.2c-.1 0-.2-.2-.3-.1-.4.2.1.4-.2.7.2-.1.5-.3.5-.6zm-.1-2.1c-.2.1-.2.5.2.3 0-.2-.1-.3-.2-.3zm.5-.5h.2c0-.2-.1-.4-.2-.4v.4c-.8.2.5.7 0 0zm.2-2c.1.5-.3.4-.2.7.3.1.8-.7.2-.7zm.1-3.5c.7-.8 1.1-1.9 2.1-2.2-.7.8-1.2 1.7-2.1 2.2zm.4 3.1c-.2.1-.2.4-.1.6 0 .1.1.1.2.1.3-.3.3-.7-.1-.7zm.3.7c0 .1-.1.2-.1.3.4.2.8 0 .5.6.4 0 .6-.3.5-.8-.1 0-.4 0-.4-.1.6-.2.4-1.2 1.1-1.2.2.1.9.6 1.1 0-.2-.1-.6-.1-.7-.2-.2-.7 1.7-1.3.7-1.9-.3 1.4-2.2 1.9-2.1 3.3zm1-1.7c-.2 0-.3-.1-.6-.1-.1.2-.2.4-.3.6.5 0 .6-.2.9-.5zm.2 49.1c-.6-.4.6-.2.3-.7-.5 0-.7.4-.9.6.2 0 .4.6.6.1zm1.2-50.8c-.7.3-1.4.7-1.6 1.5.7-.4 1.2-.9 1.6-1.5zm-1 3.4v-.4h-.2v.4zm.6-6.8c-.1.5-.2.7-.6.8-.2-.5.1-.7.6-.8zm-.1 6.8v-.4h-.4v.4zm.5 46.8v-.3h-.5c0 .1 0 .3.1.3zm-.2-53.6c1.3-2 2.7-4 5.2-4.9-2.1 1.2-3.3 3.4-5.2 4.9zm.3 3c0-.1.1-.1.1-.2-.1 0-.2-.1-.2-.1 0 .1-.1.1-.2.2.2 0 .2.1.3.1zm0 49.2v-.2h-.3v.2zm.4.6c-.1.2-.4.4-.2.8.3.1.6-.7.2-.8zm1.4-52c-.7.4-1.2 1.1-1.5 1.9.5.4.5-.7 1-.6.1.5-.7.6-.2.8.8-.6 1.6-1.9 2.5-1.6 0-.2-.2-.7.1-.7.3-.1-.1.6.5.3-.2-.8.6-.6.7-1.2-.2 0-.5 0-.5-.2.2 0 .1-.5.5-.4.1.2.2.5.5.2-.2-.3-.2-.7 0-1-.5-.1-.4.3-.7.5-.3-.4-.6-.1-1.2-.1 0 1.1-.9 1.2-1.4 1.7-.1.5.6.2.7.7-.8 0-.7.8-1.4.9-.4-.7 1-.6.4-1.2zm.4 50.2c0-.5-.5-.6-.8-.6 0 .6-.6.5-.7.8.4.4.6-.4 1.5-.2zm-.8 2.3c0-.2-.1-.3-.3-.3-.1 0-.1 0-.2.1v.2zm.2-4.2c-.3 0-.6.3-.6.6.3 0 .6-.2.6-.6zm.7-46.2c-.7-.6-.9.2-1.2.8.5-.2.9-.4 1.2-.8zm-.9 49.7c.2 0 0 .6.5.5 0-.3-.4-.9-.5-.5zm1.1-3.5c-.5 0-.8.2-.7.8.5.1.6-.4.7-.8zm.5 3.1c-.5 0-.7.1-.8.5.2.2.7 0 .8-.5zm.8-2.9c-.7.1-1.3.6-1.5 1.3.6-.4 1.3-.6 1.5-1.3zm-.6-47.5c0-.4-.6-.1-.7 0-.2.4 1 .4.7 0zm-.1-1c-.5.1-.2-.5-.4-.7.2 0 .4-.2.7-.2.1.3-.4.3-.3.9zm-.2 48.1c0 .1 0 .5.2.4 0-.3-.1-.4-.2-.4zm.7 3.3c-.1-.7.7-.6.7-1.2-.6.2-1.3.3-1.4.9.4-.2.2.4.7.3zm0-52.7c0-.5.4-.5.8-.5 0 .5-.5.8-.8.5zm.8 48.5c-.2 0-.5 0-.5.3.3 0 .4-.1.5-.3zm.5.6c-.3.1-.6.3-.7.6.3 0 .5-.2.7-.6zm3.8-54.1c-.1.6-.6.8-.9 1.2-.4-.2.4-.6-.4-.6-.3.3.4.5.2.9-.9.1-.9 1-1.7 1.1 0-.2.2-.2.3-.5-.7.4-1.3.8-1.9 1.4.5.4.6-.7 1.4-.5-.3.2-.3.5.1.7 0 .3-.5.2-.4.7.8-.3 1.4-1 1.7-1.7-1.1-1.5 2.5-.5 1.5-2.2.5-.3.9-.7 1.3-1.2.4-.1-.1.7.4.6.1-.4.2-.7.8-.6.1-.5-.5-.1-.4-.5.2 0 .2-.1.4-.2.3.2.6.3.9.4 0-.8-.4-.9 0-1.7-.9 0-1.1 1.6-2 1.2.5-.4 1-.8 1.4-1.3-1.7.6-2.6 2.1-3.9 3.2.5.3 1-.8 1.2-.4zm-3 56.2c0-.3-.2-.3-.1-.8.5.1.8.2.9-.5-1.4-.2-1.4 1.1-2.1 1.6.5-.1.6-.4 1.3-.3zm-.1-56.1c-.6-.4-.7.4-1.1 0 .2-.4.6-.6 1.1-.5zm-.3 52.9v-.4h-.3v.4zm.7-53.4c-.4 0-.2-.3-.5-.3.1-.4.8-0 .5.3zm0 1.9v.5c.3 0 .5-.1.5-.5.3.1.8-.3.5-.5 0 .3-.6 0-.5.5zm0 2.1c0-.6.7-.5.7-.9.4.2-.2.9-.7.9zm.7 51.3c.5-.1.1-1.1.9-.8-.4-1-.8.4-1.3.4 0 .3.3.3.4.4zm-.1 2v-.2h-.2v.2zm.4.7c-.2 0-.6 0-.6.1l.4.4c-.1-.2 0-.4.2-.5zm-.3-59.2c0-.5.1-.6.6-.6-.2.3-.1.6-.6.6zm4-2.9c-1.2.6-1.9 1.6-3.3 2.1 1-1.1 2.1-2 3.4-2.8.2.4-.2.2-.1.7zm-2.3 59.7c-.5 0-.8.1-.9.7.4-.1.7-.4.9-.7zm-.5 1.7v-.2h-.2v.2zm.5-3.1c0-.2.1-.2.1-.5-.2 0-.6 0-.6.1.1.1.1.1.1.3zm.1-3.8c0-.2-.1-.2-.5-.2v.2zm.7 2.8c.1-.2.4-.3.4-.8-.7.1-1.1.6-1.5.8.3.3.5-.2 1.1 0zm-.4-51.8c0 .1-.2.1-.2.3-.1 0-.1 0-.1-.1v-.2zm.3 55.7c0-.5-.4-.4-.4-.6.1 0 .3 0 .4-.1-.4 0-.6 0-.7.2.2.1.2.4.7.5zm.1-2.3c-.3 0-.6.2-.7.5.2.3.6-.1.7-.5zm0-54.5c0-.6.2-.8.8-.8-.2.3-.3.6-.8.8zm1.4 51.7c.1-.1.3-.7-.1-.6 1.7-.1 1-2.9 2.5-2.5.2-.7-.5-.4-.6-.8.3-.2.7-.3 1.1-.2.2-.5-.6-.6-.1-.7.3-.1.2.3.8.2-.1-.6-1.1-.4-.8-1.1.2.2.6.6.9.1 0 .2-.1.5.1.6 0-.3.5-.3.5-.7-.6-.1.4-1.1-.5-1.3h.7c.1-.5-.2-.5-.2-.7.6-.2.7-.9 1.3-1.2.2.2.1.5-.1.7 0 0-.1.1-.2.1-.2.1-.2-.1-.3-.1 0 .6-.8 1.3.1 1.4-.1-.6 0-1.1.7-.9-.1-.6.5-.6.2-1.3-.7.1-.7-.5-1.2-.6-.1.4-.6.2-.5.7.2 0 .2.1.2.3-.6.2-1 .8-.9 1.4-.7 0-.8.3-.2.7-.5.1-.8-.5-1.1 0 .4 0-.2 1.1-.7 1.2-.1 1.1-.2 2.5-1.1 3.2.1 0 .3 0 .3.1-.1.6-.5 0-.9.1-.4.6-.8 1.2-1.1 1.9.6 0 .5-.7.9-.7.1.5-.2.5.3.7zm-.3-51.3c-.2-.1-.5 0-.5.2.1.1.3.1.4 0 .1 0 .1-.1.1-.2zm.2 52.9c.1.5.6-.1.5-.5-.2 0-.2.2-.5.2zm.5-2.9v.2h-.3v-.2zm.7-56.2c.1.6-.2.7-.8.7.2-.2.2-.8.8-.7zm-.5 58.5h.2c0-.1 0-.1.1-.1v-.4h-.2c0 .1 0 .2-.1.2zm.7-54.4v.2h-.4v-.2zm.2-4.1c-.6-.2 0-.8.5-.7 0 .4-.5.4-.5.7zm2.3.7c-1.3.2-1.9 1.3-2.6 2.1 1-.1 1.8-1.5 2.6-2.1zm-1.8 54.5c0-.1.1-.1.1-.4h-.5v.4zm.1 2.5c-.1.1 0 .3.1.4s.2.1.3 0c.1-.4-.2-.5-.4-.4zm1.1-2.8c-.6.1-1 .2-.9.9.5.1.5-.6.9-.9zm-.4-56.2v.2h-.4v-.2zm1.1 2.2c0 .8-1.3.6-1.2 1.5.1 0 .3 0 .3.2-.1.1-.1.1-.1.4h-.5v.4c.1 0 .1.1.4.1 0-.1.1-.2.1-.5.4-.1.8-.1.8-.6 0-.1-.4 0-.4-.2 0-.1.1-.2.2-.2.2 0 .1.4.6.2.1-.3-.6-.5-.1-.7.2 0 .1.4.5.2.2-.2.7-.2.9-.5-.6-.1-.6-.6-1.1-.6v-.2h-.2c-.1.4.1.4.4.4 0 .1-.3.1-.6.1zm-.5-2.6v.4c-.2 0-.2 0-.2.1h-.2v-.2c.1 0 .1-.1.1-.2zm-.2 1.2v.3h-.2v-.3zm.7 53.8c0 .5-1.1 1.1-.4 1.4 0-.6 1.1-1.1.4-1.4zm-.3-55.3c0-.2.1-.4.5-.2-.1.1-.3.2-.5.2zm.3 53.4c0-.2-.1-.4-.2-.5-.1.2 0 .4.2.5zm1.4-54.7c-.1.6-.6 1-1.2 1.1 0-.7.8-.7 1.2-1.1zm-.7 58.5h-.4c0 .2-.1.5.1.5 0-.3.4-.2.3-.5zm1-54.3h.2c.1-.2.1-.4-.1-.4.1-.3.5-.3.6-.6.2.1.4.4.8.4 0-.5.8-.9 1.4-1.2-.7-.4-.2-.7 0-1.2-1.5.5-2 2-3.5 2.3 0-.4.2-.4-.1-.5-.1.4-.4-.2-.6 0-.1.6.7.2.7.8.3 0 .3-.2.7-.1-.1.3-.1.3-.1.5zm-.7 51.7c-.4-.2-.7.5-.4.5.2-.3.5-.2.4-.5zm0 1.1c0-.1-.1-.4-.4-.2 0 .2.1.4.2.5.1-.1.1-.2.2-.3zm.6-54.8c0 .5-.5.3-.5.7.5.3 1.1-.5.5-.7zm.3 47.3c.5-.1.6.1.6.5-.3 0-.5-.2-.8-.1 0 .5-.4.8-.6 1.3.5.2.9.4 1.4.6.2-.3-.1-.6.2-.8-.5 0-.5.3-.9.3 0-.1-.1-.1-.1-.2.2-.3.5-.6.8-.7.2 0 .2.3.6.3-.1-.6-.1-.5.2-.8-.2-.1-.5-.2-.4-.6.1-.2 1.1-.9.4-1.2 0 .6-.4-.1-.7.1.2.8-.4.7-.7 1.3zm-.8 5.4c0 .3.1.5.5.5 0-.3-.3-.2-.5-.5zm.6 1.1c-.2 0-.5.1-.6.3.4.2.6.1.6-.3zm0-55.2v.4h-.4v-.4zm-.3 53.9c.4 0 .2.4.6.2 0-.9.8-.9 1.1-1.6-.4-.1-.4.2-.7.1-.1.5-.7.9-1 1.3zm.5-54.3c-.3 0-.2-.3-.3-.3.6-1.1 1.9-1.5 2.8-2.3.5.8-2.6 1.4-2.5 2.6zm.5 2.3c.1-.5.6-.6.7-1.2-.6 0-.6.4-1.1.4-0 .3.2.6.4.8zm-.4 54.3c0-.4.6-.2.7-.1 0 .5-.3.3-.7.1zm.5-9.9c-.2.2-.2.6.2.5 0-.2 0-.4-.2-.5zm.3 9v-.2h-.2v.2zm.5-10c-.2-.1-.4.1-.6.1.1.7.9.6.6-.1zm0 6.2h-.4c-.2.1-.2.6 0 .8.6.1.5-.4.4-.8zm-.3 3.1h.2c0-.1 0-.1.1-.1v-.3h-.2c0 .1 0 .2-.1.2zm1.5-8.7c-.4 0-.4-.2-.6-.2 0 .7-.7.6-.8 1.2.6.1 1.1-.5 1.4-1zm-.6-1.6c-.6 0-.5.6-.7.9.5-.1.6-.4.7-.9zm-.4-42.4c-.2 0-.1-.7.2-.5-.1.3-.2.3-.2.5zm0 46.3c0 .4 0 .7.4.7.1-.1.1-.7-.4-.7zm.2 2.7c-.1 0-.2.2-.1.3 0 .1.2.2.3.2.1-.2.1-.5-.2-.5zm.1-50.6c.7 0 .8-.5 1-.7.6.1.5-.3.9-.3 0 .1.1.1.1.3-.6-.1-.3.5-.8.4-.1.4-.1.7.1.8.5.1 1.4-.5.7-.8v-.4c.5-.1.2.6.7.7.4-.7 1.2-.8 1.5-1.4.2.2.4-.1.8 0-.1-.7.6-.5.6-.9-.8 0-1.1.5-1.4.9-.3-.1-.2-.5-.5-.6-.5.1-1.1.9-1.6.7.2-.6 1.1-.5 1.3-1.2-1 .3-1.8.9-2.5 1.7-.3 0-.7.3-.9.8zm1.1 49.6c-.2-.9.7-1.7 1.2-2.5-.1-.2-.2-.4-.5-.4-.4 1.3-2.1 2.6-1.5 3.7.3-.2.3-.8.8-.8zm-.4-3h-.5c0 .4 0 .6-.1.7.6.1.5-.5.6-.7zm-.1-3.3c-.1-.1-.1-.3-.4-.2 0 .2 0 .3.1.5.1-.2.1-.3.3-.3zm.3 2c-.1-.5.2-.5.2-.7-.4 0-.7.2-.8.6.2 0 .3.1.6.1zm.2-3.1c-.3-.2-.6.5-.2.5 0-.3.3-.2.2-.5zm.2-41.5c-.4-.1-.6 0-.6.2.3-0 .7.1.6-.2zm-.3 47.2c0-.2 0-.5-.2-.5v.4c.1 0 .1.1.2.1zm.1-2.2c-.2.1-.3.4-.2.7.3 0 .4-.7.2-.7zm.5 4.2c-.3 0-.7.1-.7.5.3-.1.7-.2.7-.5zm.1-5.6c-.1-.4-.1-.8-.6-.9.1.4-.2.4-.1.7.2.1.4.2.7.2zm-.4-47.6c-.6-.1-.2-.8.2-.7.2.5-.2.5-.2.7zm.4 44.2c-.5 0-.5.3-.6.7.5 0 .5-.4.6-.7zm0 4.8c.1.5-.5.2-.3.8.2-.1 1-.8.3-.8zm0 6.1v.4h-.3v-.4zm.1-11.6c0 .1-.6.3-.1.6 0-.3.6-.5.1-.6zm0 2.9c0-.2.2-.2.2-.5h-.5v.5zm-.1-43c.4.1.2-.4.5-.5-.5 0-.8.3-.5.5zm.1 49.5c0 .1-.4.6 0 .6.1-.2.3-.7 0-.6zm1.2-1.4c-.4.6-.4-.4-.6-.4-.4.4-.1.5-.6.9.6-.1 1.4 0 1.2-.5zm-.8-4.3v-.2h-.2v.2zm-.1.4c0 .3-.1.6-.1.9.5-0 .7-.9.1-.9zm1.4.1c-.2-.1-.5-.2-.7-.1.4.9-.6 1.4-.7 2.3 1.1-.5.9-1.3 1.4-2.2zm-1.4 6.3h.3c.1-.2.1-.3-.1-.5 0 .1 0 .2-.1.1zm.2-9.3c0 .1-.1.5.1.5.1-.1.3-.7-.1-.5zm.1-45.5c-.5-.5.5-.8.8-.8 0 .4-.6.4-.8.8zm.3 46.9v-.3h-.3v.3zm0-43.6c0-.5.4-.6.7-.6 0 .4-.3.7-.7.6zm.1 41v.5c.4.2.4-.7 0-.5zm.4 2.6h-.2c0 .1-.1.1-.1.2.2.1.4.1.3-.2zm-.2 4h.2s0-.1.2-.1v-.2h-.4c0 .1-.1.1-.1.1zm.8-4.9c-.6-.1-.7.7-.2.7-.1-.2.2-.3.2-.7zm.5.7c-.5.2-.7.7-.7 1.2.5 0 .5-.6.7-1.2zm-.8 3.4c0 .2 0 .6.3.6.3-.2.1-.6-.3-.6zm.6-5.3c-.7-.1-.7.8-.2.9 0-.3.1-.6.2-.9zm1.8-44.7c-.7-.2-1.6.6-2.1 1.3.7-.5 1.5-.8 2.1-1.3zm-2.1 42h.4c.1-.2.1-.4-.2-.5 0 .1 0 .2-.1.1v.4zm.3 4.3c.7-.5.7-1.1 1.1-1.6-.5-.1-.4.5-.8.3.1.8-.3.9-.3 1.3zm1.7-2c-.4 0-.5-.4-.8-.4 0 .2-.2.2-.1.5.2.1.8.3.9-.1zm-.5-46.6v.2h-.2v-.2zm.3 46.1c0-.6.8-1.3.2-1.6-.1.5-.7.2-.7.8.4.1-.3.7.5.8zm.3-42.2c1.4-.8 3.2-1.4 4.3-2.6-.1-.1-.4-.2-.5-.4-.2.2-.5.4-.6.6 0-.1-.1-.1-.1-.2 0-.2.8-.5.4-.7-.6.2-.8 1-1.4.9-.1.9-1.9 1.3-2.1 2.4zm0 36.9v.3c.5.3.5-.5 0-.3zm.5 3.7c.5-2.8 2.3-6.6 2.5-9-.8 1.4-.9 4.5-2.3 5.7.9.8-1.5 2.3-.2 3.3zm2.4-44.2c-1.1.4-2.1.8-2.6 1.7 1-.3 1.9-.9 2.6-1.7zm-1.6 43.9c-.6 0-.5.7-.7 1.1.4-.1.6-.6.7-1.1zm.2 2.5c-.2.4-.2 1.1-.8 1.2.3-.4.4-.8.5-1.3.2 0 .2.1.3.1zm-.3-46.7v.2h-.4v-.2zm.2 36.6c0 .2-.5.7-.1.9 0-.3.7-.8.1-.9zm.5-38c-.1-.5.4-.4.4-.6.4.2-.2.6-.4.6zm.5 44.7c-.3 0-.6.1-.6.4.4-.1.5.2.6-.4zm.4-1.4c-.2 0-.2-.1-.6-.1v.7c.3-0 .6-.3.6-.6zm-.4-6.1c.2.1.4-.6.1-.5 0 .1 0 .1-.1.1zm1.2-1.9c-.3 0-.5.2-.5.6.4 0 .5-.2.5-.6zm-.3-.9c-.1.5.5.5.6.1-.3-.1-.4-.2-.6-.1zm.7-.4c0-.3-.1-.6-.5-.6 0 .2-.2.4-.1.6zm-.4 7.8c-.3 0-.3-.7.2-.6.1.2-0 .4-.2.6zm0-43c0-.4.4-.2.4-.5.3.1 0 .6-.4.5zm.4 2.6v-.3h-.4v.3zm-.4 30.9c.6-.1.5-.4.9-.4-.1-.5.2-.3.1-.8-.6.2-.5.4-1.1.5.2.3.2.2.1.7zm0 8.7c.1-.6.3-1.3.6-1.9.4.3.1 1.6-.6 1.9zm.7-8.3c-.4 0-.6.3-.4.6.4-.1.5-.3.4-.6zm.5-1.8c-.3-.8.6-1.6 0-1.7 0 .6-.1.1-.5.1.4.6-.2 1.3.5 1.6zm-.2-72.4c1.7-1.2 3.4-3.3 6.3-3 2.8 5.1-5.4 8.4-6.3 3zm.1 69.7c0 .3-.1.8.2.8.4-.4-.1-.6-.2-.8zm0 7.7c.2.4 1.1-.7.4-.8 0 .1.1.2.2.4-.3.1-.6.1-.6.4zm.6-10.5c-.1.5-.2.8-.3 1.3.5 0 .7-1.2.3-1.3zm.7-1.9c-.3 0-.5.1-.5.5.3.1.2-.4.5-.5zm.1 8.5c-.4 0-.5.2-.5.6.4.1.5-.2.5-.6zm-.1-10.9c-.2.1-.2.4-.2.6.4 0 .5-.6.2-.6zm3-2.4v-.2c.1 0 .1-.1.1-.1.3-.2.3.5-.1.3zm.6-5.4v.2h-.4v-.2zm1-14.5c-.3-.2-.7 0-.9.3 0 .1-.1.2-.1.2.5 0 .9-.2 1-.5zm-.4 2c6.3-4.3 12.4-8.9 18.4-13.7.1-.1.1-.4-.1-.4-5.9 4.8-12.1 9.2-18.5 13.3.3.1.1.5.2.8zm.3-2.9c-.4-.1-.8.4-.4.5.1-.3.6-.2.4-.5zm.4-1.4c-.1-.2 0-.2.1-.4-.2 0-.2-.1-.3-.1 0 .1-.1.1-.1.2.1-0 .2.1.3.3zm-.3 2.1c1.3-.2 2.4-1 3.2-2 1.7-.7 3.2-1.8 4.5-3.2-1.5 1-3 2-4.5 3.2-1.1.5-2.2 1.2-3.2 2zm3.2-2.8c-.8.5-2.5 1.1-2.6 1.7.9-.6 1.9-.9 2.6-1.7zm1.3-2.2c-.9.9-2.5 1.4-3.3 2.5 1.2-.6 3.2-1.8 3.3-2.5zm.1 1.1h-.5c.1.3-.2.3-.2.6.5 0 .6-.2.7-.6zm.8-.7c-.5 0-.3.4-.6.6.4-0 .8-.2.6-.6zm.2-1c-.4-.1-.6 0-.5.3.5.2.5-.1.5-.3zm1.7-1.1c-.5.4-1.5.7-1.3 1.2.4-.5 1.1-.5 1.3-1.2zm0 1c-.5.1-1.1.1-1.2.7.5-.1 1.1-.2 1.2-.7zm1.1-2.8c-.1.5-.6.6-1.1.8.2-.4.6-1.3 1.1-.8zm-.2 1.8c-.1.5-.7.4-.7.8.5.1 1.3-.6.7-.8zm.1 1.1c-.3-.1-.6 0-.6.3.4.2.7.1.6-.3zm0-1.9c-.2 0-.5 0-.3.4.2 0 .3-.1.4-.2 0-.1 0-.1-.1-.2zm1.4-.2c-.5.2-1 .5-1.3.9.8 0 1.3-.3 1.3-.9zm.9.4c-.6 0-1.3.9-1.7 1.4.5.1 1.2-.8 1.7-1.4zm-.2-2.5c0 .1-.2.2 0 .4.1-.2.3-.3 0-.4zm1.1-.7c-.5 0-.6.1-.6.6.3-.1.6-.1.6-.6zm0 2.7c.2-.1.6-.1.5-.5.7-.5 1.6-.7 1.9-1.5-.6.5-1.6.6-1.9 1.5-.2 0-.6 0-.5.5zm.8-1.6c-.4 0-.6.1-.6.5.4-.1.5-.3.6-.5zm.9-.9h-.2c0 .1-.1.2-.1.4.2-.1.5 0 .3-.4zm.4-1h.3c0-.1 0-.2.1-.2v-.2h-.2c0 .1 0 .1-.1.1v.3zm1.6.5c-.4.2-.7.5-.8.9.5 0 .6-.5.8-.9zm0-1.7c-.3 0-.6 0-.6.2.3.2.4.1.6-.2zm.7-.5c-.4 0-.6 0-.6.4.2-.1.5-.2.6-.4zm-.2 1.1v-.3h-.3v.4zm0 .7c.3 0 .6-.2.7-.6.2 0 .3 0 .3-.2-.2-.1-.3 0-.3.2-.4 0-.5.4-.7.6zm2.1-1.4v-.3h-.3v.3zm.3-.7c-.4.8.7-.9 0-.1zm.7-2.8c-.4 0-.7.1-.7.6.2-.2.8 0 .7-.6zm.1 3.5c-.5-.1-.7.1-.7.6.4-.1.7-.2.7-.6zm-.2-1h.2c0-.1.1-.1.1-.1v-.2h-.2c0 .1-.1.1-.1.1zm1.3.4c0-.3-.1-.5-.5-.5 0 .2-.2.4-.1.6.2.1.2-.1.6-.1zm.4-2.7c-.4 0-.4.2-.5.5.4 0 .4-.2.5-.5z"/><path d="m110 28.2c.2-.1.1-.4.1-.6.2 0 .1.3.2.5.4-.5.2-1.3.4-1.9-.1-.3-.6.2-.6.5-.2-.7.5-1.3.1-2.1.4.1 1.3-.1 1.3.4.4-.6-.5-1.3.2-1.5 0-.2-.1-.2-.1-.5-.5-.1-.1.5-.6.3.1-.7-.1-.8-.1-1.4.6-.1.2.7.5.9 1.1.4 1.5 2.7 1.3 4 0 .1.1.1.1-.1-.5 6.1-4.8 10.8-8.2 15-1.2 2.9-4.7 4.8-8 4.9-3-1.6-5.3-4-5.7-8.2-4 4-6.2 10.5-12.7 11.1-.9-.2-1.4-.9-2.1-1.4.2-.7-.3-1.4-.9-1.6-.7-2-.5-4.3 0-6.4 1.4-6 3.4-13 5.9-17.3 2.6-.2 3 1.9 4.3 2.9.2 1.3-.7 1.4-1.3 1.9-1.3 4.6-2.6 9.4-4 13.9.9.4 1.4-.8 1.7-1.4 2.6-2.6 4.5-5.6 6.9-8.2.7.1 2.5.4 2.3 1.3 4.2-.1 3.7 4.9 4.7 8.5 2.7-.9 3.9-2.7 5.9-4.5.2-.5-.5-.1-.2-.6.5-.6.9-1.2 1.4-1.9.4-.1.2.3.5.3.1-.4.1-.8 0-1.2 3.2-3.7 6.8-10.5 3.9-16.2 1.5.1 3.5 2.3 2.8 4.2.1.7.6 0 .7.6-.1.6-.1-.2-.5 0 .9 1.6-1.3 3.5-.8 4.8-.2.4-.5.1-.7 0 .2.5-.3.5 0 1.1-.2.1-.2.2-.5 0 .2.4-.1 1.3 0 2.1-.2 0-.3-.2-.8-.1.1-.5-.1-.5-.1-.8-.9-.2.1 1.6-.9 1.3 0 .2.4.2.5.3-.2.6-.5.7-.1 1.3-.2.2-.6-.1-.7-.5-.2.1-.1.6-.7.5.2.5.1 1-.2 1.4-.4 0-.6 0-.7-.1-.1.2 0 .6-.1 1.1.4.3.6-.4 1.1-.4-.1.2 0 .6-.1 1.1-.3-.1-.6-.2-.9-.2-.1.6.6.3.7.7 1.5-.9 2-3.4 3.7-4-.1-.8-.5.2-.7-.4 1.2-.3.4-2.2 1.2-2.7 0 .2-.2.4-.2.6.6-.5.2 0 .7.1.2-.2.1-1.3-.2-1.4-.2-.1.1 0 .3 0zm-23.1 9.9c-.4.2-.8.2-1.2 0 0 .2 0 .4.1.6.5-.3 1.2.3 1.1-.6zm1.5-2.1c.4-.1.7-.2.8-.6-.6-.1-.6.4-.8.6-.6 0 0 .6 0 0zm1.6-1.5v-.4h-.2v.4zm12.2 5.2c0 .4.8.9.8.1-.5.1-.5-.2-.8-.1zm.8-1.8c-.2.1-.8-.1-.7.4.3 0 .6-.1.7-.4zm-.6-1.1c0 .4 0 .6.5.6 0-.4-.1-.7-.5-.6zm.6 2.2c0-.2-.1-.4-.5-.2v.2zm1-1.6c-.2 0-.4-.1-.6-.1.2.6-.6.8 0 1.1-.1-.8.6-.6.6-1zm.1-1.3c-.1 0-.1-.2-.2-.2-.1.5 0-.5-.5-.2 0 .4-.2.5-.1.9.4-.3.5-.1.8-.5zm-.3-1.6c0 .4 0 .7.2.8.1-.3.3-.9-.2-.8zm.7-1c0-.1.1-.1.1-.2-.1 0-.1-.1-.2-.1 0 .1-.1.1-.1.2.1-.1.1.1.2.1zm-.1 3h.2c.1-.1.2-.1.1-.2-.1 0-.1-.2-.2-.2 0 .1 0 .1-.1.1zm1.8-.7c-.2.1-.8.7-.5.9.1-.3.5-.5.5-.9.1 0 .2-.1.2-.2.8-.4.7-1.4 1.9-1.1-.5-1.1-1.9.2-1.9 1.1-.1 0-.2.1-.2.2zm1.2-4.6h-.3v-.2c.3-.2.4-.1.3.2zm.5 0h-.4v-.2c.1 0 .2-.1.2-.2.4 0 .4.1.2.4zm0 2.5c0-.2 0-.6-.4-.5v.2c.3.1.3.2.4.3zm.8-.9c-.1.2-.1.4-.1.6.5.1.5-.4.2-.6.5 0-.1-.6 0 0zm.6-2.8c-.1.4 0 .6.2.6.4-.3.1-.5-.2-.6zm.6-2.6v-.3c.1 0 .1 0 .1-.1.3-.2.3.5-.1.4z"/></g></svg>