<?xml version="1.0" encoding="utf-8"?>
<!-- Generator: Adobe Illustrator 15.0.0, SVG Export Plug-In . SVG Version: 6.00 Build 0)  -->
<!DOCTYPE svg PUBLIC "-//W3C//DTD SVG 1.1//EN" "http://www.w3.org/Graphics/SVG/1.1/DTD/svg11.dtd">
<svg version="1.1" id="Layer_1" xmlns="http://www.w3.org/2000/svg" xmlns:xlink="http://www.w3.org/1999/xlink" x="0px" y="0px"
	 width="423.316px" height="327.535px" viewBox="0 0 423.316 327.535" enable-background="new 0 0 423.316 327.535"
	 xml:space="preserve">
<g>
	<path fill="#FEFFE9" d="M71.446,103.803c3.364,0,6.219-1.172,8.566-3.52c2.345-2.345,3.52-5.2,3.52-8.566
		c0-1.681-0.312-3.254-0.93-4.715c-0.621-1.461-1.484-2.743-2.59-3.852c-1.108-1.106-2.391-1.969-3.852-2.59
		c-1.461-0.618-3.034-0.93-4.715-0.93c-1.683,0-3.254,0.312-4.715,0.93c-1.461,0.621-2.746,1.484-3.852,2.59
		c-1.108,1.108-1.972,2.391-2.59,3.852c-0.621,1.461-0.93,3.034-0.93,4.715c0,3.366,1.172,6.222,3.52,8.566
		C65.224,102.63,68.08,103.803,71.446,103.803z M68.258,88.463c0.884-0.93,1.946-1.395,3.188-1.395c1.239,0,2.324,0.465,3.254,1.395
		s1.395,2.015,1.395,3.254c0,1.241-0.465,2.304-1.395,3.188c-0.93,0.886-2.015,1.328-3.254,1.328c-1.241,0-2.304-0.442-3.188-1.328
		c-0.886-0.884-1.328-1.946-1.328-3.188C66.93,90.478,67.372,89.393,68.258,88.463z"/>
	<path fill="#FEFFE9" d="M420.013,153.541c-0.93-1.017-2.147-1.527-3.652-1.527c-0.976,0-1.859,0.245-2.656,0.73
		c-0.797,0.488-1.417,1.218-1.859,2.191c-1.594,3.542-3.785,7.328-6.574,11.355c-2.789,4.03-5.866,8.125-9.23,12.285
		c-3.366,4.163-6.862,8.28-10.492,12.352c-3.632,4.074-7.128,7.923-10.492,11.555c-0.354-2.391-0.797-4.871-1.328-7.438
		s-1.308-5.047-2.324-7.438c-1.019-2.391-2.304-4.559-3.852-6.508c-1.55-1.946-3.52-3.453-5.91-4.516
		c1.946-2.301,3.852-4.692,5.711-7.172c1.859-2.478,3.497-5.067,4.914-7.77c1.415-2.7,2.544-5.489,3.387-8.367
		c0.841-2.876,1.262-5.864,1.262-8.965c0-3.719-0.62-7.016-1.859-9.895c-1.241-2.876-2.922-5.312-5.047-7.305
		s-4.582-3.52-7.371-4.582s-5.69-1.594-8.699-1.594c-7.438,0-14.565,2.968-21.383,8.898c-6.545,5.694-12.345,13.615-17.42,23.711
		c-0.355,0.392-0.662,0.85-0.908,1.391c-1.594,3.542-3.785,7.328-6.574,11.355c-2.789,4.03-5.866,8.125-9.23,12.285
		c-3.366,4.163-6.862,8.28-10.492,12.352c-3.632,4.074-7.128,7.923-10.492,11.555c-0.354-2.391-0.797-4.871-1.328-7.438
		s-1.308-5.047-2.324-7.438c-1.019-2.391-2.304-4.559-3.852-6.508c-1.55-1.946-3.52-3.453-5.91-4.516
		c1.946-2.301,3.852-4.692,5.711-7.172c1.859-2.478,3.497-5.067,4.914-7.77c1.415-2.7,2.544-5.489,3.387-8.367
		c0.841-2.876,1.262-5.864,1.262-8.965c0-3.719-0.62-7.016-1.859-9.895c-1.241-2.876-2.922-5.312-5.047-7.305
		s-4.582-3.52-7.371-4.582s-5.69-1.594-8.699-1.594c-7.438,0-14.565,2.968-21.383,8.898c-6.545,5.694-12.345,13.615-17.419,23.71
		c-0.356,0.391-0.663,0.85-0.909,1.391c-1.594,3.542-3.785,7.328-6.574,11.355c-2.789,4.03-5.867,8.125-9.23,12.285
		c-3.367,4.163-6.863,8.28-10.492,12.352c-3.633,4.074-7.129,7.923-10.492,11.555c-0.355-2.391-0.797-4.871-1.328-7.438
		s-1.309-5.047-2.324-7.438c-1.02-2.391-2.305-4.559-3.852-6.508c-1.551-1.946-3.52-3.453-5.91-4.516
		c1.945-2.301,3.852-4.692,5.711-7.172c1.859-2.478,3.496-5.067,4.914-7.77c1.414-2.7,2.543-5.489,3.387-8.367
		c0.84-2.876,1.262-5.864,1.262-8.965c0-3.719-0.621-7.016-1.859-9.895c-1.242-2.876-2.922-5.312-5.047-7.305
		s-4.582-3.52-7.371-4.582s-5.691-1.594-8.699-1.594c-7.438,0-14.566,2.968-21.383,8.898c-6.531,5.682-12.32,13.582-17.387,23.646
		c-0.315,0.346-0.585,0.742-0.809,1.189c-2.746,5.491-5.535,10.472-8.367,14.941c-2.835,4.472-5.645,8.301-8.434,11.488
		s-5.512,5.668-8.168,7.438c-2.656,1.772-5.226,2.656-7.703,2.656c-1.507,0-3.078-0.266-4.715-0.797
		c-1.64-0.531-3.188-1.594-4.648-3.188s-2.656-3.829-3.586-6.707c-0.93-2.876-1.395-6.661-1.395-11.355
		c0-3.453,0.11-7.238,0.332-11.355c0.22-4.117,0.485-8.012,0.797-11.688c0.309-3.673,0.575-6.84,0.797-9.496
		c0.22-2.656,0.332-4.25,0.332-4.781c0-1.328-0.444-2.5-1.328-3.52c-0.886-1.017-1.992-1.527-3.32-1.527
		c-1.507,0-2.723,0.465-3.652,1.395s-1.484,2.015-1.66,3.254c-0.976,7.616-1.64,15.141-1.992,22.578
		c-0.179,0.179-0.289,0.332-0.332,0.465c-0.046,0.133-0.112,0.289-0.199,0.465c-1.772,3.984-4.14,8.168-7.105,12.551
		c-2.968,4.383-6.554,8.679-10.758,12.883c-4.207,4.207-8.988,8.214-14.344,12.02c-5.358,3.806-11.312,7.172-17.863,10.094
		c0-2.835,0.048-6.176,0.094-10.027C11.95,188.604,12,184.576,12,180.369c0-4.204,0-8.411,0-12.617c0-4.204,0-8.122,0-11.754
		c5-8.766,9.423-17.664,13.719-26.695c4.293-9.031,8.021-18.282,11.208-27.758c3.188-9.473,5.705-19.258,7.564-29.352
		s2.786-20.54,2.786-31.344c0-5.134-0.357-10.048-1.064-14.742c-0.71-4.692-1.86-8.786-3.454-12.285
		c-1.594-3.497-3.676-6.286-6.243-8.367c-2.569-2.079-5.711-3.121-9.43-3.121c-4.694,0-8.566,2.148-11.621,6.441
		c-3.055,4.296-5.469,10.559-7.239,18.793C6.455,35.803,5.172,45.896,4.375,57.85S3.047,83.396,2.782,98.623
		c-0.179,7.969-0.312,16.402-0.398,25.301c-0.089,8.898-0.179,17.953-0.266,27.16c-0.089,9.21-0.156,18.395-0.199,27.559
		c-0.046,9.164,0.051,17.93,0.008,26.297C1.88,213.307,2,221.143,2,228.447s0,13.7,0,19.191c0,11.066-0.031,21.316,0.192,30.746
		c0.22,9.43,0.946,17.618,2.32,24.57c1.372,6.949,3.485,12.395,6.407,16.336c2.922,3.938,7.021,5.91,12.334,5.91
		c3.629,0,6.852-1.042,9.687-3.121c2.833-2.082,5.242-4.938,7.234-8.566c1.992-3.632,3.495-7.902,4.514-12.816
		c1.017-4.914,1.526-10.16,1.526-15.738c0-6.109-0.598-12.508-1.793-19.191c-1.195-6.687-2.968-13.305-5.312-19.855
		c-2.347-6.554-5.292-12.862-8.833-18.926c-3.542-6.066-7.703-11.578-12.484-16.535c10.625-4.96,19.544-10.538,26.762-16.734
		c7.215-6.196,13.125-12.617,17.73-19.258c0.353,3.808,1.129,7.351,2.324,10.625c1.195,3.277,2.789,6.109,4.781,8.5
		s4.403,4.271,7.238,5.645c2.833,1.371,6.063,2.059,9.695,2.059c3.098,0,6.153-0.754,9.164-2.258
		c3.009-1.507,5.887-3.474,8.633-5.91c2.743-2.434,5.333-5.18,7.77-8.234c2.434-3.055,4.669-6.13,6.707-9.23
		c2.036-3.098,3.852-6.109,5.445-9.031c1.295-2.375,2.406-4.44,3.35-6.23c0.339-0.379,0.641-0.823,0.9-1.34
		c4.25-8.766,9.031-15.626,14.344-20.586c5.313-4.958,10.625-7.438,15.938-7.438c3.805,0,6.949,1.195,9.43,3.586
		c2.477,2.391,3.719,5.578,3.719,9.562c0,4.605-1.641,9.542-4.914,14.809c-3.277,5.269-7.836,11.046-13.68,17.332
		c-3.102,0.621-5.734,1.527-7.902,2.723c-2.171,1.195-3.918,2.48-5.247,3.852c-1.328,1.374-2.281,2.68-2.855,3.918
		c-0.577,1.241-0.863,2.258-0.863,3.055c0,2.304,0.685,3.875,2.059,4.715c1.372,0.843,2.81,1.262,4.316,1.262
		c0.442,0,1.129-0.087,2.059-0.266c0.93-0.176,2.059-0.618,3.387-1.328c1.328-0.707,2.809-1.727,4.449-3.055
		c1.637-1.328,3.473-3.188,5.512-5.578c0.707-0.176,1.328-0.266,1.859-0.266c1.68,0,3.121,0.664,4.316,1.992
		s2.234,3.188,3.121,5.578c0.883,2.391,1.613,5.223,2.191,8.5c0.574,3.274,1.039,6.816,1.395,10.625
		c-6.996,7.703-12.883,15.117-17.664,22.246c-4.781,7.126-8.633,13.966-11.555,20.52c-2.922,6.551-5.026,12.837-6.309,18.859
		c-1.285,6.02-1.926,11.73-1.926,17.133c0,3.629,0.465,6.906,1.395,9.828s2.212,5.445,3.852,7.57
		c1.637,2.125,3.563,3.762,5.778,4.914c2.211,1.149,4.559,1.727,7.039,1.727c4.957,0,9.34-1.816,13.148-5.445
		c3.805-3.632,6.992-8.699,9.562-15.207c2.566-6.508,4.516-14.257,5.844-23.242c1.328-8.988,1.992-18.839,1.992-29.551
		c0-10.007-0.266-18.594-0.797-25.766c3.629-3.632,7.613-7.793,11.953-12.484c4.336-4.694,8.586-9.583,12.75-14.676
		c4.16-5.09,8.012-10.181,11.555-15.273c3.22-4.631,5.775-8.984,7.68-13.068c0.252-0.32,0.485-0.672,0.688-1.077
		c4.25-8.766,9.031-15.626,14.344-20.586c5.312-4.958,10.625-7.438,15.938-7.438c3.806,0,6.95,1.195,9.43,3.586
		c2.478,2.391,3.719,5.578,3.719,9.562c0,4.605-1.64,9.542-4.914,14.809c-3.276,5.269-7.836,11.046-13.68,17.332
		c-3.101,0.621-5.733,1.527-7.902,2.723c-2.171,1.195-3.918,2.48-5.246,3.852c-1.328,1.374-2.28,2.68-2.855,3.918
		c-0.577,1.241-0.863,2.258-0.863,3.055c0,2.304,0.685,3.875,2.059,4.715c1.372,0.843,2.81,1.262,4.316,1.262
		c0.442,0,1.129-0.087,2.059-0.266c0.93-0.176,2.059-0.618,3.387-1.328c1.328-0.707,2.81-1.727,4.449-3.055
		c1.638-1.328,3.474-3.188,5.512-5.578c0.708-0.176,1.328-0.266,1.859-0.266c1.681,0,3.121,0.664,4.316,1.992
		s2.235,3.188,3.121,5.578c0.884,2.391,1.614,5.223,2.191,8.5c0.575,3.274,1.04,6.816,1.395,10.625
		c-6.995,7.703-12.883,15.117-17.664,22.246c-4.781,7.126-8.633,13.966-11.555,20.52c-2.922,6.551-5.026,12.837-6.309,18.859
		c-1.284,6.02-1.926,11.73-1.926,17.133c0,3.629,0.465,6.906,1.395,9.828s2.212,5.445,3.852,7.57
		c1.638,2.125,3.563,3.762,5.777,4.914c2.212,1.149,4.56,1.727,7.039,1.727c4.958,0,9.341-1.816,13.148-5.445
		c3.806-3.632,6.993-8.699,9.562-15.207c2.567-6.508,4.516-14.257,5.844-23.242c1.328-8.988,1.992-18.839,1.992-29.551
		c0-10.007-0.266-18.594-0.797-25.766c3.63-3.632,7.614-7.793,11.953-12.484c4.337-4.694,8.587-9.583,12.75-14.676
		c4.161-5.09,8.013-10.181,11.555-15.273c3.221-4.631,5.777-8.985,7.681-13.068c0.251-0.32,0.484-0.672,0.687-1.076
		c4.25-8.766,9.031-15.626,14.344-20.586c5.312-4.958,10.625-7.438,15.938-7.438c3.806,0,6.95,1.195,9.43,3.586
		c2.478,2.391,3.719,5.578,3.719,9.562c0,4.605-1.64,9.542-4.914,14.809c-3.276,5.269-7.836,11.046-13.68,17.332
		c-3.101,0.621-5.733,1.527-7.902,2.723c-2.171,1.195-3.918,2.48-5.246,3.852c-1.328,1.374-2.28,2.68-2.855,3.918
		c-0.577,1.241-0.863,2.258-0.863,3.055c0,2.304,0.685,3.875,2.059,4.715c1.372,0.843,2.81,1.262,4.316,1.262
		c0.442,0,1.129-0.087,2.059-0.266c0.93-0.176,2.059-0.618,3.387-1.328c1.328-0.707,2.81-1.727,4.449-3.055
		c1.638-1.328,3.474-3.188,5.512-5.578c0.708-0.176,1.328-0.266,1.859-0.266c1.681,0,3.121,0.664,4.316,1.992
		s2.235,3.188,3.121,5.578c0.884,2.391,1.614,5.223,2.191,8.5c0.575,3.274,1.04,6.816,1.395,10.625
		c-6.995,7.703-12.883,15.117-17.664,22.246c-4.781,7.126-8.633,13.966-11.555,20.52c-2.922,6.551-5.026,12.837-6.309,18.859
		c-1.284,6.02-1.926,11.73-1.926,17.133c0,3.629,0.465,6.906,1.395,9.828s2.212,5.445,3.852,7.57
		c1.638,2.125,3.563,3.762,5.777,4.914c2.212,1.149,4.56,1.727,7.039,1.727c4.958,0,9.341-1.816,13.148-5.445
		c3.806-3.632,6.993-8.699,9.562-15.207c2.567-6.508,4.516-14.257,5.844-23.242c1.328-8.988,1.992-18.839,1.992-29.551
		c0-10.007-0.266-18.594-0.797-25.766c3.63-3.632,7.614-7.793,11.953-12.484c4.337-4.694,8.587-9.583,12.75-14.676
		c4.161-5.09,8.013-10.181,11.555-15.273c3.54-5.09,6.286-9.849,8.234-14.277c0.266-0.618,0.398-1.282,0.398-1.992
		C421.407,155.689,420.942,154.56,420.013,153.541z M12.278,124.92c0.043-3.009,0.11-5.844,0.199-8.5
		c0.087-2.656,0.153-5.356,0.199-8.102c0.043-2.743,0.11-5.887,0.199-9.43c0-1.681,0.021-4.204,0.066-7.57
		c0.043-3.364,0.133-7.238,0.266-11.621s0.332-9.075,0.598-14.078c0.266-5.001,0.618-10.004,1.062-15.008
		c0.442-5.001,0.996-9.805,1.66-14.41c0.664-4.603,1.481-8.676,2.457-12.219c0.973-3.54,2.125-6.375,3.453-8.5
		s2.876-3.188,4.648-3.188c1.681,0,3.165,0.687,4.449,2.059c1.282,1.374,2.345,3.277,3.188,5.711
		c0.84,2.437,1.461,5.379,1.859,8.832s0.598,7.305,0.598,11.555c0,8.5-0.621,16.957-1.859,25.367
		c-1.241,8.413-2.968,16.647-5.18,24.703c-2.214,8.058-4.848,15.871-7.902,23.441s-6.398,14.765-10.027,21.582
		C12.211,131.474,12.232,127.931,12.278,124.92z M22.305,233.428c3.009,5.399,5.555,11,7.637,16.801
		c2.079,5.798,3.629,11.664,4.648,17.598c1.017,5.931,1.527,11.598,1.527,17c0,2.125-0.179,4.891-0.531,8.301
		c-0.355,3.407-0.996,6.75-1.926,10.027c-0.93,3.274-2.237,6.109-3.918,8.5c-1.683,2.391-3.852,3.586-6.508,3.586
		c-2.922,0-5.159-1.972-6.707-5.91c-1.55-3.941-2.702-9.121-3.453-15.539c-0.753-6.421-1.175-13.659-1.262-21.715
		c-0.089-8.059-0.133-16.203-0.133-24.438c0-3.984,0.021-8.391,0.066-13.215c0.043-4.827,0.066-10.027,0.066-15.605
		C15.797,223.155,19.294,228.025,22.305,233.428z M170.657,267.428c-0.977,7.524-2.348,14.055-4.117,19.59
		c-1.773,5.532-3.918,9.895-6.441,13.082s-5.336,4.781-8.434,4.781c-2.305,0-4.25-1.374-5.844-4.117
		c-1.594-2.746-2.391-6.375-2.391-10.891c0-3.809,0.442-7.992,1.329-12.551c0.883-4.562,2.41-9.496,4.582-14.809
		c2.168-5.312,5.066-10.98,8.699-17c3.629-6.022,8.234-12.441,13.812-19.258c0.086,3.188,0.152,6.219,0.199,9.098
		c0.043,2.876,0.066,5.466,0.066,7.77C172.118,251.799,171.63,259.9,170.657,267.428z M268.274,267.428
		c-0.976,7.524-2.347,14.055-4.117,19.59c-1.772,5.532-3.918,9.895-6.441,13.082s-5.335,4.781-8.434,4.781
		c-2.304,0-4.25-1.374-5.844-4.117c-1.594-2.746-2.391-6.375-2.391-10.891c0-3.809,0.442-7.992,1.328-12.551
		c0.884-4.562,2.411-9.496,4.582-14.809c2.169-5.312,5.067-10.98,8.699-17c3.63-6.022,8.234-12.441,13.812-19.258
		c0.087,3.188,0.153,6.219,0.199,9.098c0.044,2.876,0.066,5.466,0.066,7.77C269.735,251.799,269.248,259.9,268.274,267.428z
		 M365.892,267.428c-0.976,7.524-2.347,14.055-4.117,19.59c-1.772,5.532-3.918,9.895-6.441,13.082s-5.335,4.781-8.434,4.781
		c-2.304,0-4.25-1.374-5.844-4.117c-1.594-2.746-2.391-6.375-2.391-10.891c0-3.809,0.442-7.992,1.328-12.551
		c0.884-4.562,2.411-9.496,4.582-14.809c2.169-5.312,5.067-10.98,8.699-17c3.63-6.022,8.234-12.441,13.812-19.258
		c0.087,3.188,0.153,6.219,0.199,9.098c0.044,2.876,0.066,5.466,0.066,7.77C367.353,251.799,366.865,259.9,365.892,267.428z"/>
</g>
</svg>
