<?xml version="1.0" encoding="utf-8"?>
<!-- Generator: Adobe Illustrator 15.0.0, SVG Export Plug-In . SVG Version: 6.00 Build 0)  -->
<!DOCTYPE svg PUBLIC "-//W3C//DTD SVG 1.1//EN" "http://www.w3.org/Graphics/SVG/1.1/DTD/svg11.dtd">
<svg version="1.1" id="Layer_1" xmlns="http://www.w3.org/2000/svg" xmlns:xlink="http://www.w3.org/1999/xlink" x="0px" y="0px"
	 width="545.208px" height="289.028px" viewBox="0 0 545.208 289.028" enable-background="new 0 0 545.208 289.028"
	 xml:space="preserve">
<g>
	<g>
		<path fill="#FEFFE9" d="M235.998,119.649c-3.956-0.135-7.875-0.255-11.762-0.358c-3.887-0.102-7.738-0.153-11.558-0.153
			c-2.864,0-5.642,0.018-8.335,0.051c-2.694,0.035-5.335,0.086-7.927,0.155c0.067-7.433,0.495-14.183,1.279-20.251
			c0.784-6.068,1.96-11.558,3.528-16.468c8.591,1.024,16.569,1.534,23.933,1.534c6.548,0,12.531-0.596,17.951-1.791
			c5.422-1.19,10.075-2.862,13.961-5.011c3.887-2.148,6.905-4.72,9.051-7.722c2.148-3,3.222-6.341,3.222-10.023
			c0-3.001-0.75-5.505-2.25-7.518c-1.5-2.01-3.409-3.613-5.727-4.808c-2.318-1.191-4.824-2.045-7.516-2.557
			c-2.697-0.512-5.201-0.767-7.52-0.767c-4.977,0-10.039,0.58-15.188,1.739c-5.149,1.161-10.007,2.966-14.574,5.42
			c-4.569,2.454-8.642,5.61-12.222,9.461c-3.581,3.852-6.324,8.438-8.233,13.756c-7.638-1.09-15.444-2.419-23.422-3.989
			c-7.977-1.568-15.921-3.223-23.83-4.96c-7.911-1.739-15.667-3.46-23.268-5.165c-7.605-1.704-14.867-3.238-21.786-4.603
			c-6.921-1.363-13.381-2.471-19.382-3.323c-6-0.853-11.352-1.28-16.056-1.28c-7.978,0-15.394,0.87-22.246,2.609
			c-6.853,1.739-12.802,4.28-17.848,7.619c-5.045,3.342-9.018,7.399-11.915,12.172c-2.899,4.773-4.345,10.228-4.345,16.364
			c0,3.342,0.51,6.444,1.533,9.308c1.023,2.863,2.301,5.437,3.835,7.722c1.535,2.284,3.221,4.313,5.062,6.085
			c1.841,1.773,3.58,3.206,5.217,4.295c0.68,0.478,1.396,0.716,2.146,0.716c0.953,0,1.824-0.358,2.607-1.073
			c0.784-0.716,1.177-1.652,1.177-2.812c0-0.614-0.138-1.229-0.409-1.841c-0.274-0.615-0.717-1.09-1.33-1.433
			c-0.138-0.067-0.854-0.595-2.148-1.585c-1.296-0.988-2.694-2.386-4.195-4.193c-1.499-1.807-2.847-3.989-4.038-6.545
			c-1.194-2.557-1.79-5.438-1.79-8.643c0-4.909,1.244-9.289,3.732-13.142c2.488-3.852,5.897-7.109,10.229-9.769
			c4.329-2.659,9.461-4.688,15.393-6.085c5.931-1.397,12.34-2.097,19.228-2.097c4.909,0,10.363,0.409,16.365,1.229
			c5.998,0.816,12.409,1.909,19.228,3.271c6.817,1.366,13.925,2.882,21.325,4.552c7.397,1.671,14.916,3.358,22.553,5.062
			c7.635,1.705,15.307,3.323,23.012,4.858c7.705,1.534,15.274,2.847,22.706,3.937c-3,10.297-4.568,22.979-4.705,38.047
			c-7.229,0.273-13.909,0.598-20.047,0.971c-6.137,0.377-11.456,0.751-15.954,1.125c-4.502,0.376-8.03,0.7-10.587,0.973
			s-3.871,0.408-3.937,0.408c-0.957,0.137-1.776,0.564-2.456,1.28c-0.683,0.715-1.022,1.551-1.022,2.506
			c0,1.294,0.442,2.268,1.33,2.913c0.885,0.65,1.908,0.973,3.069,0.973c0.613,0,2.249-0.118,4.908-0.357
			c2.659-0.238,6.153-0.546,10.484-0.921c4.329-0.375,9.393-0.75,15.188-1.125c5.794-0.375,12.136-0.698,19.024-0.972
			c0,0.819,0.016,1.654,0.05,2.507c0.034,0.853,0.051,1.687,0.051,2.506c0,19.432-5.471,34.126-16.415,44.08
			c-10.943,9.957-27.121,14.933-48.53,14.933c-7.773,0-14.644-0.681-20.609-2.045c-5.968-1.363-11.217-3.135-15.75-5.319
			c-4.537-2.18-8.388-4.668-11.558-7.466c-3.17-2.796-5.831-5.607-7.978-8.438c-2.147-2.829-3.836-5.574-5.062-8.233
			c-1.229-2.659-2.148-4.943-2.761-6.854c-0.273-0.817-0.733-1.464-1.381-1.942c-0.649-0.477-1.381-0.716-2.2-0.716
			c-1.16,0-2.115,0.393-2.862,1.176c-0.751,0.784-1.125,1.687-1.125,2.711c0,0.204,0.015,0.392,0.051,0.562
			c0.034,0.172,0.085,0.359,0.154,0.562c0.68,2.185,1.738,4.792,3.171,7.825c1.431,3.034,3.339,6.171,5.726,9.41
			c2.386,3.238,5.37,6.442,8.951,9.614c3.579,3.17,7.876,6.018,12.886,8.54c5.012,2.522,10.842,4.551,17.489,6.085
			c6.648,1.534,14.268,2.301,22.86,2.301c11.659,0,21.989-1.467,30.989-4.397c9-2.931,16.586-7.227,22.758-12.888
			c6.17-5.658,10.856-12.63,14.062-20.915c3.204-8.284,4.808-17.745,4.808-28.382c0-0.955-0.017-1.875-0.051-2.761
			c-0.036-0.886-0.052-1.807-0.052-2.762c2.659-0.067,5.353-0.118,8.08-0.153c2.726-0.034,5.523-0.051,8.387-0.051
			c3.749,0,7.551,0.068,11.404,0.204c3.851,0.138,7.722,0.206,11.608,0.206c1.022,0,1.908-0.341,2.66-1.024
			c0.75-0.68,1.124-1.567,1.124-2.659c0-1.023-0.325-1.926-0.972-2.71C238.059,120.145,237.157,119.717,235.998,119.649z
			 M212.525,63.602c3.442-3.069,7.124-5.488,11.046-7.263c3.92-1.771,7.876-3,11.866-3.682c3.988-0.68,7.619-1.021,10.891-1.021
			c1.432,0,3.018,0.102,4.758,0.306c1.737,0.204,3.391,0.598,4.959,1.176c1.568,0.581,2.881,1.365,3.938,2.353
			c1.056,0.99,1.584,2.301,1.584,3.938c0,2.523-0.92,4.842-2.762,6.956c-1.84,2.114-4.381,3.92-7.619,5.419
			c-3.239,1.502-7.09,2.678-11.557,3.529c-4.466,0.853-9.324,1.278-14.575,1.278c-6.41,0-13.398-0.409-20.966-1.227
			C206.268,70.591,209.081,66.669,212.525,63.602z"/>
		<path fill="#FEFFE9" d="M256.058,123.06c2.59,0,4.79-0.902,6.597-2.71c1.805-1.806,2.71-4.005,2.71-6.598
			c0-1.294-0.24-2.506-0.715-3.629c-0.478-1.125-1.144-2.114-1.996-2.967c-0.852-0.85-1.841-1.516-2.966-1.994
			c-1.125-0.477-2.336-0.716-3.63-0.716c-1.296,0-2.504,0.239-3.63,0.716c-1.125,0.478-2.114,1.144-2.966,1.994
			c-0.854,0.853-1.519,1.842-1.996,2.967c-0.478,1.124-0.716,2.335-0.716,3.629c0,2.592,0.902,4.792,2.711,6.598
			C251.267,122.157,253.465,123.06,256.058,123.06z M253.604,111.246c0.679-0.716,1.499-1.074,2.454-1.074
			c0.955,0,1.79,0.357,2.506,1.074c0.716,0.715,1.074,1.553,1.074,2.506c0,0.957-0.357,1.774-1.074,2.456
			c-0.716,0.683-1.551,1.022-2.506,1.022c-0.955,0-1.774-0.339-2.454-1.022c-0.684-0.681-1.023-1.499-1.023-2.456
			C252.581,112.799,252.92,111.961,253.604,111.246z"/>
		<path fill="#FEFFE9" d="M367.848,163.153c-1.226,2.728-2.916,5.284-5.062,8.387c-2.146,3.104-4.52,6.076-7.108,9.279
			c-2.593,3.207-5.285,6.288-8.08,9.423c-2.797,3.139-5.49,6.058-8.079,8.854c-0.274-1.841-0.615-3.772-1.024-5.75
			c-0.408-1.977-1.007-3.897-1.788-5.739c-0.787-1.841-1.775-3.516-2.967-5.017c-1.193-1.499-2.711-2.661-4.551-3.479
			c1.498-1.772,2.966-3.617,4.397-5.527c1.431-1.907,2.692-3.902,3.785-5.983c1.09-2.079,1.957-4.228,2.607-6.443
			c0.646-2.216,0.971-4.517,0.971-6.903c0-2.864-0.478-5.403-1.431-7.619c-0.956-2.216-2.251-4.093-3.888-5.626
			s-3.527-2.71-5.678-3.529c-2.146-0.818-4.38-1.227-6.698-1.227c-5.729,0-11.216,2.285-16.465,6.852
			c-5.033,4.376-9.491,10.46-13.394,18.212c-0.241,0.266-0.448,0.571-0.62,0.915c-2.114,4.229-4.261,8.063-6.443,11.504
			c-2.183,3.445-4.347,6.394-6.494,8.849c-2.149,2.453-4.246,4.363-6.292,5.728c-2.043,1.364-4.023,2.044-5.931,2.044
			c-1.16,0-2.37-0.205-3.631-0.612c-1.262-0.409-2.456-1.229-3.579-2.455c-1.125-1.228-2.046-2.948-2.762-5.165
			c-0.717-2.214-1.074-5.13-1.074-8.745c0-2.659,0.084-5.573,0.256-8.745c0.169-3.17,0.374-6.17,0.612-8.999
			c0.24-2.829,0.444-5.269,0.613-7.313c0.169-2.046,0.255-3.273,0.255-3.683c0-1.022-0.341-1.925-1.021-2.71
			c-0.683-0.782-1.536-1.175-2.557-1.175c-1.161,0-2.097,0.357-2.813,1.074c-0.717,0.715-1.143,1.552-1.279,2.506
			c-1.226,9.75-1.84,19.536-1.84,29.353c0,3.411,0.392,6.597,1.176,9.562c0.784,2.965,1.978,5.54,3.581,7.723
			c1.6,2.182,3.561,3.919,5.879,5.216c2.318,1.295,5.013,1.943,8.081,1.943c2.387,0,4.74-0.58,7.058-1.738
			c2.316-1.16,4.534-2.677,6.648-4.551c2.112-1.876,4.106-3.99,5.983-6.343c1.874-2.352,3.596-4.72,5.164-7.109
			c1.567-2.385,2.967-4.703,4.192-6.954c1.002-1.834,1.858-3.428,2.588-4.809c0.257-0.291,0.49-0.627,0.688-1.021
			c3.271-6.75,6.954-12.032,11.045-15.853c4.09-3.816,8.181-5.727,12.272-5.727c2.932,0,5.352,0.921,7.261,2.761
			c1.909,1.842,2.865,4.295,2.865,7.364c0,3.548-1.262,7.349-3.785,11.404c-2.521,4.058-6.035,8.508-10.534,13.348
			c-2.387,0.478-4.415,1.178-6.086,2.098c-1.672,0.921-3.018,1.909-4.039,2.966c-1.023,1.058-1.757,2.062-2.2,3.017
			c-0.444,0.955-0.665,1.738-0.665,2.353c0,1.772,0.529,2.984,1.585,3.63c1.059,0.648,2.166,0.973,3.326,0.973
			c0.338,0,0.867-0.068,1.583-0.204c0.718-0.137,1.586-0.478,2.61-1.023c1.021-0.545,2.162-1.329,3.427-2.354
			c1.259-1.021,2.672-2.454,4.243-4.295c0.546-0.136,1.023-0.203,1.431-0.203c1.295,0,2.406,0.511,3.325,1.533
			c0.922,1.022,1.72,2.454,2.403,4.295c0.681,1.841,1.244,4.023,1.687,6.547c0.445,2.522,0.802,5.25,1.075,8.182
			c-5.387,5.933-9.921,11.644-13.604,17.13c-3.682,5.49-6.648,10.756-8.899,15.804c-2.247,5.045-3.868,9.885-4.857,14.523
			c-0.988,4.636-1.481,9.034-1.481,13.193c0,2.795,0.356,5.319,1.074,7.568c0.716,2.251,1.702,4.194,2.965,5.831
			c1.261,1.636,2.743,2.896,4.45,3.783c1.701,0.886,3.511,1.331,5.419,1.331c3.818,0,7.194-1.398,10.125-4.194
			c2.932-2.797,5.388-6.698,7.365-11.71s3.477-10.979,4.501-17.899c1.022-6.922,1.533-14.508,1.533-22.757
			c0-7.706-0.203-14.319-0.613-19.842c2.795-2.797,5.862-6.001,9.205-9.615c3.339-3.613,6.613-7.379,9.818-11.301
			c3.204-3.92,6.212-7.811,8.898-11.762l6.863-11.865c3.272-6.748,6.954-11.061,11.046-14.881c4.09-3.816,8.182-5.727,12.272-5.727
			c2.931,0,5.352,0.921,7.262,2.761c1.908,1.842,2.864,4.295,2.864,7.364c0,3.548-1.262,7.349-3.785,11.404
			c-2.522,4.058-6.034,8.508-10.533,13.348c-2.388,0.478-4.415,1.178-6.087,2.098c-1.672,0.921-3.018,1.909-4.039,2.966
			c-1.024,1.058-1.758,2.062-2.2,3.017c-0.445,0.955-0.665,1.738-0.665,2.353c0,1.772,0.529,2.984,1.587,3.63
			c1.057,0.648,2.164,0.973,3.324,0.973c0.34,0,0.867-0.068,1.584-0.204c0.719-0.137,1.585-0.478,2.609-1.023
			c1.022-0.545,2.162-1.329,3.426-2.354c1.261-1.021,2.674-2.454,4.245-4.295c0.545-0.136,1.023-0.203,1.431-0.203
			c1.295,0,2.404,0.511,3.325,1.533s1.72,2.454,2.402,4.295c0.681,1.841,1.245,4.023,1.687,6.547
			c0.445,2.522,0.802,5.25,1.074,8.182c-5.386,5.933-9.919,11.644-13.602,17.13c-3.683,5.49-6.647,10.756-8.899,15.804
			c-2.249,5.045-3.87,9.885-4.857,14.523c-0.989,4.636-1.482,9.034-1.482,13.193c0,2.795,0.357,5.319,1.074,7.568
			c0.717,2.251,1.702,4.194,2.965,5.831c1.262,1.636,2.743,2.896,4.45,3.783c1.702,0.886,3.51,1.331,5.419,1.331
			c3.819,0,7.196-1.398,10.127-4.194c2.93-2.797,5.386-6.698,7.363-11.71c1.977-5.012,3.478-10.979,4.501-17.899
			c1.021-6.922,1.533-14.508,1.533-22.757c0-7.706-0.202-14.319-0.612-19.842c2.795-2.797,5.862-6.001,9.206-9.615
			c3.337-3.613,6.612-7.379,9.815-11.301c3.204-3.92,6.172-7.84,8.899-11.762c2.481-3.568,4.428-6.913,5.895-10.06
			c0.2-0.25,0.391-0.516,0.55-0.834c3.272-6.75,6.954-12.032,11.046-15.853c4.091-3.816,8.184-5.727,12.272-5.727
			c2.932,0,5.354,0.921,7.263,2.761c1.907,1.842,2.862,4.295,2.862,7.364c0,3.548-1.262,7.349-3.782,11.404
			c-2.524,4.058-6.034,8.508-10.535,13.348c-2.388,0.478-4.417,1.178-6.085,2.098c-1.672,0.921-3.017,1.909-4.041,2.966
			c-1.021,1.058-1.755,2.062-2.197,3.017c-0.445,0.955-0.665,1.738-0.665,2.353c0,1.772,0.525,2.984,1.585,3.63
			c1.055,0.648,2.162,0.973,3.323,0.973c0.341,0,0.87-0.068,1.585-0.204c0.716-0.137,1.587-0.478,2.607-1.023
			c1.024-0.545,2.165-1.329,3.427-2.354c1.262-1.021,2.676-2.454,4.246-4.295c0.544-0.136,1.021-0.203,1.432-0.203
			c1.294,0,2.402,0.511,3.323,1.533c0.92,1.022,1.722,2.454,2.405,4.295c0.679,1.841,1.24,4.023,1.687,6.547
			c0.441,2.522,0.802,5.25,1.074,8.182c-5.39,5.933-9.921,11.644-13.603,17.13c-3.683,5.49-6.648,10.756-8.899,15.804
			c-2.251,5.045-3.872,9.885-4.857,14.523c-0.99,4.636-1.485,9.034-1.485,13.193c0,2.795,0.359,5.319,1.074,7.568
			c0.717,2.251,1.705,4.194,2.968,5.831c1.262,1.636,2.743,2.896,4.448,3.783c1.704,0.886,3.512,1.331,5.422,1.331
			c3.818,0,7.191-1.398,10.126-4.194c2.93-2.797,5.383-6.698,7.363-11.71c1.975-5.012,3.478-10.979,4.499-17.899
			c1.023-6.922,1.535-14.508,1.535-22.757c0-7.706-0.205-14.319-0.615-19.842c2.798-2.797,5.864-6.001,9.205-9.615
			c3.341-3.613,6.613-7.379,9.82-11.301c3.204-3.92,6.171-7.84,8.898-11.762c2.727-3.92,4.841-7.585,6.34-10.994
			c0.205-0.478,0.307-0.989,0.307-1.536c0-0.952-0.356-1.823-1.073-2.606c-0.715-0.784-1.653-1.176-2.812-1.176
			c-0.754,0-1.434,0.187-2.046,0.561c-0.614,0.377-1.092,0.938-1.434,1.688c-1.227,2.728-2.913,5.643-5.063,8.745
			c-2.146,3.104-4.517,6.256-7.106,9.46c-2.592,3.207-5.284,6.377-8.082,9.511c-2.793,3.139-5.487,6.104-8.079,8.899
			c-0.272-1.841-0.612-3.75-1.021-5.728c-0.409-1.977-1.007-3.887-1.791-5.728c-0.783-1.842-1.771-3.511-2.966-5.011
			c-1.194-1.499-2.708-2.66-4.55-3.478c1.497-1.772,2.964-3.613,4.398-5.523c1.431-1.908,2.689-3.902,3.782-5.983
			c1.09-2.079,1.961-4.228,2.607-6.443c0.647-2.216,0.975-4.517,0.975-6.903c0-2.864-0.479-5.403-1.435-7.619
			s-2.248-4.093-3.885-5.626c-1.639-1.534-3.53-2.71-5.677-3.529c-2.147-0.818-4.383-1.227-6.698-1.227
			c-5.729,0-11.219,2.285-16.469,6.852c-5.045,4.389-9.516,10.496-13.426,18.283c-0.268,0.298-0.504,0.639-0.688,1.048
			c-1.228,2.728-2.916,5.643-5.064,8.745c-2.146,3.104-4.518,6.256-7.107,9.46c-2.592,3.207-5.285,6.377-8.079,9.511
			c-2.798,3.139-5.49,6.104-8.08,8.899c-0.273-1.841-0.615-3.75-1.025-5.728c-0.406-1.977-1.006-3.887-1.787-5.728
			c-0.786-1.842-1.775-3.511-2.966-5.011c-1.193-1.499-2.711-2.66-4.553-3.478c1.5-1.772,2.967-3.613,4.397-5.523
			c1.432-1.908,2.694-3.902,3.786-5.983c1.09-2.079,1.958-4.228,2.607-6.443c0.647-2.216,0.972-4.517,0.972-6.903
			c0-2.864-0.479-5.403-1.432-7.619c-0.956-2.216-2.251-4.093-3.887-5.626c-1.637-1.534-3.528-2.71-5.678-3.529
			c-2.146-0.818-4.38-1.227-6.699-1.227c-5.728,0-11.216,3.002-16.466,7.569c-4.905,4.268-7.215,7.354-12.452,15.77L367.848,163.153
			z M332.46,249.065c-0.753,5.796-1.807,10.823-3.173,15.088c-1.362,4.26-3.017,7.619-4.958,10.073
			c-1.942,2.454-4.109,3.682-6.494,3.682c-1.775,0-3.272-1.059-4.502-3.17c-1.227-2.115-1.841-4.91-1.841-8.388
			c0-2.933,0.341-6.154,1.024-9.666c0.68-3.512,1.855-7.312,3.527-11.402c1.669-4.091,3.902-8.457,6.699-13.092
			c2.794-4.638,6.342-9.58,10.636-14.83c0.068,2.454,0.119,4.79,0.155,7.006c0.032,2.215,0.051,4.209,0.051,5.983
			C333.585,237.031,333.21,243.269,332.46,249.065z M408.052,249.065c-0.751,5.796-1.806,10.823-3.17,15.088
			c-1.364,4.26-3.019,7.619-4.961,10.073c-1.941,2.454-4.109,3.682-6.494,3.682c-1.775,0-3.272-1.059-4.501-3.17
			c-1.227-2.115-1.841-4.91-1.841-8.388c0-2.933,0.342-6.154,1.023-9.666c0.681-3.512,1.856-7.312,3.528-11.402
			c1.669-4.091,3.902-8.457,6.7-13.092c2.793-4.638,6.342-9.58,10.636-14.83c0.068,2.454,0.118,4.79,0.154,7.006
			c0.033,2.215,0.05,4.209,0.05,5.983C409.177,237.031,408.804,243.269,408.052,249.065z M483.228,249.065
			c-0.751,5.796-1.809,10.823-3.171,15.088c-1.365,4.26-3.018,7.619-4.961,10.073c-1.942,2.454-4.107,3.682-6.495,3.682
			c-1.773,0-3.272-1.059-4.499-3.17c-1.229-2.115-1.841-4.91-1.841-8.388c0-2.933,0.338-6.154,1.021-9.666
			c0.681-3.512,1.857-7.312,3.528-11.402c1.672-4.091,3.904-8.457,6.701-13.092c2.794-4.638,6.34-9.58,10.637-14.83
			c0.065,2.454,0.119,4.79,0.151,7.006c0.035,2.215,0.054,4.209,0.054,5.983C484.354,237.031,483.976,243.269,483.228,249.065z"/>
	</g>
	<g>
		<g>
			<path fill="#FFFFFF" d="M335.761,84.7c-0.266-0.305-0.233-0.769,0.073-1.032l0,0c0.306-0.265,0.771-0.233,1.034,0.073
				l10.635,12.296c0.265,0.306,0.231,0.771-0.075,1.035l0,0c-0.307,0.265-0.771,0.232-1.035-0.076L335.761,84.7z"/>
			<path fill="#FEFFE9" d="M346.948,99.348c-0.828,0-1.61-0.36-2.148-0.988l-10.624-12.288c-0.493-0.562-0.738-1.295-0.685-2.054
				c0.054-0.758,0.401-1.448,0.979-1.942c0.507-0.439,1.165-0.685,1.847-0.685c0.822,0,1.602,0.356,2.14,0.978l10.635,12.296
				c0.495,0.574,0.737,1.305,0.682,2.061c-0.057,0.755-0.402,1.442-0.976,1.936C348.286,99.103,347.628,99.348,346.948,99.348z"/>
		</g>
		<g>
			<path fill="#FFFFFF" d="M312.017,57.995c-0.264-0.308-0.233-0.771,0.076-1.035l0,0c0.305-0.264,0.77-0.23,1.032,0.076
				l10.634,12.294c0.265,0.31,0.232,0.771-0.075,1.035l0,0c-0.305,0.268-0.771,0.233-1.033-0.076L312.017,57.995z"/>
			<path fill="#FEFFE9" d="M323.206,72.642c-0.831,0-1.616-0.362-2.153-0.994l-10.621-12.281c-0.499-0.581-0.74-1.315-0.682-2.072
				c0.058-0.754,0.406-1.44,0.981-1.931c0.502-0.435,1.16-0.68,1.84-0.68c0.826,0,1.608,0.358,2.146,0.984l10.63,12.289
				c1.022,1.192,0.888,2.983-0.295,3.999C324.552,72.394,323.891,72.642,323.206,72.642z"/>
		</g>
		<g>
			<path fill="#FFFFFF" d="M309.704,94.682c-0.266-0.306-0.23-0.768,0.075-1.033l12.295-10.632c0.306-0.266,0.771-0.231,1.033,0.074
				l0,0c0.267,0.306,0.233,0.77-0.07,1.034l-12.298,10.635C310.431,95.023,309.969,94.99,309.704,94.682L309.704,94.682z"/>
			<path fill="#FEFFE9" d="M310.26,97.035c-0.825,0-1.608-0.359-2.146-0.985c-1.016-1.17-0.889-2.96,0.287-3.984l12.301-10.636
				c0.51-0.444,1.17-0.69,1.852-0.69c0.826,0,1.607,0.358,2.145,0.984c0.488,0.561,0.733,1.291,0.681,2.046
				c-0.053,0.755-0.396,1.443-0.968,1.939l-12.3,10.637C311.59,96.792,310.935,97.035,310.26,97.035z"/>
		</g>
		<g>
			<path fill="#FFFFFF" d="M336.412,70.94c-0.266-0.306-0.233-0.769,0.074-1.033l12.298-10.632c0.303-0.267,0.768-0.233,1.032,0.074
				l0,0c0.263,0.306,0.23,0.769-0.074,1.033l-12.298,10.634C337.136,71.28,336.675,71.246,336.412,70.94L336.412,70.94z"/>
			<path fill="#FEFFE9" d="M336.965,73.292c-0.825,0-1.606-0.358-2.145-0.984c-0.489-0.564-0.734-1.296-0.679-2.053
				c0.055-0.756,0.4-1.444,0.976-1.939l12.294-10.628c0.501-0.441,1.163-0.691,1.851-0.691c0.824,0,1.606,0.359,2.145,0.985
				c1.016,1.179,0.885,2.969-0.293,3.987l-12.298,10.634C338.296,73.049,337.642,73.292,336.965,73.292z"/>
		</g>
	</g>
	<g>
		<g>
			<path fill="#FFFFFF" d="M262.095,241.802c0.174-0.272,0.536-0.35,0.806-0.174l0,0c0.271,0.174,0.349,0.536,0.175,0.807
				l-7.035,10.872c-0.175,0.27-0.538,0.349-0.809,0.172l0,0c-0.271-0.175-0.349-0.537-0.172-0.807L262.095,241.802z"/>
			<path fill="#FEFFE9" d="M253.385,253.62c-0.185-0.634-0.083-1.312,0.278-1.863l7.03-10.862c0.32-0.502,0.826-0.853,1.418-0.98
				s1.197-0.016,1.704,0.315c0.448,0.29,0.783,0.738,0.935,1.26c0.183,0.629,0.083,1.305-0.271,1.854l-7.034,10.872
				c-0.329,0.507-0.834,0.854-1.425,0.98c-0.589,0.125-1.192,0.014-1.697-0.314C253.87,254.588,253.536,254.139,253.385,253.62z"/>
		</g>
		<g>
			<path fill="#FFFFFF" d="M277.229,217.695c0.177-0.271,0.537-0.35,0.808-0.172l0,0c0.271,0.174,0.348,0.537,0.173,0.806
				l-7.034,10.871c-0.177,0.271-0.537,0.35-0.808,0.173l0,0c-0.272-0.173-0.351-0.538-0.172-0.808L277.229,217.695z"/>
			<path fill="#FEFFE9" d="M268.519,229.513c-0.185-0.635-0.083-1.315,0.28-1.867l7.026-10.858c0.333-0.512,0.841-0.859,1.434-0.983
				c0.59-0.123,1.191-0.009,1.695,0.321c0.443,0.287,0.777,0.735,0.929,1.256c0.184,0.631,0.084,1.31-0.273,1.859l-7.031,10.866
				c-0.685,1.048-2.084,1.344-3.124,0.665C269.009,230.489,268.672,230.039,268.519,229.513z"/>
		</g>
		<g>
			<path fill="#FFFFFF" d="M248.657,224.097c0.175-0.271,0.536-0.347,0.807-0.173l10.87,7.035c0.272,0.175,0.349,0.538,0.174,0.807
				l0,0c-0.175,0.272-0.537,0.35-0.807,0.176l-10.873-7.036C248.558,224.73,248.479,224.37,248.657,224.097L248.657,224.097z"/>
			<path fill="#FEFFE9" d="M246.981,225.046c-0.184-0.631-0.083-1.309,0.275-1.86c0.669-1.036,2.066-1.339,3.111-0.667l10.875,7.038
				c0.453,0.291,0.788,0.74,0.94,1.262c0.184,0.631,0.083,1.31-0.274,1.859c-0.32,0.498-0.824,0.848-1.414,0.976
				c-0.589,0.128-1.193,0.019-1.699-0.308l-10.874-7.037C247.463,226.011,247.132,225.564,246.981,225.046z"/>
		</g>
		<g>
			<path fill="#FFFFFF" d="M272.762,239.235c0.175-0.271,0.536-0.35,0.808-0.174l10.869,7.036c0.272,0.172,0.35,0.535,0.174,0.807
				l0,0c-0.176,0.269-0.537,0.348-0.807,0.172l-10.872-7.034C272.664,239.864,272.586,239.504,272.762,239.235L272.762,239.235z"/>
			<path fill="#FEFFE9" d="M271.087,240.181c-0.184-0.631-0.084-1.308,0.275-1.858c0.321-0.501,0.827-0.851,1.418-0.977
				c0.59-0.127,1.194-0.016,1.699,0.313l10.867,7.035c0.449,0.284,0.788,0.735,0.941,1.261c0.184,0.631,0.083,1.309-0.276,1.859
				c-0.676,1.04-2.072,1.338-3.114,0.664l-10.871-7.035C271.57,241.146,271.238,240.699,271.087,240.181z"/>
		</g>
	</g>
	<g>
		<g>
			<path fill="#FFFFFF" d="M18.797,162.017c-0.038-0.209,0.102-0.409,0.312-0.445l0,0c0.209-0.038,0.41,0.103,0.446,0.312l1.48,8.42
				c0.037,0.209-0.104,0.411-0.313,0.447l0,0c-0.209,0.036-0.41-0.104-0.446-0.313L18.797,162.017z"/>
			<path fill="#FEFFE9" d="M19.892,171.648c-0.373-0.224-0.63-0.597-0.702-1.026l-1.479-8.413c-0.07-0.387,0.017-0.784,0.246-1.112
				c0.229-0.327,0.572-0.545,0.966-0.612c0.347-0.062,0.711,0.006,1.019,0.189c0.371,0.222,0.626,0.594,0.702,1.019l1.48,8.421
				c0.068,0.392-0.02,0.788-0.249,1.114c-0.229,0.325-0.571,0.542-0.962,0.61C20.562,171.899,20.199,171.832,19.892,171.648z"/>
		</g>
		<g>
			<path fill="#FFFFFF" d="M15.29,143.556c-0.036-0.21,0.103-0.411,0.313-0.446l0,0c0.209-0.038,0.41,0.104,0.446,0.312l1.48,8.418
				c0.037,0.212-0.103,0.411-0.312,0.447l0,0c-0.21,0.038-0.411-0.104-0.446-0.313L15.29,143.556z"/>
			<path fill="#FEFFE9" d="M16.385,153.186c-0.375-0.224-0.631-0.599-0.703-1.029l-1.479-8.41c-0.068-0.397,0.021-0.794,0.252-1.12
				c0.229-0.325,0.572-0.54,0.964-0.606c0.343-0.061,0.707,0.007,1.014,0.19c0.373,0.223,0.629,0.596,0.703,1.023l1.48,8.415
				c0.14,0.814-0.405,1.587-1.213,1.726C17.061,153.438,16.695,153.372,16.385,153.186z"/>
		</g>
		<g>
			<path fill="#FFFFFF" d="M4.342,159.489c-0.037-0.21,0.104-0.409,0.313-0.446l8.419-1.479c0.21-0.038,0.411,0.104,0.447,0.312l0,0
				c0.038,0.21-0.103,0.41-0.311,0.447l-8.421,1.48C4.578,159.838,4.379,159.699,4.342,159.489L4.342,159.489z"/>
			<path fill="#FEFFE9" d="M3.958,160.701c-0.372-0.223-0.628-0.596-0.703-1.024c-0.142-0.802,0.398-1.575,1.206-1.721l8.423-1.479
				c0.35-0.062,0.714,0.004,1.022,0.188c0.373,0.223,0.629,0.596,0.703,1.022c0.069,0.385-0.018,0.781-0.246,1.107
				c-0.228,0.327-0.569,0.545-0.96,0.614l-8.422,1.48C4.624,160.95,4.263,160.883,3.958,160.701z"/>
		</g>
		<g>
			<path fill="#FFFFFF" d="M22.805,155.983c-0.037-0.21,0.103-0.409,0.312-0.446l8.42-1.479c0.209-0.039,0.41,0.102,0.446,0.312l0,0
				c0.036,0.209-0.104,0.409-0.312,0.446l-8.421,1.479C23.04,156.333,22.841,156.193,22.805,155.983L22.805,155.983z"/>
			<path fill="#FEFFE9" d="M22.42,157.194c-0.372-0.223-0.628-0.596-0.702-1.023c-0.069-0.387,0.018-0.782,0.248-1.109
				c0.229-0.326,0.571-0.543,0.963-0.611l8.418-1.479c0.345-0.063,0.711,0.002,1.021,0.188c0.373,0.223,0.628,0.596,0.702,1.024
				c0.14,0.806-0.402,1.578-1.209,1.72l-8.42,1.479C23.087,157.444,22.726,157.376,22.42,157.194z"/>
		</g>
	</g>
	<g>
		<g>
			<path fill="#FFFFFF" d="M132.096,237.456c0.162-0.228,0.479-0.279,0.706-0.113l0,0c0.227,0.161,0.279,0.479,0.115,0.707
				l-6.57,9.115c-0.163,0.227-0.481,0.279-0.708,0.115l0,0c-0.227-0.164-0.279-0.481-0.115-0.708L132.096,237.456z"/>
			<path fill="#FEFFE9" d="M124.031,247.319c-0.132-0.555-0.016-1.14,0.322-1.602l6.567-9.108c0.299-0.422,0.752-0.704,1.271-0.788
				c0.519-0.086,1.039,0.039,1.463,0.348c0.376,0.27,0.647,0.674,0.756,1.132c0.131,0.554,0.016,1.135-0.316,1.596l-6.571,9.116
				c-0.306,0.425-0.76,0.705-1.277,0.788c-0.516,0.083-1.034-0.04-1.458-0.346C124.409,248.182,124.14,247.777,124.031,247.319z"/>
		</g>
		<g>
			<path fill="#FFFFFF" d="M146.263,217.221c0.164-0.227,0.481-0.281,0.708-0.115l0,0c0.228,0.163,0.279,0.481,0.115,0.706
				l-6.571,9.117c-0.165,0.227-0.481,0.279-0.707,0.115l0,0c-0.229-0.163-0.281-0.482-0.115-0.708L146.263,217.221z"/>
			<path fill="#FEFFE9" d="M138.199,227.085c-0.132-0.559-0.014-1.144,0.324-1.607l6.564-9.105c0.312-0.429,0.766-0.708,1.286-0.79
				c0.516-0.081,1.032,0.044,1.455,0.353c0.372,0.269,0.642,0.671,0.75,1.129c0.132,0.557,0.017,1.139-0.319,1.6l-6.566,9.113
				c-0.639,0.878-1.866,1.073-2.737,0.44C138.582,227.952,138.309,227.546,138.199,227.085z"/>
		</g>
		<g>
			<path fill="#FFFFFF" d="M121.218,221.525c0.164-0.227,0.481-0.277,0.708-0.115l9.115,6.572c0.228,0.163,0.279,0.481,0.115,0.707
				l0,0c-0.163,0.228-0.479,0.279-0.706,0.117l-9.118-6.572C121.105,222.069,121.055,221.752,121.218,221.525L121.218,221.525z"/>
			<path fill="#FEFFE9" d="M119.725,222.276c-0.132-0.556-0.016-1.139,0.32-1.603c0.625-0.869,1.849-1.069,2.726-0.441l9.119,6.573
				c0.379,0.272,0.651,0.676,0.76,1.136c0.132,0.555,0.016,1.138-0.318,1.599c-0.299,0.418-0.752,0.7-1.268,0.785
				s-1.034-0.037-1.459-0.342l-9.119-6.572C120.101,223.131,119.833,222.73,119.725,222.276z"/>
		</g>
		<g>
			<path fill="#FFFFFF" d="M141.454,235.696c0.164-0.228,0.479-0.279,0.707-0.115l9.116,6.573c0.229,0.16,0.279,0.478,0.114,0.706
				l0,0c-0.164,0.225-0.48,0.278-0.707,0.115l-9.116-6.572C141.34,236.238,141.29,235.922,141.454,235.696L141.454,235.696z"/>
			<path fill="#FEFFE9" d="M139.96,236.444c-0.131-0.556-0.015-1.138,0.319-1.6c0.301-0.419,0.754-0.701,1.271-0.785
				c0.517-0.083,1.036,0.04,1.46,0.348l9.113,6.569c0.375,0.268,0.65,0.673,0.759,1.135c0.132,0.555,0.016,1.139-0.321,1.601
				c-0.629,0.87-1.854,1.068-2.727,0.438l-9.116-6.571C140.336,237.301,140.069,236.899,139.96,236.444z"/>
		</g>
	</g>
	<g>
		<g>
			<path fill="#FFFFFF" d="M435.127,65.253c0.201-0.03,0.389,0.11,0.416,0.312l0,0c0.029,0.201-0.111,0.388-0.313,0.417
				l-8.094,1.144c-0.201,0.029-0.389-0.112-0.417-0.313l0,0c-0.028-0.202,0.111-0.389,0.313-0.417L435.127,65.253z"/>
			<path fill="#FEFFE9" d="M425.889,65.989c0.224-0.35,0.59-0.583,1.002-0.638l8.089-1.142c0.372-0.056,0.748,0.04,1.054,0.27
				c0.308,0.23,0.503,0.565,0.556,0.943c0.048,0.333-0.028,0.68-0.214,0.967c-0.225,0.348-0.588,0.58-0.997,0.638l-8.094,1.144
				c-0.378,0.053-0.754-0.043-1.058-0.273c-0.304-0.229-0.5-0.563-0.553-0.939C425.625,66.622,425.703,66.277,425.889,65.989z"/>
		</g>
		<g>
			<path fill="#FFFFFF" d="M452.885,62.495c0.201-0.028,0.39,0.111,0.416,0.314l0,0c0.029,0.201-0.111,0.388-0.312,0.416
				l-8.095,1.144c-0.202,0.028-0.389-0.112-0.416-0.313l0,0c-0.03-0.203,0.111-0.39,0.312-0.417L452.885,62.495z"/>
			<path fill="#FEFFE9" d="M443.645,63.232c0.227-0.351,0.593-0.583,1.007-0.639l8.086-1.142c0.381-0.053,0.757,0.045,1.062,0.276
				c0.301,0.23,0.496,0.564,0.547,0.941c0.047,0.33-0.028,0.674-0.214,0.962c-0.226,0.35-0.589,0.582-1,0.639l-8.091,1.145
				c-0.782,0.106-1.504-0.438-1.61-1.215C443.383,63.87,443.458,63.521,443.645,63.232z"/>
		</g>
		<g>
			<path fill="#FFFFFF" d="M438.009,51.519c0.202-0.028,0.388,0.113,0.417,0.313l1.143,8.094c0.029,0.202-0.112,0.389-0.313,0.417
				l0,0c-0.201,0.029-0.389-0.111-0.417-0.312l-1.144-8.096C437.667,51.733,437.807,51.547,438.009,51.519L438.009,51.519z"/>
			<path fill="#FEFFE9" d="M436.863,51.113c0.226-0.349,0.589-0.582,1.002-0.639c0.771-0.11,1.493,0.431,1.605,1.208l1.144,8.098
				c0.048,0.336-0.027,0.682-0.214,0.971c-0.224,0.349-0.589,0.582-0.999,0.639c-0.37,0.053-0.746-0.042-1.051-0.271
				s-0.502-0.562-0.556-0.938l-1.145-8.096C436.604,51.741,436.679,51.398,436.863,51.113z"/>
		</g>
		<g>
			<path fill="#FFFFFF" d="M440.766,69.277c0.201-0.028,0.388,0.111,0.416,0.313l1.142,8.095c0.031,0.201-0.109,0.388-0.312,0.416
				l0,0c-0.201,0.028-0.389-0.112-0.416-0.312l-1.143-8.096C440.424,69.491,440.564,69.306,440.766,69.277L440.766,69.277z"/>
			<path fill="#FEFFE9" d="M439.621,68.871c0.225-0.349,0.59-0.581,1-0.638c0.373-0.053,0.748,0.042,1.054,0.272
				c0.304,0.229,0.501,0.564,0.553,0.941l1.143,8.093c0.05,0.332-0.025,0.68-0.212,0.97c-0.226,0.349-0.59,0.582-1.002,0.639
				c-0.774,0.107-1.496-0.436-1.604-1.211l-1.144-8.095C439.36,69.5,439.437,69.157,439.621,68.871z"/>
		</g>
	</g>
	<g>
		<g>
			<path fill="#FFFFFF" d="M527.344,224.543c0.12,0.164,0.082,0.396-0.084,0.514l0,0c-0.164,0.119-0.396,0.08-0.515-0.085
				l-4.761-6.646c-0.118-0.165-0.081-0.396,0.085-0.515l0,0c0.166-0.118,0.396-0.081,0.515,0.085L527.344,224.543z"/>
			<path fill="#FEFFE9" d="M522.416,216.695c0.413,0.038,0.79,0.253,1.029,0.593l4.758,6.642c0.221,0.305,0.311,0.683,0.248,1.06
				s-0.269,0.707-0.579,0.928c-0.273,0.196-0.615,0.29-0.956,0.259c-0.412-0.038-0.786-0.253-1.027-0.588l-4.761-6.646
				c-0.222-0.31-0.31-0.687-0.247-1.063c0.062-0.375,0.268-0.703,0.577-0.925C521.733,216.754,522.075,216.663,522.416,216.695z"/>
		</g>
		<g>
			<path fill="#FFFFFF" d="M538.009,239.007c0.118,0.165,0.082,0.396-0.085,0.514l0,0c-0.164,0.119-0.396,0.081-0.514-0.085
				l-4.761-6.646c-0.118-0.166-0.081-0.396,0.084-0.514l0,0c0.166-0.12,0.398-0.082,0.516,0.085L538.009,239.007z"/>
			<path fill="#FEFFE9" d="M533.079,231.158c0.417,0.038,0.792,0.255,1.034,0.597l4.755,6.638c0.223,0.314,0.31,0.693,0.246,1.07
				c-0.063,0.374-0.27,0.701-0.581,0.921c-0.271,0.194-0.611,0.287-0.952,0.256c-0.413-0.038-0.789-0.253-1.028-0.592l-4.76-6.641
				c-0.457-0.645-0.308-1.536,0.331-1.99C532.393,231.22,532.737,231.126,533.079,231.158z"/>
		</g>
		<g>
			<path fill="#FFFFFF" d="M540.853,220.74c0.118,0.166,0.08,0.396-0.085,0.515l-6.646,4.76c-0.166,0.119-0.397,0.081-0.516-0.085
				l0,0c-0.118-0.165-0.081-0.396,0.084-0.514l6.646-4.762C540.503,220.536,540.734,220.575,540.853,220.74L540.853,220.74z"/>
			<path fill="#FEFFE9" d="M540.682,219.536c0.413,0.038,0.788,0.254,1.03,0.593c0.454,0.633,0.309,1.522-0.328,1.981l-6.647,4.762
				c-0.276,0.199-0.618,0.292-0.96,0.261c-0.413-0.037-0.788-0.253-1.028-0.59c-0.219-0.304-0.309-0.681-0.247-1.057
				s0.266-0.705,0.574-0.927l6.647-4.763C540.004,219.597,540.343,219.505,540.682,219.536z"/>
		</g>
		<g>
			<path fill="#FFFFFF" d="M526.387,231.404c0.119,0.166,0.082,0.396-0.084,0.514l-6.647,4.76c-0.164,0.121-0.395,0.082-0.513-0.084
				l0,0c-0.118-0.166-0.081-0.396,0.084-0.515l6.647-4.761C526.041,231.201,526.269,231.239,526.387,231.404L526.387,231.404z"/>
			<path fill="#FEFFE9" d="M526.218,230.201c0.413,0.038,0.788,0.254,1.028,0.592c0.219,0.304,0.309,0.683,0.246,1.059
				c-0.062,0.376-0.268,0.705-0.578,0.927l-6.644,4.758c-0.271,0.197-0.615,0.293-0.959,0.262c-0.413-0.038-0.788-0.254-1.029-0.593
				c-0.454-0.636-0.306-1.526,0.331-1.982l6.646-4.761C525.54,230.261,525.879,230.17,526.218,230.201z"/>
		</g>
	</g>
	<g>
		<g>
			<path fill="#FFFFFF" d="M34.876,240.578c-0.045,0.156-0.209,0.246-0.366,0.198l0,0c-0.156-0.046-0.245-0.209-0.199-0.366
				l1.86-6.272c0.046-0.156,0.21-0.246,0.366-0.199l0,0c0.157,0.046,0.247,0.21,0.2,0.367L34.876,240.578z"/>
			<path fill="#FEFFE9" d="M37.414,233.606c0.179,0.28,0.229,0.625,0.131,0.942l-1.859,6.27c-0.083,0.29-0.278,0.531-0.547,0.678
				s-0.579,0.177-0.871,0.089c-0.259-0.075-0.485-0.245-0.633-0.477c-0.178-0.279-0.226-0.621-0.132-0.937l1.86-6.274
				c0.086-0.293,0.281-0.533,0.55-0.678c0.268-0.146,0.577-0.178,0.869-0.092C37.04,233.205,37.266,233.375,37.414,233.606z"/>
		</g>
		<g>
			<path fill="#FFFFFF" d="M30.978,254.423c-0.046,0.154-0.21,0.246-0.367,0.198l0,0c-0.156-0.045-0.246-0.21-0.199-0.366
				l1.86-6.273c0.047-0.156,0.21-0.246,0.366-0.199l0,0c0.158,0.046,0.248,0.211,0.199,0.367L30.978,254.423z"/>
			<path fill="#FEFFE9" d="M33.514,247.451c0.181,0.281,0.229,0.626,0.131,0.946l-1.858,6.266c-0.089,0.296-0.285,0.537-0.555,0.682
				c-0.268,0.144-0.576,0.174-0.868,0.086c-0.255-0.076-0.481-0.245-0.629-0.476c-0.179-0.281-0.228-0.623-0.131-0.94l1.857-6.271
				c0.183-0.605,0.819-0.948,1.42-0.768C33.138,247.048,33.366,247.219,33.514,247.451z"/>
		</g>
		<g>
			<path fill="#FFFFFF" d="M43.917,247.244c-0.046,0.156-0.211,0.245-0.367,0.199l-6.273-1.859c-0.157-0.047-0.246-0.212-0.2-0.367
				l0,0c0.046-0.156,0.21-0.247,0.367-0.199l6.274,1.858C43.875,246.922,43.962,247.087,43.917,247.244L43.917,247.244z"/>
			<path fill="#FEFFE9" d="M44.594,246.544c0.179,0.279,0.227,0.622,0.131,0.942c-0.177,0.597-0.811,0.942-1.413,0.767l-6.275-1.86
				c-0.261-0.077-0.487-0.248-0.636-0.479c-0.179-0.279-0.227-0.621-0.132-0.939c0.084-0.287,0.279-0.529,0.546-0.675
				c0.267-0.146,0.575-0.179,0.867-0.093l6.275,1.86C44.222,246.147,44.446,246.315,44.594,246.544z"/>
		</g>
		<g>
			<path fill="#FFFFFF" d="M30.071,243.344c-0.046,0.156-0.21,0.245-0.367,0.199l-6.273-1.861c-0.156-0.045-0.246-0.21-0.199-0.366
				l0,0c0.047-0.155,0.211-0.246,0.367-0.2l6.273,1.86C30.029,243.024,30.118,243.188,30.071,243.344L30.071,243.344z"/>
			<path fill="#FEFFE9" d="M30.748,242.645c0.179,0.281,0.227,0.623,0.132,0.941c-0.085,0.287-0.28,0.53-0.548,0.676
				c-0.268,0.146-0.577,0.177-0.87,0.09l-6.271-1.86c-0.258-0.074-0.486-0.245-0.635-0.478c-0.18-0.279-0.228-0.623-0.132-0.941
				c0.179-0.6,0.814-0.943,1.415-0.766l6.274,1.86C30.376,242.247,30.601,242.417,30.748,242.645z"/>
		</g>
	</g>
	<g>
		<g>
			<path fill="#FFFFFF" d="M89.6,103.579c-0.039,0.136-0.182,0.213-0.316,0.172l0,0c-0.135-0.04-0.212-0.181-0.173-0.317
				l1.609-5.427c0.039-0.135,0.182-0.212,0.317-0.172l0,0c0.135,0.041,0.213,0.182,0.173,0.318L89.6,103.579z"/>
			<path fill="#FEFFE9" d="M91.794,97.548c0.155,0.243,0.198,0.54,0.113,0.815l-1.608,5.423c-0.072,0.251-0.24,0.46-0.473,0.587
				c-0.232,0.126-0.5,0.153-0.753,0.077c-0.224-0.065-0.42-0.212-0.548-0.412c-0.154-0.242-0.195-0.538-0.114-0.811l1.609-5.428
				c0.075-0.253,0.244-0.461,0.476-0.586c0.231-0.125,0.499-0.153,0.751-0.079C91.472,97.201,91.667,97.348,91.794,97.548z"/>
		</g>
		<g>
			<path fill="#FFFFFF" d="M86.227,115.557c-0.04,0.134-0.182,0.213-0.317,0.171l0,0c-0.135-0.039-0.212-0.182-0.172-0.316
				l1.609-5.427c0.04-0.136,0.182-0.214,0.316-0.173l0,0c0.136,0.04,0.214,0.183,0.172,0.318L86.227,115.557z"/>
			<path fill="#FEFFE9" d="M88.421,109.525c0.156,0.243,0.197,0.542,0.113,0.818l-1.607,5.421c-0.077,0.255-0.247,0.464-0.48,0.589
				c-0.231,0.125-0.498,0.15-0.75,0.074c-0.221-0.065-0.417-0.212-0.544-0.412c-0.155-0.243-0.197-0.539-0.114-0.813l1.606-5.425
				c0.158-0.523,0.709-0.821,1.229-0.664C88.096,109.177,88.293,109.324,88.421,109.525z"/>
		</g>
		<g>
			<path fill="#FFFFFF" d="M97.42,109.345c-0.04,0.135-0.183,0.213-0.317,0.173l-5.427-1.609c-0.135-0.04-0.213-0.183-0.173-0.317
				l0,0c0.04-0.135,0.182-0.214,0.317-0.173l5.428,1.608C97.384,109.068,97.46,109.211,97.42,109.345L97.42,109.345z"/>
			<path fill="#FEFFE9" d="M98.006,108.74c0.154,0.242,0.196,0.539,0.114,0.815c-0.154,0.517-0.702,0.815-1.223,0.664l-5.429-1.61
				c-0.226-0.066-0.421-0.214-0.55-0.414c-0.155-0.242-0.197-0.538-0.115-0.813c0.073-0.249,0.241-0.458,0.473-0.584
				c0.231-0.126,0.498-0.155,0.75-0.081l5.429,1.61C97.684,108.396,97.879,108.542,98.006,108.74z"/>
		</g>
		<g>
			<path fill="#FFFFFF" d="M85.443,105.972c-0.04,0.136-0.182,0.213-0.317,0.173l-5.428-1.61c-0.135-0.039-0.212-0.182-0.171-0.316
				l0,0c0.04-0.135,0.182-0.213,0.317-0.173l5.427,1.609C85.406,105.695,85.483,105.837,85.443,105.972L85.443,105.972z"/>
			<path fill="#FEFFE9" d="M86.028,105.368c0.155,0.243,0.196,0.539,0.114,0.814c-0.073,0.249-0.242,0.458-0.474,0.584
				c-0.232,0.126-0.5,0.153-0.753,0.078l-5.425-1.609c-0.223-0.065-0.42-0.212-0.55-0.413c-0.155-0.242-0.197-0.539-0.114-0.815
				c0.155-0.518,0.704-0.816,1.224-0.662l5.428,1.61C85.707,105.022,85.901,105.17,86.028,105.368z"/>
		</g>
	</g>
	<g>
		<g>
			<path fill="#FFFFFF" d="M201.748,261.391c-0.039,0.136-0.182,0.213-0.316,0.172l0,0c-0.135-0.04-0.213-0.182-0.173-0.317
				l1.609-5.426c0.039-0.135,0.182-0.213,0.317-0.173l0,0c0.135,0.04,0.213,0.182,0.173,0.317L201.748,261.391z"/>
			<path fill="#FEFFE9" d="M203.942,255.361c0.155,0.242,0.198,0.54,0.113,0.815l-1.608,5.423c-0.072,0.25-0.241,0.459-0.473,0.586
				s-0.5,0.153-0.754,0.077c-0.224-0.064-0.42-0.212-0.548-0.411c-0.154-0.242-0.195-0.538-0.114-0.812l1.609-5.428
				c0.075-0.253,0.244-0.461,0.476-0.587c0.231-0.125,0.499-0.152,0.751-0.079C203.619,255.013,203.815,255.161,203.942,255.361z"/>
		</g>
		<g>
			<path fill="#FFFFFF" d="M198.375,273.37c-0.04,0.134-0.182,0.212-0.317,0.171l0,0c-0.135-0.039-0.212-0.182-0.172-0.316
				l1.609-5.427c0.041-0.137,0.182-0.214,0.317-0.173l0,0c0.136,0.04,0.214,0.183,0.172,0.317L198.375,273.37z"/>
			<path fill="#FEFFE9" d="M200.569,267.337c0.156,0.243,0.197,0.541,0.113,0.818l-1.607,5.421c-0.077,0.256-0.247,0.464-0.48,0.589
				c-0.231,0.124-0.498,0.15-0.75,0.074c-0.221-0.065-0.417-0.212-0.545-0.411c-0.155-0.243-0.196-0.539-0.114-0.813l1.607-5.425
				c0.158-0.524,0.709-0.821,1.229-0.665C200.244,266.99,200.441,267.136,200.569,267.337z"/>
		</g>
		<g>
			<path fill="#FFFFFF" d="M209.568,267.158c-0.04,0.136-0.183,0.213-0.317,0.173l-5.427-1.608c-0.135-0.04-0.212-0.184-0.172-0.317
				l0,0c0.04-0.136,0.182-0.214,0.317-0.173l5.428,1.608C209.532,266.88,209.608,267.024,209.568,267.158L209.568,267.158z"/>
			<path fill="#FEFFE9" d="M210.154,266.553c0.154,0.242,0.196,0.538,0.114,0.815c-0.154,0.517-0.702,0.814-1.223,0.663l-5.429-1.61
				c-0.226-0.066-0.421-0.214-0.55-0.414c-0.155-0.241-0.197-0.538-0.115-0.812c0.073-0.249,0.241-0.458,0.473-0.584
				c0.231-0.127,0.498-0.154,0.75-0.081l5.429,1.609C209.832,266.209,210.026,266.355,210.154,266.553z"/>
		</g>
		<g>
			<path fill="#FFFFFF" d="M197.59,263.784c-0.04,0.137-0.182,0.213-0.316,0.174l-5.428-1.611c-0.135-0.038-0.212-0.181-0.172-0.315
				l0,0c0.041-0.136,0.183-0.214,0.317-0.174l5.427,1.609C197.554,263.507,197.631,263.649,197.59,263.784L197.59,263.784z"/>
			<path fill="#FEFFE9" d="M198.176,263.18c0.155,0.243,0.196,0.539,0.114,0.813c-0.073,0.249-0.242,0.459-0.474,0.585
				c-0.231,0.126-0.5,0.153-0.752,0.077l-5.425-1.608c-0.223-0.064-0.42-0.213-0.55-0.413c-0.155-0.242-0.197-0.539-0.114-0.815
				c0.155-0.518,0.704-0.815,1.224-0.661l5.428,1.609C197.855,262.834,198.049,262.983,198.176,263.18z"/>
		</g>
	</g>
	<g>
		<g>
			<path fill="#FFFFFF" d="M45.986,9.858c-0.102,0.043-0.219-0.006-0.261-0.108l0,0c-0.042-0.102,0.006-0.219,0.108-0.262l4.1-1.695
				c0.102-0.043,0.22,0.006,0.262,0.108l0,0c0.042,0.103-0.006,0.22-0.109,0.262L45.986,9.858z"/>
			<path fill="#FEFFE9" d="M50.743,8.222c-0.071,0.213-0.231,0.387-0.441,0.471l-4.097,1.694c-0.188,0.08-0.398,0.08-0.591,0.001
				c-0.191-0.08-0.34-0.229-0.418-0.421c-0.07-0.168-0.078-0.36-0.019-0.537c0.072-0.213,0.231-0.384,0.438-0.47l4.1-1.696
				c0.191-0.079,0.401-0.079,0.592,0s0.339,0.229,0.418,0.419C50.795,7.854,50.802,8.045,50.743,8.222z"/>
		</g>
		<g>
			<path fill="#FFFFFF" d="M37.026,13.709c-0.101,0.042-0.22-0.006-0.261-0.108l0,0c-0.043-0.102,0.006-0.219,0.108-0.261l4.1-1.696
				c0.103-0.042,0.22,0.006,0.262,0.108l0,0c0.042,0.103-0.006,0.221-0.109,0.262L37.026,13.709z"/>
			<path fill="#FEFFE9" d="M41.783,12.072c-0.071,0.215-0.233,0.387-0.443,0.472l-4.095,1.694c-0.194,0.079-0.404,0.078-0.596-0.002
				c-0.19-0.08-0.337-0.229-0.416-0.421c-0.069-0.167-0.076-0.358-0.018-0.535c0.071-0.214,0.231-0.386,0.439-0.471l4.098-1.696
				c0.397-0.162,0.849,0.027,1.011,0.421C41.834,11.702,41.842,11.895,41.783,12.072z"/>
		</g>
		<g>
			<path fill="#FFFFFF" d="M46.33,17.466c-0.102,0.042-0.22-0.006-0.262-0.108l-1.696-4.1c-0.042-0.102,0.007-0.22,0.108-0.262l0,0
				c0.102-0.042,0.22,0.005,0.262,0.108l1.696,4.1C46.48,17.307,46.431,17.424,46.33,17.466L46.33,17.466z"/>
			<path fill="#FEFFE9" d="M46.987,17.524c-0.071,0.214-0.231,0.385-0.44,0.472c-0.391,0.162-0.843-0.025-1.007-0.418l-1.696-4.101
				c-0.07-0.17-0.077-0.362-0.019-0.54c0.071-0.213,0.231-0.385,0.439-0.471c0.188-0.078,0.397-0.079,0.589,0
				c0.191,0.079,0.339,0.227,0.419,0.418l1.696,4.101C47.038,17.159,47.045,17.349,46.987,17.524z"/>
		</g>
		<g>
			<path fill="#FFFFFF" d="M42.479,8.505c-0.103,0.043-0.219-0.006-0.261-0.108l-1.695-4.1c-0.043-0.102,0.006-0.219,0.108-0.261
				l0,0c0.102-0.042,0.219,0.006,0.262,0.108l1.695,4.1C42.629,8.347,42.581,8.463,42.479,8.505L42.479,8.505z"/>
			<path fill="#FEFFE9" d="M43.136,8.564c-0.072,0.214-0.232,0.385-0.44,0.471c-0.188,0.078-0.398,0.079-0.589,0
				c-0.191-0.079-0.34-0.229-0.418-0.42l-1.695-4.098c-0.07-0.167-0.078-0.361-0.019-0.539c0.07-0.214,0.231-0.386,0.44-0.471
				c0.392-0.161,0.844,0.026,1.007,0.419l1.695,4.101C43.188,8.198,43.194,8.389,43.136,8.564z"/>
		</g>
	</g>
	<g>
		<g>
			<path fill="#FFFFFF" d="M524.125,41.42c-0.101,0.043-0.219-0.006-0.26-0.108l0,0c-0.043-0.102,0.006-0.219,0.107-0.262l4.1-1.695
				c0.102-0.043,0.22,0.006,0.262,0.108l0,0c0.042,0.102-0.006,0.219-0.108,0.262L524.125,41.42z"/>
			<path fill="#FEFFE9" d="M528.883,39.784c-0.072,0.214-0.232,0.387-0.441,0.471l-4.097,1.694c-0.188,0.08-0.399,0.08-0.592,0.001
				c-0.191-0.08-0.34-0.229-0.418-0.421c-0.07-0.169-0.078-0.361-0.019-0.538c0.071-0.213,0.23-0.384,0.438-0.47l4.1-1.696
				c0.19-0.079,0.401-0.079,0.592,0c0.191,0.08,0.34,0.229,0.419,0.419C528.935,39.416,528.942,39.607,528.883,39.784z"/>
		</g>
		<g>
			<path fill="#FFFFFF" d="M515.167,45.271c-0.102,0.042-0.221-0.006-0.262-0.108l0,0c-0.043-0.102,0.006-0.219,0.108-0.261
				l4.1-1.695c0.103-0.042,0.219,0.005,0.261,0.108l0,0c0.043,0.103-0.006,0.22-0.108,0.261L515.167,45.271z"/>
			<path fill="#FEFFE9" d="M519.922,43.635c-0.071,0.215-0.232,0.387-0.442,0.472l-4.096,1.694
				c-0.193,0.079-0.403,0.078-0.596-0.002c-0.189-0.08-0.337-0.229-0.415-0.421c-0.069-0.167-0.075-0.358-0.018-0.535
				c0.071-0.214,0.231-0.386,0.439-0.471l4.098-1.696c0.396-0.162,0.85,0.027,1.011,0.421
				C519.974,43.264,519.981,43.457,519.922,43.635z"/>
		</g>
		<g>
			<path fill="#FFFFFF" d="M524.469,49.029c-0.103,0.042-0.22-0.007-0.263-0.108l-1.695-4.1c-0.041-0.102,0.008-0.22,0.108-0.262
				l0,0c0.103-0.042,0.221,0.005,0.262,0.108l1.697,4.1C524.621,48.87,524.571,48.986,524.469,49.029L524.469,49.029z"/>
			<path fill="#FEFFE9" d="M525.126,49.087c-0.071,0.214-0.23,0.385-0.44,0.472c-0.391,0.162-0.843-0.025-1.008-0.418l-1.695-4.101
				c-0.071-0.17-0.078-0.362-0.02-0.54c0.071-0.213,0.231-0.385,0.439-0.471c0.187-0.078,0.397-0.079,0.589,0
				s0.339,0.228,0.419,0.418l1.696,4.101C525.177,48.722,525.184,48.912,525.126,49.087z"/>
		</g>
		<g>
			<path fill="#FFFFFF" d="M520.619,40.068c-0.103,0.042-0.219-0.006-0.261-0.108l-1.695-4.101
				c-0.044-0.102,0.006-0.219,0.107-0.261l0,0c0.103-0.042,0.22,0.006,0.262,0.108l1.695,4.1
				C520.769,39.909,520.721,40.026,520.619,40.068L520.619,40.068z"/>
			<path fill="#FEFFE9" d="M521.276,40.126c-0.071,0.215-0.232,0.385-0.44,0.471c-0.188,0.078-0.398,0.079-0.59,0
				s-0.34-0.229-0.418-0.42l-1.694-4.099c-0.071-0.167-0.078-0.361-0.021-0.539c0.071-0.214,0.232-0.386,0.441-0.471
				c0.392-0.161,0.844,0.026,1.006,0.419l1.696,4.101C521.328,39.761,521.333,39.952,521.276,40.126z"/>
		</g>
	</g>
	<g>
		<g>
			<path fill="#FFFFFF" d="M388.474,29.333c-0.102,0.043-0.22-0.006-0.261-0.108l0,0c-0.043-0.102,0.006-0.219,0.108-0.262
				l4.1-1.695c0.102-0.043,0.22,0.006,0.262,0.108l0,0c0.042,0.102-0.006,0.219-0.109,0.262L388.474,29.333z"/>
			<path fill="#FEFFE9" d="M393.231,27.696c-0.071,0.214-0.232,0.387-0.441,0.471l-4.097,1.694c-0.188,0.08-0.398,0.08-0.591,0.001
				c-0.191-0.079-0.341-0.229-0.419-0.421c-0.069-0.168-0.078-0.361-0.019-0.538c0.071-0.213,0.23-0.384,0.438-0.469l4.099-1.696
				c0.191-0.079,0.401-0.079,0.593,0.001c0.19,0.08,0.339,0.229,0.418,0.419C393.284,27.328,393.29,27.52,393.231,27.696z"/>
		</g>
		<g>
			<path fill="#FFFFFF" d="M379.514,33.184c-0.101,0.042-0.221-0.006-0.261-0.108l0,0c-0.044-0.102,0.005-0.219,0.107-0.261
				l4.1-1.695c0.103-0.042,0.22,0.005,0.262,0.108l0,0c0.042,0.103-0.006,0.22-0.109,0.261L379.514,33.184z"/>
			<path fill="#FEFFE9" d="M384.271,31.547c-0.072,0.215-0.233,0.387-0.443,0.472l-4.095,1.694
				c-0.194,0.079-0.404,0.079-0.596-0.002c-0.19-0.08-0.338-0.229-0.415-0.421c-0.069-0.167-0.076-0.358-0.019-0.535
				c0.072-0.214,0.232-0.386,0.44-0.471l4.097-1.696c0.397-0.162,0.85,0.027,1.011,0.421
				C384.323,31.177,384.329,31.37,384.271,31.547z"/>
		</g>
		<g>
			<path fill="#FFFFFF" d="M388.818,36.941c-0.103,0.042-0.221-0.007-0.263-0.108l-1.696-4.1c-0.041-0.102,0.008-0.219,0.109-0.261
				l0,0c0.103-0.043,0.22,0.005,0.262,0.108l1.696,4.1C388.968,36.782,388.918,36.898,388.818,36.941L388.818,36.941z"/>
			<path fill="#FEFFE9" d="M389.474,36.999c-0.071,0.214-0.23,0.385-0.44,0.472c-0.39,0.161-0.842-0.026-1.007-0.418l-1.696-4.101
				c-0.071-0.17-0.077-0.362-0.019-0.539c0.071-0.213,0.231-0.385,0.439-0.471c0.187-0.078,0.396-0.079,0.588,0
				c0.191,0.079,0.34,0.228,0.42,0.418l1.695,4.101C389.526,36.634,389.533,36.824,389.474,36.999z"/>
		</g>
		<g>
			<path fill="#FFFFFF" d="M384.966,27.98c-0.103,0.042-0.219-0.006-0.261-0.108l-1.695-4.101c-0.043-0.102,0.006-0.219,0.108-0.261
				l0,0c0.102-0.042,0.219,0.006,0.262,0.108l1.695,4.1C385.118,27.821,385.069,27.938,384.966,27.98L384.966,27.98z"/>
			<path fill="#FEFFE9" d="M385.624,28.039c-0.071,0.214-0.232,0.385-0.44,0.47c-0.188,0.078-0.397,0.079-0.589,0
				s-0.34-0.229-0.419-0.42l-1.694-4.099c-0.07-0.167-0.078-0.361-0.02-0.539c0.07-0.213,0.231-0.385,0.44-0.471
				c0.393-0.161,0.844,0.026,1.006,0.419l1.696,4.1C385.675,27.673,385.681,27.864,385.624,28.039z"/>
		</g>
	</g>
	<g>
		<g>
			<path fill="#FFFFFF" d="M167.553,22.604c0.113,0.245,0.004,0.536-0.244,0.646l0,0c-0.244,0.113-0.535,0.002-0.647-0.244
				l-4.475-9.882c-0.111-0.246-0.002-0.537,0.244-0.648l0,0c0.247-0.111,0.537-0.003,0.648,0.244L167.553,22.604z"/>
			<path fill="#FEFFE9" d="M163.17,11.112c0.529,0.157,0.963,0.534,1.187,1.039l4.471,9.876c0.209,0.454,0.228,0.968,0.049,1.444
				c-0.178,0.475-0.532,0.85-0.995,1.057c-0.406,0.186-0.875,0.219-1.311,0.09c-0.526-0.157-0.958-0.533-1.184-1.032l-4.475-9.883
				c-0.209-0.461-0.225-0.975-0.046-1.449c0.179-0.472,0.531-0.846,0.99-1.054C162.267,11.014,162.735,10.983,163.17,11.112z"/>
		</g>
		<g>
			<path fill="#FFFFFF" d="M177.688,44.192c0.111,0.246,0.003,0.537-0.244,0.647l0,0c-0.245,0.111-0.537,0.002-0.646-0.243
				l-4.475-9.883c-0.111-0.247-0.002-0.536,0.243-0.646l0,0c0.247-0.115,0.539-0.004,0.647,0.243L177.688,44.192z"/>
			<path fill="#FEFFE9" d="M173.303,32.699c0.532,0.157,0.965,0.537,1.19,1.044l4.469,9.872c0.209,0.466,0.225,0.981,0.044,1.456
				c-0.18,0.471-0.533,0.843-0.995,1.049c-0.403,0.183-0.87,0.215-1.306,0.086c-0.529-0.157-0.961-0.534-1.187-1.037l-4.475-9.877
				c-0.427-0.957-0.002-2.079,0.947-2.504C172.394,32.603,172.865,32.569,173.303,32.699z"/>
		</g>
		<g>
			<path fill="#FFFFFF" d="M186.12,21.153c0.111,0.247,0.001,0.537-0.243,0.648l-9.883,4.474c-0.246,0.112-0.537,0.002-0.648-0.244
				l0,0c-0.112-0.245-0.003-0.537,0.242-0.647l9.885-4.476C185.719,20.797,186.008,20.907,186.12,21.153L186.12,21.153z"/>
			<path fill="#FEFFE9" d="M186.209,19.542c0.528,0.157,0.96,0.534,1.188,1.038c0.427,0.941,0.007,2.062-0.94,2.495l-9.887,4.475
				c-0.411,0.188-0.878,0.22-1.316,0.091c-0.527-0.156-0.96-0.533-1.185-1.035c-0.207-0.452-0.226-0.966-0.048-1.439
				s0.528-0.848,0.988-1.058l9.885-4.476C185.312,19.446,185.777,19.415,186.209,19.542z"/>
		</g>
		<g>
			<path fill="#FFFFFF" d="M164.53,31.287c0.112,0.246,0.003,0.535-0.243,0.646l-9.884,4.473c-0.244,0.115-0.535,0.004-0.646-0.243
				l0,0c-0.11-0.246-0.002-0.536,0.243-0.647l9.884-4.474C164.131,30.931,164.42,31.04,164.53,31.287L164.53,31.287z"/>
			<path fill="#FEFFE9" d="M164.621,29.676c0.529,0.157,0.96,0.534,1.186,1.036c0.207,0.453,0.225,0.969,0.046,1.441
				c-0.178,0.473-0.532,0.849-0.993,1.057l-9.88,4.472c-0.404,0.187-0.875,0.222-1.315,0.091c-0.528-0.157-0.961-0.534-1.186-1.038
				c-0.426-0.945-0.003-2.066,0.944-2.494l9.883-4.475C163.723,29.579,164.189,29.548,164.621,29.676z"/>
		</g>
	</g>
	<g>
		<g>
			<path fill="#FFFFFF" d="M513.505,142.51c0.117-0.166,0.348-0.204,0.513-0.083l0,0c0.166,0.118,0.203,0.349,0.084,0.514
				l-4.779,6.631c-0.119,0.165-0.351,0.203-0.516,0.084l0,0c-0.165-0.12-0.203-0.35-0.084-0.514L513.505,142.51z"/>
			<path fill="#FEFFE9" d="M507.638,149.684c-0.097-0.403-0.012-0.829,0.234-1.165l4.776-6.626c0.218-0.307,0.548-0.512,0.926-0.574
				s0.755,0.029,1.064,0.253c0.273,0.196,0.471,0.491,0.549,0.824c0.097,0.403,0.013,0.826-0.229,1.161l-4.78,6.632
				c-0.223,0.309-0.553,0.513-0.929,0.573c-0.376,0.06-0.753-0.03-1.062-0.252C507.913,150.312,507.717,150.017,507.638,149.684z"/>
		</g>
		<g>
			<path fill="#FFFFFF" d="M523.812,127.789c0.119-0.165,0.35-0.204,0.515-0.083l0,0c0.165,0.118,0.202,0.35,0.084,0.514
				l-4.781,6.632c-0.119,0.166-0.35,0.204-0.514,0.084l0,0c-0.167-0.119-0.204-0.351-0.084-0.515L523.812,127.789z"/>
			<path fill="#FEFFE9" d="M517.945,134.965c-0.097-0.407-0.011-0.833,0.236-1.169l4.774-6.624c0.228-0.312,0.558-0.515,0.936-0.575
				c0.375-0.059,0.751,0.032,1.059,0.256c0.27,0.195,0.467,0.488,0.545,0.821c0.097,0.404,0.013,0.828-0.231,1.164l-4.776,6.629
				c-0.465,0.638-1.357,0.781-1.992,0.32C518.223,135.596,518.024,135.3,517.945,134.965z"/>
		</g>
		<g>
			<path fill="#FFFFFF" d="M505.591,130.92c0.119-0.166,0.351-0.202,0.516-0.084l6.63,4.781c0.167,0.119,0.203,0.35,0.084,0.515l0,0
				c-0.118,0.166-0.349,0.204-0.514,0.085l-6.633-4.781C505.51,131.316,505.472,131.085,505.591,130.92L505.591,130.92z"/>
			<path fill="#FEFFE9" d="M504.505,131.466c-0.096-0.404-0.012-0.828,0.232-1.165c0.455-0.632,1.346-0.779,1.982-0.322l6.635,4.782
				c0.275,0.198,0.474,0.492,0.552,0.826c0.097,0.403,0.012,0.828-0.23,1.163c-0.218,0.304-0.547,0.509-0.924,0.571
				c-0.375,0.062-0.751-0.027-1.061-0.249l-6.635-4.782C504.78,132.088,504.584,131.796,504.505,131.466z"/>
		</g>
		<g>
			<path fill="#FFFFFF" d="M520.313,141.229c0.118-0.166,0.349-0.204,0.514-0.084l6.631,4.782c0.166,0.117,0.204,0.347,0.084,0.513
				l0,0c-0.119,0.164-0.35,0.203-0.515,0.084l-6.631-4.781C520.23,141.623,520.194,141.394,520.313,141.229L520.313,141.229z"/>
			<path fill="#FEFFE9" d="M519.226,141.773c-0.095-0.404-0.011-0.828,0.232-1.164c0.22-0.305,0.549-0.51,0.925-0.571
				c0.377-0.061,0.755,0.029,1.062,0.252l6.63,4.78c0.273,0.194,0.473,0.489,0.553,0.825c0.096,0.404,0.012,0.828-0.233,1.165
				c-0.458,0.633-1.349,0.777-1.984,0.318l-6.632-4.78C519.5,142.397,519.305,142.104,519.226,141.773z"/>
		</g>
	</g>
</g>
</svg>
