<svg xmlns="http://www.w3.org/2000/svg" width="32" height="32" viewBox="0 0 32 32"><path fill="#ea4c89" d="M16 32c-8.822 0-16-7.178-16-16s7.178-16 16-16c8.823 0 16 7.178 16 16s-7.177 16-16 16zm13.494-13.81c-.468-.148-4.23-1.27-8.513-.584 1.788 4.912 2.515 8.913 2.655 9.744 3.066-2.073 5.249-5.357 5.858-9.16zm-8.156 10.411c-.203-1.199-.997-5.378-2.916-10.364l-.09.03c-7.708 2.686-10.476 8.032-10.721 8.534 2.317 1.807 5.229 2.885 8.389 2.885 1.893 0 3.697-.387 5.338-1.086zm-15.491-3.442c.31-.53 4.06-6.74 11.109-9.019l.539-.162c-.343-.776-.717-1.554-1.108-2.319-6.825 2.043-13.448 1.957-14.046 1.945l-.007.418c0 3.51 1.331 6.715 3.513 9.138zm-3.225-11.937c.611.008 6.242.033 12.634-1.665-2.264-4.025-4.707-7.41-5.067-7.904-3.823 1.803-6.681 5.328-7.567 9.569zm10.175-10.488c.378.506 2.86 3.886 5.099 8 4.86-1.821 6.917-4.587 7.163-4.937-2.413-2.141-5.587-3.444-9.059-3.444-1.103 0-2.175.132-3.203.38zm13.782 4.644c-.288.39-2.578 3.326-7.631 5.389.318.651.623 1.313.907 1.979l.294.705c4.547-.572 9.066.345 9.516.44-.03-3.226-1.183-6.188-3.086-8.513z"/></svg>