<svg xmlns="http://www.w3.org/2000/svg" width="508.739" height="358.015" viewBox="0 0 508.739 358.015"><path d="M247.924 141.577l8.981-8.965-107.783-107.591.442-.442-8.859-8.859-.449.444-5.163-5.154c-3.494-3.49-8.1-5.233-12.708-5.233-4.611 0-9.224 1.748-12.724 5.258l-23.62 23.663c-6.986 6.996-6.982 18.438.025 25.432l5.16 5.144-.466.466 8.876 8.859.463-.46 107.69 107.504 8.98-8.965-107.708-107.516 31.104-31.161 107.759 107.576zm-147.742-85.278l-5.16-5.154c-1.329-1.326-1.539-2.912-1.539-3.74 0-.827.2-2.413 1.539-3.743l23.617-23.664c1.33-1.334 2.916-1.536 3.746-1.536.828 0 2.41.202 3.749 1.53l5.161 5.151-31.113 31.156zm321.895 281.46l-37.092-67.096c.758-5.418-.918-11.115-5.065-15.256l-73.896-73.764-8.979 8.965 73.911 73.781c1.393 1.393 1.811 3.438 1.293 5.244-.237.828-.652 1.611-1.287 2.248l-23.623 23.66c-.737.736-1.547 1.111-2.265 1.316-.581.158-1.11.217-1.479.217-.821 0-2.412-.195-3.738-1.529l-28.38-28.33 17.982-18.016-4.484-4.484-17.991 18.02-7.854-7.844 15.199-15.229-4.481-4.48-15.205 15.227-7.866-7.846 6.639-6.645-4.481-4.486-6.639 6.652-16.403-16.377-8.985 8.965 73.98 73.676c3.499 3.484 8.098 5.051 12.709 5.051h.028l.117.264 69.847 36.69c.927.49 1.931.771 2.94.771 1.659 0 3.314-.63 4.533-1.886 1.955-1.999 2.373-5.033 1.015-7.479zm-26.852-15.259l-37.338-19.566-.626-.324 19.878-19.91.344.611 20.262 36.666-2.52 2.523z" fill="#DC669E"/><path fill="#26A4DB" d="M422.697 39.766l-23.619-23.664c-3.495-3.507-8.111-5.259-12.729-5.259-4.602 0-9.21 1.745-12.702 5.236l-116.741 116.533-8.981 8.965-31.153 31.102-8.98 8.965-78.968 78.832c-4.15 4.141-5.826 9.838-5.07 15.252l-37.09 67.1c-1.359 2.445-.942 5.5 1.015 7.5 1.219 1.254 2.87 1.91 4.532 1.91 1.002 0 2.014-.236 2.942-.725l69.848-36.602.116-.084.023.004c4.61 0 9.211-1.748 12.707-5.234l79.06-78.924 8.985-8.965 31.153-31.1 8.979-8.965 116.644-116.448c7.011-6.989 7.017-18.433.029-25.429zm-40.092-14.703c1.339-1.334 2.924-1.53 3.744-1.53.83 0 2.42.196 3.75 1.536l23.617 23.661c1.338 1.332 1.536 2.919 1.536 3.743 0 .829-.209 2.415-1.536 3.74l-5.306 5.297-31.105-31.153 5.3-5.294zm-269.09 302.507l-2.522-2.529 20.266-36.664 19.594 19.625-37.338 19.568zm183.529-154.891l-8.979 8.965-31.16 31.101-8.981 8.963-21.479 21.443-6.64-6.65-4.48 4.484 6.634 6.646-7.863 7.846-15.208-15.23-4.482 4.488 15.202 15.225-7.855 7.84-17.994-18.016-4.481 4.484 17.984 18.014-28.38 28.33c-1.327 1.332-2.919 1.531-3.743 1.531-.366 0-.893-.061-1.472-.219l-27.176-27.225c-.522-1.803-.103-3.854 1.292-5.242l78.99-78.85 8.978-8.964 31.154-31.102 8.985-8.965 102.832-102.651 31.102 31.16-102.78 102.594z"/></svg>