<svg xmlns="http://www.w3.org/2000/svg" width="508.739" height="358.015" viewBox="0 0 508.739 358.015"><path fill="#565656" d="M254.925 335.035c-54.426 0-113.178-27.623-169.91-79.886-42.379-39.044-68.496-77.517-69.587-79.135-2.258-3.36-2.155-7.787.254-11.028 1.075-1.444 26.823-35.867 69.047-70.768 56.382-46.604 115.236-71.237 170.196-71.237 53.792 0 112.077 24.538 168.559 70.962 42.275 34.748 68.428 69.017 69.521 70.46 2.334 3.081 2.574 7.381.597 10.7-.954 1.615-24.092 40.373-64.897 79.667-54.535 52.509-114.626 80.265-173.78 80.265zm-222.198-164.125c8.08 11.172 31.305 41.737 64.126 71.926 37.262 34.27 94.932 75.122 158.072 75.122 119.955 0 205.278-122.506 221.281-147.254-8.12-9.982-31.26-37.063-63.865-63.812-37.161-30.489-94.635-66.834-157.416-66.834-111.152-.001-203.74 107.87-222.198 130.852z"/><path d="M191.911 179.009c0-7.643 1.355-14.972 3.835-21.762-2.48 6.788-3.835 14.117-3.835 21.762zm.338 6.572l-.011-.089c-.061-.599-.094-1.208-.138-1.812-.112-1.543-.189-3.097-.189-4.669 0 1.572.077 3.125.189 4.669.044.604.077 1.211.137 1.811l.01.091c3.286 31.918 30.253 56.819 63.045 56.819h.002c-32.786-.001-59.759-24.901-63.045-56.82zm0-.005l-.011-.086m-.327-6.481c0 1.572.077 3.125.189 4.669" fill="none"/><path fill="#404040" d="M272.939 118.134c-5.604-1.621-11.519-2.507-17.644-2.507-7.002 0-13.722 1.156-20.018 3.253 7.643 5.265 12.669 14.188 12.669 24.31 0 16.183-12.847 29.303-28.693 29.303-10.123 0-19.014-5.358-24.122-13.444-2.081 6.28-3.221 12.987-3.221 19.96 0 1.572.077 3.125.189 4.669.044.604.077 1.212.138 1.812l.011.091c3.286 31.92 30.26 56.819 63.045 56.819h.002c5.47 0 10.778-.697 15.841-2 27.341-7.034 47.541-31.854 47.542-61.391-.001-28.881-19.322-53.232-45.739-60.875z"/><path d="M272.939 118.134c-5.605-1.623-11.523-2.51-17.652-2.51-7.002 0-13.716 1.159-20.011 3.255l.002.001c7.643 5.265 12.669 14.188 12.669 24.31 0 16.183-12.847 29.303-28.693 29.303-10.123 0-19.014-5.358-24.122-13.444-2.081 6.278-3.221 12.985-3.221 19.96 0 1.572.077 3.126.189 4.669.044.604.077 1.213.137 1.812l.01.089c3.286 31.918 30.253 56.819 63.045 56.819h.004c5.47 0 10.778-.697 15.841-2 27.341-7.034 47.541-31.854 47.542-61.391-.002-28.879-19.323-53.23-45.74-60.873z" fill="none"/><path fill="#4BB3BA" d="M255.295 86.254c-51.228 0-92.758 41.527-92.758 92.755 0 51.226 41.53 92.754 92.758 92.754 51.225 0 92.753-41.528 92.753-92.754 0-51.227-41.528-92.755-92.753-92.755zm15.841 154.146c-5.062 1.303-10.371 2-15.841 2h-.004c-32.792 0-59.759-24.901-63.045-56.819l-.01-.089c-.061-.599-.093-1.208-.137-1.812-.112-1.543-.189-3.097-.189-4.669 0-6.976 1.14-13.683 3.221-19.96-2.888-4.572-4.571-10.013-4.571-15.858 0-16.183 12.847-29.303 28.693-29.303 5.934 0 11.447 1.84 16.022 4.991 6.295-2.096 13.009-3.255 20.011-3.255 6.129 0 12.047.887 17.652 2.51 26.417 7.643 45.738 31.994 45.739 60.875 0 29.535-20.2 54.355-47.541 61.389z"/><path fill="#fff" d="M219.253 172.494c15.847 0 28.693-13.12 28.693-29.303 0-10.122-5.026-19.045-12.669-24.31l-.002-.001c-4.575-3.151-10.088-4.991-16.022-4.991-15.847 0-28.693 13.12-28.693 29.303 0 5.845 1.684 11.286 4.571 15.858 5.109 8.085 13.999 13.444 24.122 13.444z"/></svg>