<svg xmlns="http://www.w3.org/2000/svg" width="508.739" height="358.015" viewBox="0 0 508.739 358.015"><path fill="#8E5DC1" d="M197.912 123.517c0 3.472-2.56 6.281-5.725 6.281h-136.269c-3.163 0-5.74-2.809-5.74-6.281 0-3.465 2.577-6.275 5.74-6.275h136.269c3.165-.001 5.725 2.809 5.725 6.275"/><path fill="#909090" d="M124.531 153.249c0 3.475-2.514 6.28-5.604 6.28h-62.256c-3.09 0-5.61-2.805-5.61-6.28 0-3.472 2.52-6.272 5.61-6.272h62.256c3.09-.001 5.604 2.799 5.604 6.272m0 147.081c0 3.475-2.514 6.277-5.604 6.277h-62.256c-3.09 0-5.61-2.803-5.61-6.277 0-3.473 2.52-6.273 5.61-6.273h62.256c3.09-.001 5.604 2.8 5.604 6.273m64.613-147.081c0 3.475-1.934 6.28-4.31 6.28h-47.877c-2.378 0-4.316-2.805-4.316-6.28 0-3.472 1.938-6.272 4.316-6.272h47.877c2.376-.001 4.31 2.799 4.31 6.272m-11.97 147.081c0 3.475-1.525 6.277-3.396 6.277h-37.735c-1.875 0-3.402-2.803-3.402-6.277 0-3.473 1.527-6.273 3.402-6.273h37.735c1.871-.001 3.396 2.8 3.396 6.273m20.738-116.688c0 3.475-5.025 6.274-11.225 6.274h-124.418c-6.181 0-11.192-2.799-11.192-6.274 0-3.459 5.011-6.286 11.192-6.286h124.418c6.199 0 11.225 2.826 11.225 6.286m9.732 88.74c0 3.473-5.358 6.271-11.969 6.271h-132.664c-6.592 0-11.935-2.799-11.935-6.271 0-3.461 5.343-6.287 11.935-6.287h132.664c6.61 0 11.969 2.826 11.969 6.287m15.376-59.422c0 3.467-2.998 6.273-6.654 6.273h-158.355c-3.68 0-6.659-2.807-6.659-6.273 0-3.473 2.979-6.266 6.659-6.266h158.355c3.656.001 6.654 2.794 6.654 6.266m0 30.883c0 3.473-2.989 6.275-6.666 6.275h-158.333c-3.683 0-6.66-2.803-6.66-6.275 0-3.461 2.978-6.273 6.66-6.273h158.333c3.677 0 6.666 2.812 6.666 6.273"/><path fill="#565656" d="M481.494 349.093h-454.25c-12.694 0-23.032-10.33-23.032-23.031v-294.11c0-12.695 10.338-23.031 23.032-23.031h454.25c12.699 0 23.033 10.335 23.033 23.031v294.11c0 12.701-10.334 23.031-23.033 23.031m-454.25-324.816c-4.229 0-7.68 3.446-7.68 7.675v294.11c0 4.236 3.451 7.678 7.68 7.678h454.25c4.236 0 7.68-3.441 7.68-7.678v-294.11c0-4.229-3.443-7.675-7.68-7.675h-454.25zm-11.098 50.318h477.159v15.354h-477.159z"/><path fill="#44B9B9" d="M60.289 50.142c0 3.708-3.019 6.709-6.749 6.709-3.71 0-6.73-3-6.73-6.709 0-3.701 3.021-6.71 6.73-6.71 3.73 0 6.749 3.008 6.749 6.71"/><path fill="#ED8080" d="M53.541 64.529c-7.946 0-14.41-6.456-14.41-14.387 0-7.928 6.464-14.387 14.41-14.387 7.958 0 14.418 6.458 14.418 14.387 0 7.931-6.46 14.387-14.418 14.387"/><path fill="#44B9B9" d="M93.246 49.789c0 3.7-3.002 6.71-6.734 6.71-3.718 0-6.73-3.01-6.73-6.71 0-3.707 3.012-6.708 6.73-6.708 3.732-.001 6.734 3.001 6.734 6.708"/><path fill="#EEE58A" d="M86.512 64.175c-7.947 0-14.41-6.456-14.41-14.387 0-7.936 6.463-14.396 14.41-14.396 7.95 0 14.414 6.46 14.414 14.396 0 7.932-6.465 14.387-14.414 14.387"/><path fill="#44B9B9" d="M126.396 49.964c0 3.708-3.012 6.711-6.73 6.711-3.721 0-6.74-3.003-6.74-6.711 0-3.707 3.019-6.708 6.74-6.708 3.718 0 6.73 3.001 6.73 6.708"/><path fill="#8FE599" d="M119.666 64.353c-7.957 0-14.421-6.455-14.421-14.388 0-7.927 6.464-14.387 14.421-14.387 7.947 0 14.408 6.459 14.408 14.387 0 7.932-6.461 14.388-14.408 14.388"/><path fill-rule="evenodd" clip-rule="evenodd" fill="#F3F4F4" d="M259.251 111.279h200.883v200.882h-200.883z"/><path fill-rule="evenodd" clip-rule="evenodd" fill="#7FC7ED" d="M304.449 239.843h21.094v19.088h-21.094zm140.621 55.244h15.064v17.074h-15.064zm-114.504-26.115h26.113v21.061h-26.113zm80.351-157.693h29.129v22.098h-29.129z"/><path fill-rule="evenodd" clip-rule="evenodd" fill="#83CDAC" d="M373.755 138.4h66.291v81.357h-66.291zm-114.504 0h14.061v96.422h-14.061zm45.198 156.687h21.094v17.074h-21.094z"/><path fill-rule="evenodd" clip-rule="evenodd" fill="#ECECEC" d="M273.312 161.5h95.42v2.009h-95.42zm0 51.226h57.254v2.008h-57.254zm-14.061 39.172h45.197v2.01h-45.197zm185.819-98.434h15.064v2.009h-15.064zm0 57.252h15.064v2.01h-15.064zm0 25.112h15.064v2.008h-15.064zm-185.819 42.185h71.314v2.008h-71.314zm102.452-31.138h78.344v2.012h-78.344zm-15.069-135.596h2.01v91.402h-2.01zm0 183.808h2.01v17.074h-2.01zm68.303-48.212h2.008v43.191h-2.008z"/><path fill-rule="evenodd" clip-rule="evenodd" fill="#fff" d="M259.251 133.377h200.883v5.023h-200.883zm0 101.445h71.314v5.021h-71.314zm70.61-15.065h115.209v5.021h-115.209zm-70.61 70.309h200.883v5.021h-200.883zm66.291-92.408h134.592v5.023h-134.592zm-52.23-86.379h5.023v200.882h-5.023zm166.734 0h5.023v200.882h-5.023zm-114.504 0h5.023v200.882h-5.023zm43.19 22.098h5.023v91.402h-5.023zm-12.053 91.402h5.023v70.309h-5.023zm49.217-113.5h5.021v91.402h-5.021z"/><path fill-rule="evenodd" clip-rule="evenodd" fill="#FEE379" d="M294.404 111.279h10.045v200.882h-10.045zm95.42 0h10.045v200.882h-10.045zm-130.573 64.283h200.883v10.044h-200.883zm45.198 83.369h155.584v10.041h-155.584z"/><path opacity=".3" fill="#545454" d="M343.443 248.685c4.891-4.656 15.539-11.287 24.861-14.553 5.076-1.781 8.729-3.965 10.238-5.531 5.254-5.447 4.207-11.689-2.336-13.953-6.547-2.26-16.115.32-21.367 5.768-1.512 1.566-2.848 4.549-2.885 8.07-.072 6.461-4.34 15.295-8.635 20.156l.124.043z"/><path fill="#DE5764" d="M343.419 188.675c-9.482 0-17.17 7.779-17.17 17.375 0 2.764 1.68 7.316 5.328 11.99 6.701 8.574 11.324 22.201 11.756 30.59h.174c.432-8.389 5.055-22.016 11.756-30.59 3.65-4.674 5.328-9.227 5.328-11.99 0-9.595-7.687-17.375-17.172-17.375zm0 23.248c-3.467 0-6.275-2.812-6.275-6.279s2.809-6.277 6.275-6.277c3.469 0 6.277 2.811 6.277 6.277s-2.808 6.279-6.277 6.279z"/></svg>