<svg xmlns="http://www.w3.org/2000/svg" viewBox="0 0 32 32" enable-background="new 0 0 32 32"><style type="text/css">.st0{fill:#C52B88;}</style><path class="st0" d="M22.2 31.6h-12.4c-4.9 0-8.9-4-8.9-8.9v-13.4c0-4.9 4-8.9 8.9-8.9h12.5c4.9 0 8.9 4 8.9 8.9v13.3c-.1 5-4.1 9-9 9zm-12.4-28.9c-3.6 0-6.6 3-6.6 6.6v13.3c0 3.6 3 6.6 6.6 6.6h12.5c3.6 0 6.6-3 6.6-6.6v-13.3c0-3.6-3-6.6-6.6-6.6h-12.5zM16 24.2c-4.6 0-8.3-3.7-8.3-8.3 0-2.2.9-4.4 2.5-6 1.6-1.5 3.6-2.3 5.8-2.3 2.6.1 4.7.9 6.2 2.5 1.4 1.5 2.1 3.5 2 5.8 0 2.2-.9 4.3-2.4 5.8-1.5 1.7-3.6 2.5-5.8 2.5zm-.2-13.7c-1.3 0-2.6.5-3.6 1.5-1.1 1-1.7 2.5-1.7 4 0 3 2.5 5.5 5.5 5.5s5.4-2.4 5.5-5.5c0-1.6-.4-2.9-1.3-3.8-.9-1-2.4-1.6-4.2-1.6-.1-.1-.1-.1-.2-.1z"/><circle class="st0" cx="24.5" cy="7.5" r="1.9"/></svg>