<svg xmlns="http://www.w3.org/2000/svg" width="32" height="32" viewBox="0 0 32 32"><path fill="#517fa4" d="M26.688 0h-21.375c-2.922 0-5.313 2.391-5.313 5.313v21.375c0 2.922 2.391 5.313 5.313 5.313h21.375c2.922 0 5.313-2.391 5.313-5.313v-21.375c0-2.922-2.391-5.313-5.313-5.313zm-16.444 14h11.513c.218.627.337 1.3.337 2 0 3.36-2.734 6.094-6.094 6.094s-6.094-2.734-6.094-6.094c0-.7.119-1.373.338-2zm17.756.002v11.998c0 1.1-.9 2-2 2h-20c-1.1 0-2-.9-2-2v-12h3.128c-.145.644-.222 1.313-.222 2 0 5.014 4.079 9.094 9.094 9.094s9.094-4.079 9.094-9.094c0-.687-.077-1.356-.222-2l3.128.002zm0-7.002c0 .55-.45 1-1 1h-2c-.55 0-1-.45-1-1v-2c0-.55.45-1 1-1h2c.55 0 1 .45 1 1v2z"/></svg>