<svg xmlns="http://www.w3.org/2000/svg" width="334.23" height="124.035" viewBox="0 0 334.23 124.035"><path d="M26.686 71.291c0 2.605-.638 4.473-1.911 5.602-1.274 1.129-3.185 1.693-5.732 1.693h-5.646c-2.49 0-4.386-.593-5.688-1.78-1.303-1.187-1.954-3.111-1.954-5.775v-4.516c0-.231.261-.463.782-.695.521-.231 1.186-.348 1.998-.348.81 0 1.446.102 1.911.304.462.204.695.449.695.738v4.255c0 .985.246 1.795.738 2.432.491.638 1.172.955 2.041.955h4.603c.984 0 1.694-.273 2.128-.824.434-.55.651-1.229.651-2.041v-52.544c0-.23.159-.448.478-.651.318-.202 1.056-.304 2.215-.304 1.158 0 1.896.087 2.214.26.318.174.478.406.478.695v52.544zm27.876-.261c0 2.605-.638 4.516-1.911 5.731-1.274 1.216-3.185 1.824-5.732 1.824h-5.732c-2.49 0-4.372-.578-5.645-1.737-1.274-1.157-1.911-3.01-1.911-5.558v-52.63c0-.23.26-.434.781-.608.521-.173 1.129-.26 1.824-.26s1.316.087 1.867.26c.549.174.825.406.825.695v52.544c0 .812.231 1.476.695 1.997.463.521 1.186.781 2.171.781h4.603c.925 0 1.62-.317 2.084-.955.462-.636.695-1.418.695-2.345v-52.109c0-.23.23-.434.695-.608.462-.173 1.099-.26 1.911-.26.81 0 1.476.087 1.998.26.521.174.781.406.781.695v52.283zm24.145-40.384c-.812 0-1.463-.115-1.954-.348-.493-.23-.738-.434-.738-.608v-4.255c0-.81-.217-1.477-.651-1.998-.434-.521-1.144-.782-2.127-.782h-4.518c-.927 0-1.622.319-2.084.956-.464.638-.695 1.419-.695 2.345v7.295c0 1.622.376 3.083 1.129 4.386.752 1.303 1.707 2.562 2.866 3.778 1.157 1.216 2.402 2.432 3.734 3.648 1.331 1.216 2.576 2.548 3.734 3.995 1.158 1.448 2.113 3.054 2.866 4.82.751 1.767 1.129 3.778 1.129 6.036v11.204c0 2.605-.638 4.502-1.911 5.688-1.274 1.188-3.156 1.78-5.645 1.78h-5.646c-2.49 0-4.372-.564-5.645-1.693-1.274-1.129-1.911-2.967-1.911-5.515v-4.256c0-.174.202-.391.608-.651.404-.261 1.099-.391 2.084-.391 1.737 0 2.605.348 2.605 1.042v4.256c0 .812.23 1.476.695 1.997.462.521 1.186.781 2.171.781h4.43c.925 0 1.62-.317 2.084-.955.463-.637.695-1.418.695-2.345v-11.203c0-1.446-.377-2.851-1.129-4.212-.753-1.36-1.708-2.721-2.866-4.082-1.159-1.36-2.388-2.692-3.691-3.995s-2.534-2.634-3.691-3.995c-1.159-1.359-2.114-2.721-2.866-4.082-.753-1.36-1.129-2.765-1.129-4.212v-9.379c0-2.605.636-4.501 1.911-5.689 1.273-1.186 3.155-1.78 5.645-1.78h5.646c2.489 0 4.371.564 5.645 1.693 1.273 1.129 1.911 2.968 1.911 5.515v4.255c.001.638-.898.956-2.691.956zm31.091-11.812c.115.406.174.927.174 1.563 0 .638-.073 1.172-.217 1.606-.145.435-.362.651-.651.651h-7.99c-.291 0-.435.174-.435.521v54.888c0 .291-.347.521-1.042.695s-1.246.261-1.65.261c-.464 0-1.028-.044-1.693-.131-.667-.087-.999-.275-.999-.564v-55.148c0-.347-.204-.521-.608-.521h-7.903c-.695 0-1.042-.723-1.042-2.171 0-1.505.318-2.258.956-2.258h22.32c.403 0 .664.204.78.608zm9.031 60.187c-1.854 0-2.779-.261-2.779-.782v-59.492c0-.23.202-.448.608-.651.405-.202 1.099-.304 2.084-.304.984 0 1.694.102 2.128.304.434.204.651.421.651.651v59.317c0 .637-.898.957-2.692.957zm31.265-.305c-.406.202-1.072.305-1.998.305-.927 0-1.578-.117-1.954-.348-.377-.23-.623-.463-.738-.695 0-.057-.261-.998-.782-2.822-.521-1.823-1.172-4.082-1.954-6.774s-1.606-5.602-2.475-8.728-1.693-6.021-2.475-8.685c-.782-2.663-1.433-4.892-1.954-6.688-.521-1.794-.782-2.721-.782-2.779-.059-.174-.117-.274-.174-.304-.058-.029-.087.073-.087.304v36.563c0 .174-.232.378-.695.608-.464.23-1.129.348-1.998.348-.811 0-1.462-.103-1.954-.305-.493-.202-.738-.447-.738-.738v-59.144c0-.463.217-.752.651-.869.434-.115 1.114-.173 2.041-.173 1.737 0 2.721.232 2.953.695 1.794 6.659 3.444 12.651 4.95 17.978.637 2.258 1.259 4.473 1.867 6.644.608 2.171 1.143 4.112 1.607 5.819.463 1.708.854 3.098 1.172 4.168.317 1.072.478 1.637.478 1.694.057.173.116.319.174.434.057.117.087-.057.087-.521v-36.043c0-.578.897-.868 2.692-.868 1.852 0 2.779.319 2.779.955l-.087 59.317c.002.233-.201.45-.606.652zm57.841-60.924c.521 0 1.056.073 1.606.217.55.146.795.334.738.564l-8.771 59.752c-.059.289-.334.478-.825.564-.493.087-1.029.131-1.606.131-.639 0-1.188-.044-1.65-.131-.464-.087-.725-.275-.782-.564l-2.778-18.759c-.348-2.315-.695-4.616-1.043-6.904-.347-2.287-.651-4.312-.911-6.08-.261-1.765-.465-3.213-.608-4.342-.146-1.129-.217-1.722-.217-1.78-.059-.231-.103-.318-.131-.261-.029.059-.043.146-.043.261 0 .058-.087.638-.261 1.737-.174 1.101-.391 2.534-.651 4.299-.261 1.767-.564 3.778-.912 6.036-.348 2.258-.694 4.575-1.042 6.948-.812 5.559-1.737 11.841-2.779 18.846 0 .289-.275.478-.825.564-.551.087-1.085.131-1.606.131-.464 0-.971-.044-1.52-.131-.551-.087-.825-.275-.825-.564l-8.859-59.752c0-.173.188-.347.564-.521.376-.173.969-.26 1.781-.26.81 0 1.433.015 1.867.043.435.03.68.188.738.478l6.079 40.993c.115.579.261.551.435-.087 1.042-7.526 1.968-14.272 2.779-20.236.347-2.547.694-5.037 1.042-7.469.348-2.432.651-4.617.912-6.557.26-1.939.478-3.502.651-4.69.174-1.186.26-1.809.26-1.867 0-.404.695-.608 2.085-.608s2.112.204 2.171.608c0 .058.087.695.261 1.911s.391 2.779.651 4.69.578 4.082.955 6.514c.376 2.432.738 4.922 1.086 7.469.868 5.964 1.824 12.738 2.866 20.323.057.29.13.42.217.391.087-.028.159-.187.217-.478.348-2.374.665-4.53.956-6.47.289-1.939.621-4.125.998-6.557.376-2.432.738-4.92 1.086-7.469.868-5.962 1.881-12.737 3.04-20.322.057-.231.36-.391.911-.478.549-.09 1.113-.133 1.693-.133zm11.29 61.229c-1.854 0-2.779-.261-2.779-.782v-59.492c0-.23.202-.448.607-.651.404-.202 1.1-.304 2.085-.304.983 0 1.693.102 2.127.304.435.204.651.421.651.651v59.317c.001.637-.897.957-2.691.957zm27.096-2.606c0 1.447-.291 2.171-.869 2.171h-14.938c-.521 0-.782-.23-.782-.694v-59.232c0-.173.218-.361.651-.564.435-.202 1.114-.304 2.041-.304.869 0 1.533.102 1.998.304.463.204.694.449.694.738v54.715c0 .405.144.607.435.607h9.9c.579 0 .87.754.87 2.259zm23.273-45.769c-.812 0-1.463-.115-1.954-.348-.492-.23-.738-.434-.738-.608v-4.255c0-.81-.217-1.477-.651-1.998s-1.144-.782-2.128-.782h-4.516c-.927 0-1.622.319-2.085.956-.464.638-.694 1.419-.694 2.345v7.295c0 1.622.376 3.083 1.129 4.386.752 1.303 1.707 2.562 2.866 3.778 1.157 1.216 2.401 2.432 3.734 3.648 1.331 1.216 2.575 2.548 3.734 3.995 1.157 1.448 2.113 3.054 2.866 4.82.752 1.767 1.129 3.778 1.129 6.036v11.204c0 2.605-.638 4.502-1.911 5.688-1.273 1.188-3.156 1.78-5.645 1.78h-5.646c-2.49 0-4.372-.564-5.645-1.693-1.274-1.129-1.911-2.967-1.911-5.515v-4.256c0-.174.202-.391.608-.651.404-.261 1.099-.391 2.084-.391 1.737 0 2.605.348 2.605 1.042v4.256c0 .812.23 1.476.694 1.997.463.521 1.187.781 2.172.781h4.429c.926 0 1.62-.317 2.085-.955.463-.637.694-1.418.694-2.345v-11.203c0-1.446-.377-2.851-1.129-4.212-.753-1.36-1.708-2.721-2.866-4.082-1.158-1.36-2.388-2.692-3.69-3.995s-2.534-2.634-3.691-3.995c-1.159-1.359-2.114-2.721-2.866-4.082-.753-1.36-1.129-2.765-1.129-4.212v-9.379c0-2.605.637-4.501 1.911-5.689 1.272-1.186 3.154-1.78 5.645-1.78h5.646c2.488 0 4.371.564 5.645 1.693 1.273 1.129 1.911 2.968 1.911 5.515v4.255c.001.638-.898.956-2.692.956zm22.06-12.42c2.489 0 4.371.564 5.646 1.693 1.272 1.129 1.91 2.968 1.91 5.515v45.683c0 2.605-.638 4.502-1.91 5.688-1.274 1.188-3.156 1.78-5.646 1.78h-5.646c-2.489 0-4.386-.564-5.688-1.693s-1.954-2.967-1.954-5.515v-45.682c0-2.605.651-4.501 1.954-5.689 1.303-1.186 3.199-1.78 5.688-1.78h5.646zm2.171 7.209c0-.81-.217-1.477-.651-1.998-.434-.521-1.144-.782-2.127-.782h-4.517c-.927 0-1.622.319-2.084.956-.465.638-.695 1.419-.695 2.345v45.422c0 .812.23 1.476.695 1.997.462.521 1.157.781 2.084.781h4.517c.925 0 1.62-.317 2.084-.955.463-.637.694-1.418.694-2.345v-45.421zm33.089 53.281c-.405.202-1.071.305-1.997.305-.927 0-1.578-.117-1.954-.348-.377-.23-.623-.463-.738-.695 0-.057-.261-.998-.781-2.822-.521-1.823-1.173-4.082-1.954-6.774-.782-2.692-1.607-5.602-2.476-8.728s-1.693-6.021-2.476-8.685c-.781-2.663-1.433-4.892-1.954-6.688-.521-1.794-.781-2.721-.781-2.779-.059-.174-.117-.274-.174-.304-.059-.029-.087.073-.087.304v36.563c0 .174-.231.378-.694.608-.465.23-1.129.348-1.998.348-.812 0-1.463-.103-1.954-.305-.492-.202-.738-.447-.738-.738v-59.144c0-.463.218-.752.651-.869.435-.115 1.114-.173 2.041-.173 1.737 0 2.721.232 2.953.695 1.794 6.659 3.444 12.651 4.95 17.978.637 2.258 1.26 4.473 1.867 6.644.608 2.171 1.143 4.112 1.606 5.819.463 1.708.854 3.098 1.173 4.168.317 1.072.478 1.637.478 1.694.058.173.115.319.174.434.057.117.087-.057.087-.521v-36.043c0-.578.897-.868 2.692-.868 1.853 0 2.779.319 2.779.955l-.087 59.317c0 .233-.204.45-.608.652z" fill="#4bb"/><path d="M19.262 108.507h.047l3.737-14.851h1.666l-4.499 17.136h-1.785l-3.975-15.137h-.048l-3.975 15.137h-1.783l-4.427-17.136h1.619l3.689 14.851h.047l3.975-14.851h1.809l3.903 14.851zm8.758 2.285v-17.136h11.4v1.38h-9.782v6.188h8.83v1.38h-8.83v6.807h10.02v1.381h-11.638zm15.256 0v-17.136h6.188c1 0 1.856.104 2.57.31.714.206 1.297.499 1.75.88s.781.837.988 1.369c.206.531.309 1.114.309 1.749 0 .604-.08 1.123-.238 1.559-.159.437-.365.802-.619 1.095-.254.294-.544.523-.869.69-.326.167-.663.282-1.012.345v.048c1.19.175 2.074.643 2.654 1.404.579.762.869 1.714.869 2.856 0 .889-.139 1.642-.417 2.261-.278.619-.663 1.118-1.154 1.499-.492.381-1.083.655-1.773.821-.69.167-1.44.25-2.25.25h-6.996zm1.619-9.567h4.093c.841 0 1.547-.071 2.118-.215.571-.143 1.031-.353 1.38-.63s.599-.619.75-1.023c.15-.405.226-.869.226-1.393 0-.539-.087-.995-.262-1.368-.175-.373-.452-.675-.833-.905-.381-.229-.877-.396-1.488-.499s-1.36-.155-2.249-.155h-3.736v6.188zm0 8.186h4.117c.889 0 1.662-.039 2.32-.118s1.202-.242 1.63-.488c.429-.246.75-.595.964-1.047.214-.452.321-1.051.321-1.797 0-.714-.119-1.289-.357-1.726-.238-.437-.579-.773-1.023-1.012s-.976-.4-1.594-.488c-.619-.087-1.309-.131-2.071-.131h-4.308v6.807zm27.179-10.519h1.428v5.236h5.236v1.428h-5.236v5.236h-1.428v-5.236h-5.236v-1.428h5.236v-5.236zm25.489 4.426v-1.38h7.331v8.854h-1.38v-2.928c-.302.509-.647.973-1.035 1.393-.389.421-.837.777-1.345 1.071-.508.294-1.095.52-1.761.678-.667.159-1.42.238-2.261.238-1.079 0-2.079-.19-2.999-.571-.92-.381-1.714-.948-2.38-1.701-.666-.754-1.186-1.702-1.559-2.845-.373-1.143-.56-2.475-.56-3.998 0-1.253.159-2.424.476-3.511s.805-2.03 1.464-2.832c.658-.801 1.483-1.432 2.475-1.893.991-.46 2.162-.689 3.511-.689.904 0 1.749.111 2.535.333.785.223 1.491.56 2.118 1.012.626.452 1.154 1.016 1.583 1.689.428.675.738 1.472.928 2.392h-1.666c-.143-.634-.385-1.205-.726-1.713s-.75-.933-1.226-1.273-1.008-.604-1.595-.786c-.587-.182-1.198-.273-1.833-.273-1.126 0-2.094.199-2.903.595-.81.397-1.476.957-2 1.679-.523.722-.908 1.587-1.154 2.594-.246 1.008-.369 2.114-.369 3.32 0 .952.139 1.856.417 2.713.277.857.682 1.61 1.214 2.261.531.651 1.182 1.167 1.952 1.548.769.381 1.646.571 2.63.571.46 0 .936-.052 1.428-.155.492-.103.968-.273 1.428-.512.46-.238.888-.547 1.285-.928.396-.381.738-.849 1.023-1.404.27-.539.456-1.103.559-1.69.103-.587.163-1.205.179-1.856h-5.784zm13.733-.308v7.782h-1.619v-17.136h6.712c1.888 0 3.332.353 4.332 1.059s1.5 1.853 1.5 3.439c0 1.079-.218 1.936-.655 2.57s-1.146 1.175-2.13 1.618c.507.175.904.429 1.19.762s.5.714.643 1.143c.143.429.234.881.273 1.356.04.477.067.937.083 1.381.016.65.043 1.189.083 1.618.039.429.087.777.143 1.047.056.271.123.48.202.631.08.151.175.266.286.345v.167h-1.785c-.175-.285-.298-.682-.369-1.19-.071-.507-.127-1.039-.167-1.594-.04-.556-.071-1.096-.095-1.619s-.068-.952-.131-1.285c-.095-.46-.25-.829-.464-1.106-.214-.277-.472-.488-.773-.631s-.639-.238-1.011-.285c-.373-.048-.758-.071-1.154-.071h-5.094zm5.045-1.381c.603 0 1.162-.063 1.678-.19.515-.127.964-.329 1.345-.606.38-.277.682-.631.904-1.06.222-.429.333-.943.333-1.547 0-.635-.115-1.158-.345-1.57-.23-.413-.54-.738-.928-.977-.389-.237-.833-.404-1.333-.5-.5-.095-1.02-.143-1.559-.143h-5.141v6.593h5.046zm8.449 9.163l6.735-17.136h1.833l6.569 17.136h-1.666l-1.975-5.379h-7.807l-2.023 5.379h-1.666zm4.236-6.759h6.712l-3.356-8.997-3.356 8.997zm13.923 6.759v-17.136h6.259c1.11 0 2.027.127 2.749.381s1.293.603 1.713 1.047.714.956.881 1.535.25 1.187.25 1.82c0 .952-.195 1.737-.583 2.356s-.892 1.106-1.511 1.464c-.619.356-1.321.606-2.106.75-.786.143-1.575.214-2.368.214h-3.666v7.568h-1.618zm5.331-8.949c.762 0 1.444-.047 2.047-.143.603-.095 1.115-.273 1.535-.535s.746-.619.976-1.071.345-1.043.345-1.773c0-1.078-.353-1.896-1.059-2.451-.706-.555-1.829-.833-3.368-.833h-4.189v6.807h3.713zm9.972 8.949v-17.136h1.619v7.354h10.139v-7.354h1.619v17.136h-1.619v-8.401h-10.139v8.401h-1.619zm18.636 0v-17.136h1.617v17.136h-1.617zm18.516-12.162c-.333-1.459-.952-2.499-1.856-3.117-.904-.619-2.087-.929-3.547-.929-1.031 0-1.92.207-2.665.619-.746.413-1.36.968-1.845 1.666s-.841 1.503-1.071 2.416c-.229.912-.345 1.876-.345 2.892 0 .951.099 1.888.298 2.808.198.921.527 1.742.987 2.464s1.079 1.305 1.856 1.749 1.753.667 2.928.667c.729 0 1.396-.119 1.999-.357.603-.238 1.131-.567 1.583-.987.452-.421.833-.917 1.142-1.488.31-.571.544-1.197.702-1.88h1.69c-.19.825-.469 1.606-.833 2.345-.365.737-.845 1.384-1.44 1.939-.595.556-1.317.996-2.166 1.32-.849.325-1.844.488-2.986.488-1.317 0-2.443-.242-3.38-.726-.937-.484-1.701-1.139-2.297-1.964-.595-.825-1.027-1.781-1.297-2.868-.27-1.086-.404-2.24-.404-3.463 0-1.634.202-3.022.606-4.165.405-1.142.964-2.074 1.678-2.796.715-.722 1.556-1.246 2.523-1.571s2.022-.487 3.165-.487c.873 0 1.686.115 2.439.345.754.23 1.42.575 1.999 1.035.579.461 1.056 1.027 1.429 1.702.372.675.631 1.456.773 2.344h-1.665zm12.804 12.162v-17.136h5.854c.477 0 .944.012 1.404.035.46.024.912.08 1.356.167s.877.218 1.298.393c.42.175.828.404 1.226.69.571.412 1.039.916 1.404 1.511.364.596.654 1.223.868 1.881.215.658.365 1.324.452 1.999s.131 1.297.131 1.868-.035 1.15-.106 1.737-.187 1.162-.346 1.726c-.158.563-.368 1.103-.631 1.618-.262.516-.591.988-.987 1.416-.396.444-.829.802-1.297 1.071-.469.27-.96.48-1.476.631s-1.052.254-1.606.31c-.556.056-1.119.083-1.69.083h-5.854zm1.618-1.381h3.88c.729 0 1.416-.043 2.059-.131.643-.087 1.297-.305 1.964-.654.57-.285 1.039-.674 1.403-1.166.365-.491.655-1.027.869-1.606s.365-1.186.452-1.82.131-1.246.131-1.833c0-.619-.04-1.249-.119-1.893-.079-.643-.229-1.253-.452-1.832s-.523-1.11-.904-1.595c-.381-.483-.873-.885-1.476-1.202-.508-.27-1.11-.443-1.809-.523-.698-.079-1.404-.119-2.118-.119h-3.88v14.374zm16.422 1.381v-17.136h11.4v1.38h-9.782v6.188h8.83v1.38h-8.83v6.807h10.021v1.381h-11.639zm15.921-5.117c.063.762.234 1.408.512 1.939.278.532.635.964 1.071 1.298.437.333.94.575 1.512.726.571.151 1.182.227 1.832.227.762 0 1.42-.096 1.976-.286s1.008-.448 1.356-.773.607-.702.773-1.131c.167-.428.25-.88.25-1.356 0-.666-.15-1.205-.452-1.618-.302-.412-.694-.75-1.178-1.012s-1.04-.472-1.666-.631c-.627-.158-1.27-.312-1.928-.464-.659-.15-1.302-.329-1.928-.535-.627-.206-1.183-.484-1.666-.833-.484-.349-.877-.798-1.179-1.345-.302-.548-.452-1.241-.452-2.083 0-.587.123-1.157.369-1.713s.61-1.048 1.095-1.476c.484-.429 1.091-.77 1.82-1.023.73-.254 1.571-.381 2.523-.381.968 0 1.812.135 2.534.404.723.27 1.321.639 1.797 1.106.477.469.833 1.012 1.071 1.631.238.618.357 1.277.357 1.975h-1.547c0-.65-.116-1.213-.346-1.689-.23-.476-.544-.864-.939-1.166-.397-.302-.85-.523-1.357-.666-.508-.144-1.031-.215-1.57-.215-.825 0-1.52.115-2.083.346-.563.229-1.011.527-1.345.893-.333.364-.563.77-.689 1.213-.128.445-.151.89-.071 1.333.095.556.316 1 .666 1.333.349.333.777.606 1.285.821.508.214 1.066.389 1.678.523.61.135 1.233.277 1.868.429.635.15 1.25.329 1.845.535s1.122.484 1.583.833c.46.35.829.797 1.106 1.345s.416 1.233.416 2.059c0 1.587-.547 2.816-1.642 3.689-1.095.872-2.634 1.309-4.617 1.309-.889 0-1.714-.115-2.476-.345-.762-.23-1.42-.579-1.976-1.048-.555-.468-.987-1.047-1.297-1.737s-.464-1.503-.464-2.439h1.573zm15.162 5.117v-17.136h1.618v17.136h-1.618zm13.637-7.474v-1.38h7.33v8.854h-1.381v-2.928c-.301.509-.646.973-1.035 1.393-.389.421-.837.777-1.345 1.071s-1.095.52-1.761.678c-.667.159-1.42.238-2.261.238-1.079 0-2.079-.19-2.999-.571-.921-.381-1.714-.948-2.38-1.701-.667-.754-1.187-1.702-1.56-2.845s-.559-2.475-.559-3.998c0-1.253.158-2.424.476-3.511s.806-2.03 1.464-2.832c.658-.801 1.483-1.432 2.476-1.893.991-.46 2.161-.689 3.51-.689.904 0 1.75.111 2.535.333.785.223 1.491.56 2.118 1.012s1.154 1.016 1.583 1.689c.428.675.737 1.472.928 2.392h-1.666c-.143-.634-.385-1.205-.726-1.713-.342-.508-.75-.933-1.226-1.273-.477-.341-1.008-.604-1.595-.786-.588-.182-1.198-.273-1.833-.273-1.127 0-2.095.199-2.903.595-.81.397-1.476.957-1.999 1.679s-.909 1.587-1.154 2.594c-.246 1.008-.369 2.114-.369 3.32 0 .952.139 1.856.416 2.713.277.857.683 1.61 1.214 2.261.532.651 1.183 1.167 1.952 1.548s1.646.571 2.63.571c.46 0 .936-.052 1.428-.155.491-.103.968-.273 1.428-.512s.889-.547 1.285-.928.738-.849 1.023-1.404c.27-.539.456-1.103.56-1.69.104-.587.162-1.205.179-1.856h-5.783zm13.756-7.472h-.047v14.946h-1.619v-17.136h1.833l9.9 14.97h.048v-14.97h1.618v17.136h-1.88l-9.853-14.946zm16.422 14.946v-17.136h11.4v1.38h-9.782v6.188h8.83v1.38h-8.83v6.807h10.021v1.381h-11.639zm16.851-7.782v7.782h-1.618v-17.136h6.711c1.889 0 3.332.353 4.332 1.059s1.499 1.853 1.499 3.439c0 1.079-.218 1.936-.654 2.57s-1.146 1.175-2.13 1.618c.508.175.904.429 1.189.762.286.333.5.714.643 1.143.144.429.234.881.274 1.356.039.477.067.937.083 1.381.016.65.044 1.189.083 1.618.04.429.087.777.144 1.047.055.271.122.48.202.631.079.151.174.266.285.345v.167h-1.785c-.175-.285-.297-.682-.368-1.19-.072-.507-.128-1.039-.167-1.594-.04-.556-.071-1.096-.096-1.619-.023-.523-.067-.952-.131-1.285-.095-.46-.249-.829-.464-1.106-.214-.277-.472-.488-.773-.631s-.639-.238-1.012-.285c-.373-.048-.758-.071-1.154-.071h-5.093zm5.045-1.381c.603 0 1.162-.063 1.678-.19s.964-.329 1.345-.606.682-.631.904-1.06c.222-.429.333-.943.333-1.547 0-.635-.115-1.158-.345-1.57-.23-.413-.54-.738-.929-.977-.389-.237-.833-.404-1.333-.5-.499-.095-1.02-.143-1.559-.143h-5.141v6.593h5.047z" fill="#7C7C7C"/></svg>